STARTFONT 2.1
FONT -Adobe-Courier-Bold-O-Normal--34-240-100-100-M-200-ISO10646-1
SIZE 24 100 100
FONTBOUNDINGBOX 36 44 -7 -11
COMMENT $Xorg: $
COMMENT ISO10646-1 extension by Markus Kuhn <mkuhn@acm.org>, 2001-03-20
COMMENT 
COMMENT +
COMMENT  Copyright 1984-1989, 1994 Adobe Systems Incorporated.
COMMENT  Copyright 1988, 1994 Digital Equipment Corporation.
COMMENT
COMMENT  Adobe is a trademark of Adobe Systems Incorporated which may be
COMMENT  registered in certain jurisdictions.
COMMENT  Permission to use these trademarks is hereby granted only in
COMMENT  association with the images described in this file.
COMMENT
COMMENT  Permission to use, copy, modify, distribute and sell this software
COMMENT  and its documentation for any purpose and without fee is hereby
COMMENT  granted, provided that the above copyright notices appear in all
COMMENT  copies and that both those copyright notices and this permission
COMMENT  notice appear in supporting documentation, and that the names of
COMMENT  Adobe Systems and Digital Equipment Corporation not be used in
COMMENT  advertising or publicity pertaining to distribution of the software
COMMENT  without specific, written prior permission.  Adobe Systems and
COMMENT  Digital Equipment Corporation make no representations about the
COMMENT  suitability of this software for any purpose.  It is provided "as
COMMENT  is" without express or implied warranty.
COMMENT -
STARTPROPERTIES 26
FOUNDRY "Adobe"
FAMILY_NAME "Courier"
WEIGHT_NAME "Bold"
SLANT "O"
SETWIDTH_NAME "Normal"
ADD_STYLE_NAME ""
PIXEL_SIZE 34
POINT_SIZE 240
RESOLUTION_X 100
RESOLUTION_Y 100
SPACING "M"
AVERAGE_WIDTH 200
CHARSET_REGISTRY "ISO10646"
CHARSET_ENCODING "1"
CAP_HEIGHT 20
X_HEIGHT 15
FONT_ASCENT 23
FONT_DESCENT 7
FACE_NAME "Courier Bold Oblique"
COPYRIGHT "Copyright (c) 1984, 1987 Adobe Systems Incorporated. All Rights Reserved. Copyright (c) 1988, 1991 Digital Equipment Corporation. All Rights Reserved."
NOTICE "No mark"

STARTCHAR char0
ENCODING 0
SWIDTH 600 0
DWIDTH 20 0
BBX 21 19 0 0
BITMAP
AAAAA8
000000
800008
000000
800008
000000
800008
000000
800008
000000
800008
000000
800008
000000
800008
000000
800008
000000
AAAAA8
ENDCHAR
STARTCHAR space
ENCODING 32
SWIDTH 600 0
DWIDTH 20 0
BBX 1 1 0 0
BITMAP
00
ENDCHAR
STARTCHAR exclam
ENCODING 33
SWIDTH 600 0
DWIDTH 20 0
BBX 8 21 8 0
BITMAP
0E
1F
1F
1F
1E
1E
1E
1C
1C
1C
18
18
18
10
10
00
00
70
F8
F8
F0
ENDCHAR
STARTCHAR quotedbl
ENCODING 34
SWIDTH 600 0
DWIDTH 20 0
BBX 11 10 8 10
BITMAP
F1E0
F1E0
F1E0
F1E0
E1C0
E1C0
E1C0
C180
C180
C180
ENDCHAR
STARTCHAR numbersign
ENCODING 35
SWIDTH 600 0
DWIDTH 20 0
BBX 17 26 3 -3
BITMAP
00C300
01C700
01C700
01C700
01CF00
038E00
038E00
038E00
1FFF80
3FFF80
3FFF00
071C00
0E3800
0E3800
0E3800
7FFE00
FFFE00
FFFC00
1C7000
38E000
38E000
39E000
79C000
71C000
71C000
618000
ENDCHAR
STARTCHAR dollar
ENCODING 36
SWIDTH 600 0
DWIDTH 20 0
BBX 16 27 4 -4
BITMAP
0070
0070
0070
01F8
07FF
0FFF
1E0F
1C0E
1C0E
1E00
1F80
0FE0
07F8
00FC
003C
601C
E01C
E03C
F0F8
FFF0
FFE0
DF80
0E00
0E00
0E00
0E00
0E00
ENDCHAR
STARTCHAR percent
ENCODING 37
SWIDTH 600 0
DWIDTH 20 0
BBX 17 21 3 0
BITMAP
07C000
0FE000
1C7000
383000
303000
303000
387080
1FE380
0F8F00
003C00
03F000
1F0000
7C7800
E1FC00
038E00
070600
060600
060600
030C00
03FC00
01F000
ENDCHAR
STARTCHAR ampersand
ENCODING 38
SWIDTH 600 0
DWIDTH 20 0
BBX 15 18 4 0
BITMAP
00F8
03FC
07F8
0F30
0E00
0E00
0E00
0F00
0F00
3F8E
7B9E
73DE
E1F8
E0F0
E1E0
FFF8
FEF8
7CF0
ENDCHAR
STARTCHAR quotesingle
ENCODING 39
SWIDTH 600 0
DWIDTH 20 0
BBX 5 9 11 11
BITMAP
78
78
F0
F0
E0
E0
E0
C0
C0
ENDCHAR
STARTCHAR parenleft
ENCODING 40
SWIDTH 600 0
DWIDTH 20 0
BBX 10 26 10 -5
BITMAP
00C0
01C0
03C0
0780
0700
0F00
1E00
3C00
3C00
7800
7800
7800
F000
F000
F000
F000
F000
F000
F000
F000
7000
7800
7800
3800
3800
3000
ENDCHAR
STARTCHAR parenright
ENCODING 41
SWIDTH 600 0
DWIDTH 20 0
BBX 10 26 2 -5
BITMAP
0300
0780
0780
03C0
03C0
03C0
01C0
01C0
01C0
01C0
01C0
01C0
03C0
03C0
0380
0380
0780
0700
0F00
0E00
1E00
3C00
7800
7000
F000
C000
ENDCHAR
STARTCHAR asterisk
ENCODING 42
SWIDTH 600 0
DWIDTH 20 0
BBX 15 14 6 7
BITMAP
01C0
01C0
01C0
01C0
7BDE
7FFE
FFFC
07E0
0FE0
1EE0
3CF0
7870
7078
2030
ENDCHAR
STARTCHAR plus
ENCODING 43
SWIDTH 600 0
DWIDTH 20 0
BBX 17 19 3 0
BITMAP
007000
00F000
00F000
00E000
00E000
00E000
00E000
01C000
7FFF80
FFFF80
FFFF00
03C000
038000
038000
038000
038000
078000
078000
070000
ENDCHAR
STARTCHAR comma
ENCODING 44
SWIDTH 600 0
DWIDTH 20 0
BBX 8 8 4 -4
BITMAP
0F
1E
1C
3C
38
70
E0
C0
ENDCHAR
STARTCHAR hyphen
ENCODING 45
SWIDTH 600 0
DWIDTH 20 0
BBX 14 3 4 8
BITMAP
7FFC
FFFC
FFF8
ENDCHAR
STARTCHAR period
ENCODING 46
SWIDTH 600 0
DWIDTH 20 0
BBX 4 4 8 0
BITMAP
70
F0
F0
E0
ENDCHAR
STARTCHAR slash
ENCODING 47
SWIDTH 600 0
DWIDTH 20 0
BBX 20 27 2 -4
BITMAP
000030
0000F0
0000E0
0001C0
0003C0
000380
000700
000F00
000E00
001C00
003C00
003800
007000
00F000
00E000
01C000
03C000
038000
070000
0F0000
0E0000
1C0000
3C0000
380000
700000
F00000
C00000
ENDCHAR
STARTCHAR zero
ENCODING 48
SWIDTH 600 0
DWIDTH 20 0
BBX 15 21 5 0
BITMAP
01F0
07F8
0FFC
1E3C
3C1C
381E
780E
700E
700E
F01C
E01C
E01C
E01C
E03C
E038
E078
E070
F1E0
7FE0
7F80
1F00
ENDCHAR
STARTCHAR one
ENCODING 49
SWIDTH 600 0
DWIDTH 20 0
BBX 14 21 3 0
BITMAP
0038
03F8
1FF0
1FF0
1CF0
00E0
00E0
00E0
00E0
01E0
01C0
01C0
01C0
03C0
0380
0380
0780
0780
7FFC
FFFC
FFF8
ENDCHAR
STARTCHAR two
ENCODING 50
SWIDTH 600 0
DWIDTH 20 0
BBX 18 21 2 0
BITMAP
007E00
01FF80
03FF80
07C3C0
0F01C0
0E01C0
0401C0
0003C0
000780
000F00
001E00
007C00
00F800
01F000
07C000
0F8000
3E0000
780000
FFFE00
FFFE00
FFFC00
ENDCHAR
STARTCHAR three
ENCODING 51
SWIDTH 600 0
DWIDTH 20 0
BBX 18 21 2 0
BITMAP
00FE00
03FF00
07FF80
0783C0
0601C0
0003C0
000380
000F80
00FE00
00FC00
00FE00
001F00
000700
000700
000700
000700
000F00
703E00
FFFC00
FFF800
3FE000
ENDCHAR
STARTCHAR four
ENCODING 52
SWIDTH 600 0
DWIDTH 20 0
BBX 16 21 2 0
BITMAP
001F
003F
007E
00FE
00EE
01CE
03DC
079C
0F1C
0E3C
1C38
3C38
7038
FFFE
FFFE
FFFC
0070
0070
03FE
07FE
07FC
ENDCHAR
STARTCHAR five
ENCODING 53
SWIDTH 600 0
DWIDTH 20 0
BBX 17 21 3 0
BITMAP
07FF80
07FF80
07FF00
070000
0F0000
0E0000
0E0000
0FF000
0FFC00
1FFE00
1E1E00
000F00
000700
000F00
000E00
000E00
601E00
F07C00
FFF800
7FF000
1FC000
ENDCHAR
STARTCHAR six
ENCODING 54
SWIDTH 600 0
DWIDTH 20 0
BBX 16 21 4 0
BITMAP
003F
01FF
07FE
0F80
1E00
3C00
3800
7800
73C0
F7F0
FFF8
FC78
F838
F038
E038
E038
E078
F0F0
7FE0
7FC0
1F00
ENDCHAR
STARTCHAR seven
ENCODING 55
SWIDTH 600 0
DWIDTH 20 0
BBX 14 21 5 0
BITMAP
7FFC
7FFC
FFFC
E03C
C038
0078
0070
00F0
00E0
01C0
01C0
0380
0780
0700
0F00
0E00
1E00
1C00
3C00
7800
3000
ENDCHAR
STARTCHAR eight
ENCODING 56
SWIDTH 600 0
DWIDTH 20 0
BBX 16 21 4 0
BITMAP
00F8
03FE
07FE
0F0F
0E07
1E07
1C07
1C0E
1E3E
0FF8
0FF0
3FF8
783C
F01C
E01C
E01C
E03C
F078
7FF8
7FE0
1F80
ENDCHAR
STARTCHAR nine
ENCODING 57
SWIDTH 600 0
DWIDTH 20 0
BBX 16 21 3 0
BITMAP
00F8
01FE
07FE
078F
0E07
1E07
1C07
1C07
1C0F
1C0F
1E1F
0FFF
0FEE
03CE
001E
003C
0078
03F0
7FE0
FF80
FE00
ENDCHAR
STARTCHAR colon
ENCODING 58
SWIDTH 600 0
DWIDTH 20 0
BBX 7 15 8 0
BITMAP
1E
3E
3E
3C
00
00
00
00
00
00
00
78
F8
F8
F0
ENDCHAR
STARTCHAR semicolon
ENCODING 59
SWIDTH 600 0
DWIDTH 20 0
BBX 12 20 2 -5
BITMAP
00F0
01F0
01F0
01E0
0000
0000
0000
0000
0000
0000
0000
07C0
0F80
0F00
1E00
3C00
3800
7000
E000
4000
ENDCHAR
STARTCHAR less
ENCODING 60
SWIDTH 600 0
DWIDTH 20 0
BBX 19 19 3 0
BITMAP
000060
0001E0
0007C0
001F80
007E00
01F800
07E000
1F8000
7F0000
FC0000
7E0000
1F0000
0FC000
03E000
01F800
007C00
003E00
000E00
000400
ENDCHAR
STARTCHAR equal
ENCODING 61
SWIDTH 600 0
DWIDTH 20 0
BBX 20 9 2 5
BITMAP
1FFFF0
3FFFF0
3FFFE0
000000
000000
000000
7FFFC0
FFFFC0
FFFF80
ENDCHAR
STARTCHAR greater
ENCODING 62
SWIDTH 600 0
DWIDTH 20 0
BBX 19 19 2 0
BITMAP
040000
0E0000
0F8000
07C000
03F000
00F800
007E00
001F00
000FC0
0007E0
001FC0
003F00
00FC00
03F000
0FC000
3F0000
7C0000
F00000
C00000
ENDCHAR
STARTCHAR question
ENCODING 63
SWIDTH 600 0
DWIDTH 20 0
BBX 13 20 7 0
BITMAP
0FC0
3FE0
7FF0
F078
E038
C038
0038
0078
01F0
0FE0
1F80
1C00
3C00
3800
0000
0000
7000
F800
F800
F000
ENDCHAR
STARTCHAR at
ENCODING 64
SWIDTH 600 0
DWIDTH 20 0
BBX 15 23 4 -2
BITMAP
00F8
03FC
078E
0E06
0C06
1806
3806
303E
30FE
71EE
638C
630C
630C
639C
41FC
C0FC
C000
C000
6000
6000
7070
3FF0
0F80
ENDCHAR
STARTCHAR A
ENCODING 65
SWIDTH 600 0
DWIDTH 20 0
BBX 21 20 -1 0
BITMAP
00FF80
01FF80
01FF80
001F80
003B80
003B80
0073C0
00F1C0
00E1C0
01E1C0
01C1C0
0381C0
07FFE0
07FFE0
0FFFE0
0E00E0
1C00E0
7F83F8
FF87F8
FF07F0
ENDCHAR
STARTCHAR B
ENCODING 66
SWIDTH 600 0
DWIDTH 20 0
BBX 19 20 0 0
BITMAP
0FFF80
1FFFC0
1FFFE0
0781E0
0700E0
0700E0
0700E0
0701E0
0FFFC0
0FFF00
0FFFC0
0E03E0
1E01E0
1C00E0
1C00E0
1C01E0
1C03E0
7FFFC0
FFFF80
FFFE00
ENDCHAR
STARTCHAR C
ENCODING 67
SWIDTH 600 0
DWIDTH 20 0
BBX 19 20 3 0
BITMAP
00FC60
03FFE0
0FFFE0
1F83E0
1E01C0
3801C0
780180
700000
F00000
E00000
E00000
E00000
E00000
E00000
E00000
F00700
781F00
7FFE00
1FFC00
07F000
ENDCHAR
STARTCHAR D
ENCODING 68
SWIDTH 600 0
DWIDTH 20 0
BBX 19 20 1 0
BITMAP
0FFE00
1FFF80
1FFFC0
0783E0
0701E0
0700E0
0700E0
0700E0
0F00E0
0E00E0
0E00E0
0E00E0
1E01C0
1C01C0
1C03C0
1C0780
1C0F00
7FFE00
FFFC00
FFF000
ENDCHAR
STARTCHAR E
ENCODING 69
SWIDTH 600 0
DWIDTH 20 0
BBX 21 20 1 0
BITMAP
0FFFF8
1FFFF8
1FFFF0
078070
070070
070070
070E60
070E00
0FFE00
0FFC00
0FFC00
0E1C00
1E1C00
1C1CE0
1C01C0
1C01C0
1C01C0
7FFFC0
FFFF80
FFFF80
ENDCHAR
STARTCHAR F
ENCODING 70
SWIDTH 600 0
DWIDTH 20 0
BBX 21 20 1 0
BITMAP
0FFFF8
1FFFF8
1FFFF0
078070
070070
070070
070E60
070E00
0FFE00
0FFC00
0FFC00
0E1C00
1E1C00
1C1C00
1C0000
1C0000
1C0000
7FF000
FFF000
FFE000
ENDCHAR
STARTCHAR G
ENCODING 71
SWIDTH 600 0
DWIDTH 20 0
BBX 19 20 3 0
BITMAP
00FC60
03FFE0
0FFFC0
1F03C0
3C01C0
7801C0
700180
F00000
E00000
E00000
E00000
E07FC0
E0FFC0
E0FF80
E00700
F00700
781F00
7FFF00
3FFE00
0FF000
ENDCHAR
STARTCHAR H
ENCODING 72
SWIDTH 600 0
DWIDTH 20 0
BBX 22 20 0 0
BITMAP
0FF1FC
1FF3FC
1FE3F8
0780F0
0700E0
0700E0
0700E0
0700E0
0FFFE0
0FFFC0
0FFFC0
0E01C0
1E03C0
1C0380
1C0380
1C0380
1C0380
7F1FE0
FF3FE0
FE3FC0
ENDCHAR
STARTCHAR I
ENCODING 73
SWIDTH 600 0
DWIDTH 20 0
BBX 17 20 3 0
BITMAP
0FFF80
1FFF80
1FFF00
00F000
00E000
00E000
00E000
00E000
01E000
01C000
01C000
01C000
03C000
038000
038000
038000
038000
7FFC00
FFFC00
FFF800
ENDCHAR
STARTCHAR J
ENCODING 74
SWIDTH 600 0
DWIDTH 20 0
BBX 21 20 3 0
BITMAP
007FF8
00FFF8
00FFF0
000780
000700
000700
000700
000700
000F00
000E00
000E00
700E00
F01E00
E01C00
E01C00
E03C00
F0F800
FFF000
FFE000
3F8000
ENDCHAR
STARTCHAR K
ENCODING 75
SWIDTH 600 0
DWIDTH 20 0
BBX 22 20 1 0
BITMAP
0FF1FC
1FF3FC
1FE3F8
0781E0
0703C0
070780
071F00
077C00
0FF000
0FF800
0FFC00
0F3C00
1E1E00
1C0E00
1C0E00
1C0700
1C0700
7F87E0
FF87E0
FF07C0
ENDCHAR
STARTCHAR L
ENCODING 76
SWIDTH 600 0
DWIDTH 20 0
BBX 20 20 1 0
BITMAP
07FE00
0FFE00
0FFC00
01E000
01C000
01C000
01C000
01C000
03C000
038000
038000
038000
078070
0700E0
0700E0
0700E0
0700E0
7FFFE0
FFFFC0
FFFFC0
ENDCHAR
STARTCHAR M
ENCODING 77
SWIDTH 600 0
DWIDTH 20 0
BBX 24 20 -1 0
BITMAP
0FC07F
1FC07F
1FC0FE
07E0F8
07E1F8
07E1F8
07E3B8
06E378
0EF778
0EF770
0E7E70
0E7C70
1E7CF0
1C78E0
1C70E0
1C70E0
1C00E0
7F87F8
FF8FF8
FF0FF0
ENDCHAR
STARTCHAR N
ENCODING 78
SWIDTH 600 0
DWIDTH 20 0
BBX 22 20 1 0
BITMAP
0F81FC
1FC3FC
1FC3F8
07C0F0
07E0E0
07E0E0
07F0E0
0770E0
0F71E0
0E79C0
0E39C0
0E39C0
1E3DC0
1C1D80
1C1F80
1C1F80
1C0F80
7F8F80
FF8700
FF0700
ENDCHAR
STARTCHAR O
ENCODING 79
SWIDTH 600 0
DWIDTH 20 0
BBX 18 20 2 0
BITMAP
00FC00
03FF00
0FFF80
0F0780
1E03C0
3C01C0
7801C0
7001C0
7001C0
E001C0
E001C0
E003C0
E00380
E00780
F00700
700F00
7C3E00
3FFC00
1FF000
07C000
ENDCHAR
STARTCHAR P
ENCODING 80
SWIDTH 600 0
DWIDTH 20 0
BBX 19 20 2 0
BITMAP
0FFF00
1FFF80
1FFFC0
0781E0
0700E0
0700E0
0700E0
0701E0
0F01C0
0E0F80
0FFF00
0FFE00
1FE000
1C0000
1C0000
1C0000
1C0000
7FE000
FFE000
FFC000
ENDCHAR
STARTCHAR Q
ENCODING 81
SWIDTH 600 0
DWIDTH 20 0
BBX 18 25 2 -5
BITMAP
00FC00
03FE00
07FF00
0F8780
1E0380
3C01C0
7801C0
7001C0
7001C0
F001C0
E001C0
E003C0
E00380
E00780
F00700
701E00
787E00
3FF800
1FF000
0FC000
1E0700
7FCF00
7FFF00
78FE00
001C00
ENDCHAR
STARTCHAR R
ENCODING 82
SWIDTH 600 0
DWIDTH 20 0
BBX 19 20 1 0
BITMAP
0FFF00
1FFFC0
1FFFC0
0781E0
0700E0
0700E0
0700E0
0701E0
0F07C0
0FFF80
0FFE00
0FFC00
1E1E00
1C0E00
1C0F00
1C0700
1C0780
7F83E0
FF83E0
FF01E0
ENDCHAR
STARTCHAR S
ENCODING 83
SWIDTH 600 0
DWIDTH 20 0
BBX 19 20 2 0
BITMAP
00FC00
03FF60
07FFE0
0F03E0
0E01C0
0E01C0
0E0180
0F0000
0FC000
07F800
03FE00
007F00
000F80
000380
700380
700380
7C0700
FFFF00
FFFE00
C7F800
ENDCHAR
STARTCHAR T
ENCODING 84
SWIDTH 600 0
DWIDTH 20 0
BBX 18 20 4 0
BITMAP
3FFFC0
3FFFC0
7FFF80
71E380
71C380
71C380
E1C700
E1C700
E3C700
038000
038000
038000
078000
070000
070000
070000
070000
7FF000
FFF000
FFE000
ENDCHAR
STARTCHAR U
ENCODING 85
SWIDTH 600 0
DWIDTH 20 0
BBX 19 20 3 0
BITMAP
7F8FE0
FF9FE0
FF1FC0
3C0780
380700
380700
380700
380700
780F00
700E00
700E00
700E00
F01E00
E01C00
E01C00
703C00
78F800
7FF000
3FE000
0F8000
ENDCHAR
STARTCHAR V
ENCODING 86
SWIDTH 600 0
DWIDTH 20 0
BBX 21 20 3 0
BITMAP
7F07F8
FF0FF8
FE0FF0
3801C0
3803C0
380380
1C0700
1C0F00
1C0E00
1C1E00
1C1C00
1E3800
0E7800
0E7000
0EE000
0FE000
0FC000
07C000
078000
070000
ENDCHAR
STARTCHAR W
ENCODING 87
SWIDTH 600 0
DWIDTH 20 0
BBX 22 20 3 0
BITMAP
7F81FC
FF83FC
FF03F8
3800F0
3870E0
3870E0
38F1E0
38F1C0
39F9C0
39F9C0
3BBB80
3B3B80
3F3B80
7E3F00
7E3F00
7C1F00
7C1E00
781E00
781E00
701E00
ENDCHAR
STARTCHAR X
ENCODING 88
SWIDTH 600 0
DWIDTH 20 0
BBX 23 20 0 0
BITMAP
07E0FE
0FE1FE
0FC1FC
03C0F0
01C1E0
01E3C0
00F780
00FF00
007E00
003C00
007C00
00FE00
01FE00
03CF00
078700
0F0780
1E0380
7F0FE0
FF1FE0
FE1FC0
ENDCHAR
STARTCHAR Y
ENCODING 89
SWIDTH 600 0
DWIDTH 20 0
BBX 19 20 4 0
BITMAP
7E0FE0
FE1FE0
FC1FC0
3C0F00
1C1E00
1E3C00
0E3800
0F7000
077000
07E000
07C000
038000
038000
038000
070000
070000
070000
7FF000
FFF000
FFE000
ENDCHAR
STARTCHAR Z
ENCODING 90
SWIDTH 600 0
DWIDTH 20 0
BBX 18 20 2 0
BITMAP
07FFC0
07FFC0
07FFC0
0F03C0
0E0780
0E0F00
1C1E00
003C00
007800
00F000
01E000
03C000
078000
0F0380
1E0700
3C0700
780F00
7FFF00
7FFE00
FFFE00
ENDCHAR
STARTCHAR bracketleft
ENCODING 91
SWIDTH 600 0
DWIDTH 20 0
BBX 13 26 7 -5
BITMAP
07F8
07F8
07F0
0700
0F00
0E00
0E00
0E00
0E00
1E00
1C00
1C00
1C00
3C00
3800
3800
3800
3800
7800
7000
7000
7000
7000
FF00
FF00
FE00
ENDCHAR
STARTCHAR backslash
ENCODING 92
SWIDTH 600 0
DWIDTH 20 0
BBX 8 27 8 -4
BITMAP
60
E0
E0
E0
E0
F0
70
70
70
78
38
38
38
3C
1C
1C
1C
1E
0E
0E
0E
0F
07
07
07
07
06
ENDCHAR
STARTCHAR bracketright
ENCODING 93
SWIDTH 600 0
DWIDTH 20 0
BBX 12 26 2 -5
BITMAP
03F0
07F0
07F0
0070
00F0
00E0
00E0
00E0
00E0
01E0
01C0
01C0
01C0
03C0
0380
0380
0380
0380
0780
0700
0700
0700
0700
7F00
FE00
FE00
ENDCHAR
STARTCHAR asciicircum
ENCODING 94
SWIDTH 600 0
DWIDTH 20 0
BBX 15 11 5 11
BITMAP
0040
00C0
01C0
03E0
07F0
0F70
1E78
3C38
783C
F01E
E01C
ENDCHAR
STARTCHAR underscore
ENCODING 95
SWIDTH 600 0
DWIDTH 20 0
BBX 20 3 0 -7
BITMAP
FFFFF0
FFFFF0
FFFFF0
ENDCHAR
STARTCHAR grave
ENCODING 96
SWIDTH 600 0
DWIDTH 20 0
BBX 7 5 7 16
BITMAP
F0
78
1C
0E
06
ENDCHAR
STARTCHAR a
ENCODING 97
SWIDTH 600 0
DWIDTH 20 0
BBX 16 15 3 0
BITMAP
01F0
0FFC
1FFE
1E0E
000E
000E
07FE
1FFE
3FFC
781C
F01C
E07C
F7FF
FFDF
7F9E
ENDCHAR
STARTCHAR b
ENCODING 98
SWIDTH 600 0
DWIDTH 20 0
BBX 19 21 1 0
BITMAP
0FC000
1FC000
1F8000
038000
078000
070000
071F00
077FC0
07FFC0
0FC1E0
0F00E0
0E00E0
0E00E0
1E00E0
1E01E0
1E01E0
1C03C0
3E0780
7FFF00
FBFE00
F9F800
ENDCHAR
STARTCHAR c
ENCODING 99
SWIDTH 600 0
DWIDTH 20 0
BBX 18 15 3 0
BITMAP
01FCC0
07FFC0
1FFFC0
3E07C0
780380
700380
F00300
E00000
E00000
E00000
F00180
F80F80
7FFF00
3FFE00
0FF800
ENDCHAR
STARTCHAR d
ENCODING 100
SWIDTH 600 0
DWIDTH 20 0
BBX 19 21 3 0
BITMAP
0007E0
000FE0
000FC0
0001C0
0003C0
000380
03E380
0FFB80
1FFB80
3E1F80
780F00
700F00
E00700
E00F00
E00E00
E00E00
F01E00
F87C00
7FFF80
3FFF80
0F9F00
ENDCHAR
STARTCHAR e
ENCODING 101
SWIDTH 600 0
DWIDTH 20 0
BBX 17 15 3 0
BITMAP
03F000
0FFC00
1FFE00
3C0F00
780700
F00780
FFFF80
FFFF80
FFFF00
E00000
E00000
F81F00
7FFF00
3FFE00
0FF000
ENDCHAR
STARTCHAR f
ENCODING 102
SWIDTH 600 0
DWIDTH 20 0
BBX 20 21 4 0
BITMAP
001FF0
007FF0
00FFE0
00E000
01C000
01C000
0FFF00
1FFF00
1FFE00
03C000
038000
038000
038000
078000
070000
070000
070000
070000
7FFC00
FFFC00
FFF800
ENDCHAR
STARTCHAR g
ENCODING 103
SWIDTH 600 0
DWIDTH 20 0
BBX 19 22 3 -7
BITMAP
07E1E0
1FFBE0
3FFFC0
7C1F80
700F00
F00F00
E00F00
E00F00
E00E00
E01E00
E01E00
F87E00
7FFE00
3FDC00
0F9C00
001C00
003C00
003800
00F800
7FF000
FFE000
FF8000
ENDCHAR
STARTCHAR h
ENCODING 104
SWIDTH 600 0
DWIDTH 20 0
BBX 19 21 1 0
BITMAP
0FC000
1FC000
1F8000
038000
078000
070000
071E00
077F80
07FFC0
0F83C0
0F01C0
0E01C0
0E01C0
1E03C0
1C0380
1C0380
1C0380
1C0380
7F0FE0
FF1FE0
FE1FC0
ENDCHAR
STARTCHAR i
ENCODING 105
SWIDTH 600 0
DWIDTH 20 0
BBX 16 21 2 0
BITMAP
0078
0078
00F8
00F0
0000
0000
07F0
0FF0
0FF0
00F0
00E0
00E0
00E0
01E0
01C0
01C0
01C0
01C0
7FFF
FFFF
FFFE
ENDCHAR
STARTCHAR j
ENCODING 106
SWIDTH 600 0
DWIDTH 20 0
BBX 16 28 1 -7
BITMAP
000F
001F
001E
001E
0000
0000
07FF
0FFF
0FFF
000F
000E
000E
000E
001E
001C
001C
001C
001C
003C
0038
0038
0038
0078
0070
00F0
7FE0
FFC0
FF00
ENDCHAR
STARTCHAR k
ENCODING 107
SWIDTH 600 0
DWIDTH 20 0
BBX 18 21 2 0
BITMAP
0FC000
1FC000
1F8000
038000
078000
070000
071FC0
073FC0
071F80
0F3C00
0E7800
0FF000
0FC000
1FC000
1FE000
1CF000
1C7800
1C3C00
FC3F80
FC7F80
F87F00
ENDCHAR
STARTCHAR l
ENCODING 108
SWIDTH 600 0
DWIDTH 20 0
BBX 16 21 2 0
BITMAP
03FC
07FC
07F8
0038
0078
0070
0070
0070
0070
00F0
00E0
00E0
00E0
01E0
01C0
01C0
01C0
01C0
7FFF
FFFF
FFFE
ENDCHAR
STARTCHAR m
ENCODING 109
SWIDTH 600 0
DWIDTH 20 0
BBX 22 15 0 0
BITMAP
1E38E0
3EFFF8
3FFFFC
0F9F3C
0F1E38
0E1C38
0E1C38
1E3C78
1C3870
1C3870
1C3870
1C3870
7E7CF8
FE7CF8
FC78F0
ENDCHAR
STARTCHAR n
ENCODING 110
SWIDTH 600 0
DWIDTH 20 0
BBX 19 15 1 0
BITMAP
1E3E00
3E7F80
3FFFC0
0F83C0
0F01C0
0E01C0
0E01C0
1E03C0
1C0380
1C0380
1C0380
1C0380
7F0FE0
FF1FE0
FE1FC0
ENDCHAR
STARTCHAR o
ENCODING 111
SWIDTH 600 0
DWIDTH 20 0
BBX 16 15 3 0
BITMAP
01F0
0FFC
1FFE
3C0F
3807
7007
7003
F007
6007
700E
700E
783C
3FFC
1FF0
07C0
ENDCHAR
STARTCHAR p
ENCODING 112
SWIDTH 600 0
DWIDTH 20 0
BBX 21 22 -1 -7
BITMAP
07C780
0FDFE0
0FFFF0
01F878
03E038
03C038
038038
078038
078078
078078
0780F0
07E1E0
0FFFC0
0EFF80
0E3E00
0E0000
0E0000
1E0000
1C0000
7FC000
FFC000
FF8000
ENDCHAR
STARTCHAR q
ENCODING 113
SWIDTH 600 0
DWIDTH 20 0
BBX 20 22 3 -7
BITMAP
03E3F0
0FFBF0
1FFFE0
3C1F00
780700
F00700
E00700
E00F00
E00E00
E00E00
E01E00
F87E00
7FFE00
3FDC00
0F9C00
001C00
001C00
003C00
003800
01FF00
03FF00
03FE00
ENDCHAR
STARTCHAR r
ENCODING 114
SWIDTH 600 0
DWIDTH 20 0
BBX 19 15 2 0
BITMAP
0FC7C0
1FDFE0
1FBFE0
03F0C0
03E000
03C000
038000
078000
070000
070000
070000
070000
7FFC00
FFFC00
FFF800
ENDCHAR
STARTCHAR s
ENCODING 115
SWIDTH 600 0
DWIDTH 20 0
BBX 17 15 3 0
BITMAP
01F980
07FF80
0FFF00
1E0F00
1C0600
1E0000
1FF000
0FFC00
01FE00
301E00
700E00
781E00
FFFC00
FFF800
CFE000
ENDCHAR
STARTCHAR t
ENCODING 116
SWIDTH 600 0
DWIDTH 20 0
BBX 15 20 4 0
BITMAP
0380
0780
0700
0F00
0E00
7FFC
FFFC
FFF8
1E00
1C00
1C00
1C00
3C00
3800
3800
380C
3C3E
3FFC
1FF8
0FC0
ENDCHAR
STARTCHAR u
ENCODING 117
SWIDTH 600 0
DWIDTH 20 0
BBX 18 15 3 0
BITMAP
7E1FC0
FE3FC0
FC3F80
3C0380
380700
380700
380700
780F00
700E00
700E00
701E00
787E00
7FFF80
7FEF80
3F8F00
ENDCHAR
STARTCHAR v
ENCODING 118
SWIDTH 600 0
DWIDTH 20 0
BBX 19 15 3 0
BITMAP
7F0FE0
FF1FE0
FE1FC0
380700
380E00
1C1E00
1C1C00
1C3800
1C7800
0E7000
0EE000
0FE000
0FC000
078000
070000
ENDCHAR
STARTCHAR w
ENCODING 119
SWIDTH 600 0
DWIDTH 20 0
BBX 20 15 2 0
BITMAP
7F03F0
FF07F0
FE07E0
3861C0
38E380
38E380
39F300
3BF700
3BF600
3F7600
3E7E00
3E7C00
3C3C00
3C3800
383800
ENDCHAR
STARTCHAR x
ENCODING 120
SWIDTH 600 0
DWIDTH 20 0
BBX 20 15 1 0
BITMAP
1FC3F0
3FC7F0
3F87E0
070780
038E00
01DC00
00F800
00F000
01F800
039C00
0F0E00
1E0700
7F1FC0
FF3FC0
FE3F80
ENDCHAR
STARTCHAR y
ENCODING 121
SWIDTH 600 0
DWIDTH 20 0
BBX 23 22 -1 -7
BITMAP
07E0FE
0FE1FE
0FC1FC
038078
0380F0
0381E0
01C1C0
01C380
01C780
01E700
00EE00
00FE00
00FC00
00F800
007000
00F000
00E000
01C000
038000
7FF000
FFF000
FFE000
ENDCHAR
STARTCHAR z
ENCODING 122
SWIDTH 600 0
DWIDTH 20 0
BBX 17 15 3 0
BITMAP
1FFF80
3FFF80
3FFF00
781E00
703C00
70F800
01F000
03C000
078000
0F0700
3E0F00
7C0E00
FFFE00
FFFC00
FFFC00
ENDCHAR
STARTCHAR braceleft
ENCODING 123
SWIDTH 600 0
DWIDTH 20 0
BBX 11 26 7 -5
BITMAP
00E0
03E0
07C0
0700
0F00
0E00
0E00
0E00
0E00
1E00
1C00
3C00
7800
F800
F800
3800
3800
3800
7800
7000
7000
7000
7000
7C00
7C00
3800
ENDCHAR
STARTCHAR bar
ENCODING 124
SWIDTH 600 0
DWIDTH 20 0
BBX 8 26 7 -5
BITMAP
03
07
07
07
0F
0E
0E
0E
0E
1E
1C
1C
1C
3C
38
38
38
38
78
70
70
70
70
F0
E0
C0
ENDCHAR
STARTCHAR braceright
ENCODING 125
SWIDTH 600 0
DWIDTH 20 0
BBX 11 26 4 -5
BITMAP
0300
07C0
07C0
01C0
01E0
01C0
01C0
01C0
01C0
03C0
0380
0380
03E0
01E0
03C0
0780
0700
0700
0F00
0E00
0E00
0E00
1E00
7C00
F800
F000
ENDCHAR
STARTCHAR asciitilde
ENCODING 126
SWIDTH 600 0
DWIDTH 20 0
BBX 16 7 4 6
BITMAP
0C00
3F03
7F87
FBDF
E1FE
C0FC
0030
ENDCHAR
STARTCHAR space
ENCODING 160
SWIDTH 600 0
DWIDTH 20 0
BBX 1 1 0 0
BITMAP
00
ENDCHAR
STARTCHAR exclamdown
ENCODING 161
SWIDTH 600 0
DWIDTH 20 0
BBX 9 21 6 -7
BITMAP
0700
0F80
0F80
0700
0000
0000
0C00
1C00
1C00
1C00
3C00
3C00
3C00
7C00
7C00
7800
F800
F800
F800
F000
2000
ENDCHAR
STARTCHAR cent
ENCODING 162
SWIDTH 600 0
DWIDTH 20 0
BBX 14 23 5 -1
BITMAP
00C0
01C0
01C0
01C0
01C0
03E0
0FFC
1FFC
3C3C
781C
7018
E000
E000
E000
E030
F0F0
7FF0
3FE0
1F80
1E00
1C00
1C00
1800
ENDCHAR
STARTCHAR sterling
ENCODING 163
SWIDTH 600 0
DWIDTH 20 0
BBX 16 20 2 0
BITMAP
007C
00FE
01FF
03C7
0786
0700
0700
0700
0700
3FF0
7FF0
7FE0
0700
0700
0E00
0E00
1C07
7FFF
FFFF
FFFC
ENDCHAR
STARTCHAR currency
ENCODING 164
SWIDTH 600 0
DWIDTH 20 0
BBX 16 15 4 2
BITMAP
1803
3DE7
3FFF
1FFE
1E3C
1C1C
3C1C
381C
381C
3838
3C78
7FF8
FFFC
E7BC
C018
ENDCHAR
STARTCHAR yen
ENCODING 165
SWIDTH 600 0
DWIDTH 20 0
BBX 19 20 4 0
BITMAP
7E0FE0
FE1FE0
FC1FC0
3C0F00
1C1E00
1E3C00
0E3800
0E7800
0FF000
07E000
3FF800
3FF800
078000
7FF000
7FF000
070000
070000
3FE000
7FE000
7FC000
ENDCHAR
STARTCHAR brokenbar
ENCODING 166
SWIDTH 600 0
DWIDTH 20 0
BBX 8 26 7 -5
BITMAP
03
07
07
07
0F
0E
0E
0E
0E
1E
1C
18
00
00
18
38
38
38
78
70
70
70
70
F0
E0
C0
ENDCHAR
STARTCHAR section
ENCODING 167
SWIDTH 600 0
DWIDTH 20 0
BBX 18 22 3 -2
BITMAP
007FC0
01FFC0
038180
030180
030180
0F8000
1FC000
38E000
307000
383800
1C1C00
0E0E00
070700
038300
01C700
00FE00
007C00
603000
603000
E07000
FFE000
FF8000
ENDCHAR
STARTCHAR dieresis
ENCODING 168
SWIDTH 600 0
DWIDTH 20 0
BBX 11 3 9 17
BITMAP
70E0
F1E0
E1C0
ENDCHAR
STARTCHAR copyright
ENCODING 169
SWIDTH 600 0
DWIDTH 20 0
BBX 22 20 1 0
BITMAP
007F00
01FFC0
07FFE0
0F81F0
1E0078
3CF9B8
39FFBC
73FF9C
77839C
E7031C
EE001C
EE001C
EE033C
EE0738
EF9E78
F7FCF0
79F3E0
3E0F80
1FFF00
07F800
ENDCHAR
STARTCHAR ordfeminine
ENCODING 170
SWIDTH 600 0
DWIDTH 20 0
BBX 11 14 6 6
BITMAP
03C0
0FE0
0C60
00E0
0FC0
1FC0
38C0
30C0
3180
3FE0
1FE0
0000
FFE0
FFE0
ENDCHAR
STARTCHAR guillemotleft
ENCODING 171
SWIDTH 600 0
DWIDTH 20 0
BBX 19 14 3 1
BITMAP
006060
00E0E0
01C1C0
038380
0F0F00
1E1E00
3C3C00
787800
F0F000
787800
3C3C00
1E1E00
0F0F00
070700
ENDCHAR
STARTCHAR logicalnot
ENCODING 172
SWIDTH 600 0
DWIDTH 20 0
BBX 17 8 4 5
BITMAP
7FFF80
FFFF80
FFFF00
000700
000700
000F00
000E00
000C00
ENDCHAR
STARTCHAR hyphen
ENCODING 173
SWIDTH 600 0
DWIDTH 20 0
BBX 14 3 4 8
BITMAP
7FFC
FFFC
FFF8
ENDCHAR
STARTCHAR registered
ENCODING 174
SWIDTH 600 0
DWIDTH 20 0
BBX 22 20 1 0
BITMAP
003F00
00FFC0
03FFE0
07E1F0
0F8878
1EFE38
3DFF3C
78EF1C
71E71C
F1C79C
E1CF1C
E1FE1C
E3FC3C
E3FC38
F39E70
7F8FF0
7F8FE0
3FFF80
0FFE00
03F800
ENDCHAR
STARTCHAR macron
ENCODING 175
SWIDTH 600 0
DWIDTH 20 0
BBX 11 2 6 17
BITMAP
FFE0
FFE0
ENDCHAR
STARTCHAR degree
ENCODING 176
SWIDTH 600 0
DWIDTH 20 0
BBX 10 9 7 11
BITMAP
1F00
6180
40C0
C040
8040
8040
C0C0
6300
3E00
ENDCHAR
STARTCHAR plusminus
ENCODING 177
SWIDTH 600 0
DWIDTH 20 0
BBX 18 18 2 0
BITMAP
001800
007800
007000
007000
007000
007000
1FFFC0
3FFFC0
3FFF80
00E000
01E000
01C000
01C000
01C000
018000
7FFF00
FFFF00
FFFE00
ENDCHAR
STARTCHAR twosuperior
ENCODING 178
SWIDTH 600 0
DWIDTH 20 0
BBX 11 14 7 7
BITMAP
0780
1FC0
38E0
3060
00E0
01C0
0380
0700
0E00
1C00
3000
E180
FF80
FF80
ENDCHAR
STARTCHAR threesuperior
ENCODING 179
SWIDTH 600 0
DWIDTH 20 0
BBX 10 14 8 7
BITMAP
0F80
3FC0
38C0
00C0
01C0
0F80
0F80
0180
0080
01C0
C180
E700
7E00
3C00
ENDCHAR
STARTCHAR acute
ENCODING 180
SWIDTH 600 0
DWIDTH 20 0
BBX 9 6 10 15
BITMAP
0780
0F00
1E00
3800
7000
E000
ENDCHAR
STARTCHAR mu
ENCODING 181
SWIDTH 600 0
DWIDTH 20 0
BBX 18 22 2 -7
BITMAP
3E0FC0
7E1FC0
7E1FC0
1E03C0
1C0380
1C0380
1C0380
3C0780
380700
380700
380700
381F00
7FFF80
7FFF80
7FEF00
720000
700000
F00000
E00000
E00000
E00000
C00000
ENDCHAR
STARTCHAR paragraph
ENCODING 182
SWIDTH 600 0
DWIDTH 20 0
BBX 18 23 5 -2
BITMAP
03FFC0
0FFF80
1EE600
38CC00
78CC00
70CC00
71CC00
719800
719800
799800
3F9800
1F9800
033000
033000
033000
033000
073000
066000
066000
066000
0E6000
7E7800
FCF000
ENDCHAR
STARTCHAR periodcentered
ENCODING 183
SWIDTH 600 0
DWIDTH 20 0
BBX 5 4 9 8
BITMAP
78
F8
F8
F0
ENDCHAR
STARTCHAR cedilla
ENCODING 184
SWIDTH 600 0
DWIDTH 20 0
BBX 7 6 5 -6
BITMAP
0E
0C
1C
CE
FC
78
ENDCHAR
STARTCHAR onesuperior
ENCODING 185
SWIDTH 600 0
DWIDTH 20 0
BBX 9 13 7 7
BITMAP
0180
0F80
3F00
3700
0600
0600
0600
0600
0E00
0C00
0C00
7F80
FF00
ENDCHAR
STARTCHAR ordmasculine
ENCODING 186
SWIDTH 600 0
DWIDTH 20 0
BBX 12 14 6 6
BITMAP
03C0
0FE0
1C70
1830
3830
3030
3030
3060
38E0
1FC0
0F00
0000
FFC0
FFC0
ENDCHAR
STARTCHAR guillemotright
ENCODING 187
SWIDTH 600 0
DWIDTH 20 0
BBX 18 14 2 1
BITMAP
183000
183800
1C1800
0E1C00
0E0E00
070F00
078780
03C380
03C3C0
078F80
1F1E00
3C3C00
F8F000
E0E000
ENDCHAR
STARTCHAR onequarter
ENCODING 188
SWIDTH 600 0
DWIDTH 20 0
BBX 20 20 2 0
BITMAP
060000
7E0000
760010
0C0030
0C0060
0C00C0
0C0180
0C0300
180660
180CE0
FF19E0
FF3360
0066E0
00CCC0
0198C0
033FF0
063FE0
0C00C0
0003E0
0007C0
ENDCHAR
STARTCHAR onehalf
ENCODING 189
SWIDTH 600 0
DWIDTH 20 0
BBX 20 20 2 0
BITMAP
060000
7E0000
760060
0E00C0
0C0180
0C0300
0C0600
0C0C00
1C19E0
1833F0
FF6E30
FECC30
018070
0301E0
060780
0C0E00
183800
0060C0
007FC0
007F80
ENDCHAR
STARTCHAR threequarters
ENCODING 190
SWIDTH 600 0
DWIDTH 20 0
BBX 20 21 2 0
BITMAP
0F8000
3FC000
38C000
00C020
01C060
0F00C0
0F8180
018300
00C600
C0CC60
E198E0
7F31E0
1C6360
00C660
018EC0
0318C0
063FF0
0C3FE0
1800C0
0007E0
0007E0
ENDCHAR
STARTCHAR questiondown
ENCODING 191
SWIDTH 600 0
DWIDTH 20 0
BBX 13 20 3 -6
BITMAP
00E0
01F0
01F0
00E0
0000
0000
0180
0380
0380
0F80
1F80
7E00
7800
E000
E018
E038
E078
FFF0
7FF0
3FC0
ENDCHAR
STARTCHAR Agrave
ENCODING 192
SWIDTH 600 0
DWIDTH 20 0
BBX 21 26 -1 0
BITMAP
01E000
00F000
003800
001C00
000E00
000000
00FF80
01FF80
01FF80
001F80
003B80
003B80
0073C0
00F1C0
00E1C0
01E1C0
01C1C0
0381C0
07FFE0
07FFE0
0FFFE0
0E00E0
1C00E0
7F83F8
FF87F8
FF07F0
ENDCHAR
STARTCHAR Aacute
ENCODING 193
SWIDTH 600 0
DWIDTH 20 0
BBX 21 26 -1 0
BITMAP
000078
0000F0
0001E0
000380
000700
000000
00FF80
01FF80
01FF80
001F80
003B80
003B80
0073C0
00F1C0
00E1C0
01E1C0
01C1C0
0381C0
07FFE0
07FFE0
0FFFE0
0E00E0
1C00E0
7F83F8
FF87F8
FF07F0
ENDCHAR
STARTCHAR Acircumflex
ENCODING 194
SWIDTH 600 0
DWIDTH 20 0
BBX 21 26 -1 0
BITMAP
000200
000F00
001F80
0071C0
0060C0
000000
00FF80
01FF80
01FF80
001F80
003B80
003B80
0073C0
00F1C0
00E1C0
01E1C0
01C1C0
0381C0
07FFE0
07FFE0
0FFFE0
0E00E0
1C00E0
7F83F8
FF87F8
FF07F0
ENDCHAR
STARTCHAR Atilde
ENCODING 195
SWIDTH 600 0
DWIDTH 20 0
BBX 21 24 -1 0
BITMAP
007C60
00FFE0
00C7C0
000000
00FF80
01FF80
01FF80
001F80
003F80
003B80
0073C0
00F1C0
00E1C0
01E1C0
01C1C0
0381C0
07FFE0
07FFE0
0FFFE0
0E00E0
1C00E0
7F83F8
FF87F8
FF07F0
ENDCHAR
STARTCHAR Adieresis
ENCODING 196
SWIDTH 600 0
DWIDTH 20 0
BBX 21 25 -1 0
BITMAP
003870
0078F0
0070E0
000000
000000
00FF80
01FF80
01FF80
001F80
003F80
003B80
0073C0
00F1C0
00E1C0
01E1C0
01C1C0
0381C0
07FFE0
07FFE0
0FFFE0
0E00E0
1C00E0
7F83F8
FF87F8
FF07F0
ENDCHAR
STARTCHAR Aring
ENCODING 197
SWIDTH 600 0
DWIDTH 20 0
BBX 21 26 -1 0
BITMAP
000F00
001880
001080
001180
000F00
000000
00FF80
01FF80
01FF80
001F80
003F80
003B80
0073C0
00F1C0
00E1C0
01E1C0
01C1C0
0381C0
07FFE0
07FFE0
0FFFE0
0E00E0
1C00E0
7F83F8
FF87F8
FF07F0
ENDCHAR
STARTCHAR AE
ENCODING 198
SWIDTH 600 0
DWIDTH 20 0
BBX 24 20 0 0
BITMAP
00FFFF
01FFFF
01FFFE
00670E
00EE0E
01CE0C
01CEC0
018EC0
039CC0
071FC0
071FC0
0E1CC0
0FFCC0
0FFC00
1C381C
3C3838
383838
7E7FF8
FEFFF0
FCFFF0
ENDCHAR
STARTCHAR Ccedilla
ENCODING 199
SWIDTH 600 0
DWIDTH 20 0
BBX 19 26 3 -6
BITMAP
00FC60
03FFE0
0FFFE0
1F87C0
1E01C0
3801C0
780180
700000
F00000
E00000
E00000
E00000
E00000
E00000
E00000
F00700
781F00
7FFE00
1FFC00
07F000
038000
030000
070000
338000
3F0000
1E0000
ENDCHAR
STARTCHAR Egrave
ENCODING 200
SWIDTH 600 0
DWIDTH 20 0
BBX 21 26 1 0
BITMAP
01E000
00F000
003800
001C00
000E00
000000
0FFFF8
1FFFF8
1FFFF0
078070
070070
070070
070E60
070E00
0FFE00
0FFC00
0FFC00
0E1C00
1E1C00
1C1CE0
1C01C0
1C01C0
1C01C0
7FFFC0
FFFF80
FFFF80
ENDCHAR
STARTCHAR Eacute
ENCODING 201
SWIDTH 600 0
DWIDTH 20 0
BBX 21 26 1 0
BITMAP
0001E0
0003C0
000780
000E00
001C00
000000
0FFFF8
1FFFF8
1FFFF0
078070
070070
070070
070E60
070E00
0FFE00
0FFC00
0FFC00
0E1C00
1E1C00
1C1CE0
1C01C0
1C01C0
1C01C0
7FFFC0
FFFF80
FFFF80
ENDCHAR
STARTCHAR Ecircumflex
ENCODING 202
SWIDTH 600 0
DWIDTH 20 0
BBX 21 26 1 0
BITMAP
000400
001E00
003F00
00F380
00C180
000000
0FFFF8
1FFFF8
1FFFF0
078070
070070
070070
070E60
070E00
0FFE00
0FFC00
0FFC00
0E1C00
1E1C00
1C1CE0
1C01C0
1C01C0
1C01C0
7FFFC0
FFFF80
FFFF80
ENDCHAR
STARTCHAR Edieresis
ENCODING 203
SWIDTH 600 0
DWIDTH 20 0
BBX 21 25 1 0
BITMAP
0070E0
00F1E0
00E1C0
000000
000000
0FFFF8
1FFFF8
1FFFF0
078070
070070
070070
070E60
070E00
0FFE00
0FFC00
0FFC00
0E1C00
1E1C00
1C1CE0
1C01C0
1C01C0
1C01C0
7FFFC0
FFFF80
FFFF80
ENDCHAR
STARTCHAR Igrave
ENCODING 204
SWIDTH 600 0
DWIDTH 20 0
BBX 17 26 3 0
BITMAP
0F0000
078000
01C000
00E000
007000
000000
0FFF80
1FFF80
1FFF80
00F000
00E000
00E000
00E000
00E000
01E000
01C000
01C000
01C000
03C000
038000
038000
038000
038000
7FFC00
FFFC00
FFF800
ENDCHAR
STARTCHAR Iacute
ENCODING 205
SWIDTH 600 0
DWIDTH 20 0
BBX 17 26 3 0
BITMAP
000780
000F00
001E00
003800
007000
000000
0FFF80
1FFF80
1FFF80
00F000
00E000
00E000
00E000
00E000
01E000
01C000
01C000
01C000
03C000
038000
038000
038000
038000
7FFC00
FFFC00
FFF800
ENDCHAR
STARTCHAR Icircumflex
ENCODING 206
SWIDTH 600 0
DWIDTH 20 0
BBX 17 26 3 0
BITMAP
000800
003C00
007E00
01C700
018300
000000
0FFF80
1FFF80
1FFF80
00F000
00E000
00E000
00E000
00E000
01E000
01C000
01C000
01C000
03C000
038000
038000
038000
038000
7FFC00
FFFC00
FFF800
ENDCHAR
STARTCHAR Idieresis
ENCODING 207
SWIDTH 600 0
DWIDTH 20 0
BBX 17 25 3 0
BITMAP
01C380
03C780
038700
000000
000000
0FFF80
1FFF80
1FFF80
00F000
00E000
00E000
00E000
00E000
01E000
01C000
01C000
01C000
03C000
038000
038000
038000
038000
7FFC00
FFFC00
FFF800
ENDCHAR
STARTCHAR Eth
ENCODING 208
SWIDTH 600 0
DWIDTH 20 0
BBX 19 20 1 0
BITMAP
0FFE00
1FFF80
1FFFC0
0783C0
0701E0
0700E0
0700E0
0700E0
3FE0E0
7FE0E0
7FC0E0
0E00E0
1E01E0
1C01C0
1C03C0
1C0780
1C0F00
7FFE00
FFFC00
FFF000
ENDCHAR
STARTCHAR Ntilde
ENCODING 209
SWIDTH 600 0
DWIDTH 20 0
BBX 22 24 1 0
BITMAP
00F8C0
01FFC0
018F80
000000
0F81FC
1FC3FC
1FC3F8
07C070
07E0E0
07E0E0
07F0E0
0770E0
0F71E0
0E79C0
0E39C0
0E39C0
1E3DC0
1C1D80
1C1F80
1C1F80
1C0F80
7F8F80
FF8700
FF0700
ENDCHAR
STARTCHAR Ograve
ENCODING 210
SWIDTH 600 0
DWIDTH 20 0
BBX 18 26 2 0
BITMAP
03C000
01E000
007000
003800
001C00
000000
00FC00
03FF00
0FFF80
0F0780
1E03C0
3C01C0
7801C0
7001C0
7001C0
E001C0
E001C0
E003C0
E00380
E00780
F00700
700F00
7C3E00
3FFC00
1FF000
07C000
ENDCHAR
STARTCHAR Oacute
ENCODING 211
SWIDTH 600 0
DWIDTH 20 0
BBX 18 26 2 0
BITMAP
000780
000F00
001E00
003800
007000
000000
00FC00
03FF00
0FFF80
0F0780
1E03C0
3C01C0
7801C0
7001C0
7001C0
E001C0
E001C0
E003C0
E00380
E00780
F00700
700F00
7C3E00
3FFC00
1FF000
07C000
ENDCHAR
STARTCHAR Ocircumflex
ENCODING 212
SWIDTH 600 0
DWIDTH 20 0
BBX 18 26 2 0
BITMAP
000800
003C00
007E00
01E700
018300
000000
00FC00
03FF00
0FFF80
0F0780
1E03C0
3C01C0
7801C0
7001C0
7001C0
E001C0
E001C0
E003C0
E00380
E00780
F00700
700F00
7C3E00
3FFC00
1FF000
07C000
ENDCHAR
STARTCHAR Otilde
ENCODING 213
SWIDTH 600 0
DWIDTH 20 0
BBX 18 24 2 0
BITMAP
01F180
03FF80
031F00
000000
00FC00
03FF00
0FFF80
0F0780
1E03C0
3C01C0
7801C0
7001C0
7001C0
E001C0
E001C0
E003C0
E00380
E00780
F00700
700F00
7C3E00
3FFC00
1FF000
07C000
ENDCHAR
STARTCHAR Odieresis
ENCODING 214
SWIDTH 600 0
DWIDTH 20 0
BBX 18 24 2 0
BITMAP
00E1C0
01E3C0
01C380
000000
00FC00
03FF00
0FFF80
0F0780
1E03C0
3C01C0
7801C0
7001C0
7001C0
E001C0
E001C0
E003C0
E00380
E00780
F00700
700F00
7C3E00
3FFC00
1FF000
07C000
ENDCHAR
STARTCHAR multiply
ENCODING 215
SWIDTH 600 0
DWIDTH 20 0
BBX 17 15 3 1
BITMAP
300300
780780
3C0F00
1E1E00
0F3C00
07F800
03F000
01E000
03E000
07F000
1F7800
3C3C00
781E00
F00F00
600600
ENDCHAR
STARTCHAR Oslash
ENCODING 216
SWIDTH 600 0
DWIDTH 20 0
BBX 23 23 1 -2
BITMAP
00000E
003F1E
00FFBC
01FFF8
03E1F0
0781F0
0F03F0
1E07F0
1C0F70
1C1E70
383C70
387870
38F070
39E0E0
3BC0E0
3F81C0
3F03C0
1E0F80
3FFF00
7FFC00
F3F800
E00000
C00000
ENDCHAR
STARTCHAR Ugrave
ENCODING 217
SWIDTH 600 0
DWIDTH 20 0
BBX 19 26 3 0
BITMAP
078000
03C000
00E000
007000
003800
000000
7F8FE0
FF9FE0
FF1FC0
3C0780
380700
380700
380700
380700
780F00
700E00
700E00
700E00
F01E00
E01C00
E01C00
703C00
78F800
7FF000
3FE000
0F8000
ENDCHAR
STARTCHAR Uacute
ENCODING 218
SWIDTH 600 0
DWIDTH 20 0
BBX 19 26 3 0
BITMAP
000F00
001E00
003C00
007000
00E000
000000
7F8FE0
FF9FE0
FF1FC0
3C0780
380700
380700
380700
380700
780F00
700E00
700E00
700E00
F01E00
E01C00
E01C00
703C00
78F800
7FF000
3FE000
0F8000
ENDCHAR
STARTCHAR Ucircumflex
ENCODING 219
SWIDTH 600 0
DWIDTH 20 0
BBX 19 26 3 0
BITMAP
001000
007800
00FC00
03CE00
030600
000000
7F8FE0
FF9FE0
FF1FC0
3C0780
380700
380700
380700
380700
780F00
700E00
700E00
700E00
F01E00
E01C00
E01C00
703C00
78F800
7FF000
3FE000
0F8000
ENDCHAR
STARTCHAR Udieresis
ENCODING 220
SWIDTH 600 0
DWIDTH 20 0
BBX 19 25 3 0
BITMAP
01C380
03C780
038700
000000
000000
7F8FE0
FF9FE0
FF1FC0
3C0780
380700
380700
380700
380700
780F00
700E00
700E00
700E00
F01E00
E01C00
E01C00
703C00
78F800
7FF000
3FE000
0F8000
ENDCHAR
STARTCHAR Yacute
ENCODING 221
SWIDTH 600 0
DWIDTH 20 0
BBX 19 26 4 0
BITMAP
000F00
001E00
003C00
007000
00E000
000000
7E0FE0
FE1FE0
FC1FC0
3C0F00
1C1E00
1E3C00
0E3800
0F7000
07F000
07E000
07C000
038000
078000
070000
070000
070000
070000
7FF000
FFF000
FFE000
ENDCHAR
STARTCHAR Thorn
ENCODING 222
SWIDTH 600 0
DWIDTH 20 0
BBX 19 20 1 0
BITMAP
0FF000
1FF000
1FE000
078000
07FE00
07FF80
07FFC0
0703C0
0F01E0
0E00E0
0E01E0
0E03C0
1E0F80
1FFF00
1FFE00
1FF800
1C0000
7F0000
FF0000
FE0000
ENDCHAR
STARTCHAR germandbls
ENCODING 223
SWIDTH 600 0
DWIDTH 20 0
BBX 17 21 1 0
BITMAP
007C00
00FF00
01FF00
03C780
078380
070380
070700
070700
073E00
0F7E00
0E7F00
0E0F00
0E0780
1E0380
1C0380
1C0380
1CC380
1DC780
7FFF00
FFFE00
FCFC00
ENDCHAR
STARTCHAR agrave
ENCODING 224
SWIDTH 600 0
DWIDTH 20 0
BBX 16 21 3 0
BITMAP
0F00
0780
01C0
00E0
0070
0000
01F0
0FFC
1FFE
1E0E
000E
000E
07FE
1FFE
3FFC
781C
F01C
E07C
F7FF
FFDF
7F9E
ENDCHAR
STARTCHAR aacute
ENCODING 225
SWIDTH 600 0
DWIDTH 20 0
BBX 16 21 3 0
BITMAP
001E
003C
0078
00E0
01C0
0000
01F0
0FFC
1FFE
1E0E
000E
000E
07FE
1FFE
3FFC
781C
F01C
E07C
F7FF
FFDF
7F9E
ENDCHAR
STARTCHAR acircumflex
ENCODING 226
SWIDTH 600 0
DWIDTH 20 0
BBX 16 22 3 0
BITMAP
0010
0078
00FC
038E
0306
0000
0000
01F0
0FFC
1FFE
1E0E
000E
000E
07FE
1FFE
3FFC
781C
F01C
E07C
F7FF
FFDF
7F9E
ENDCHAR
STARTCHAR atilde
ENCODING 227
SWIDTH 600 0
DWIDTH 20 0
BBX 16 20 3 0
BITMAP
03E3
07FF
063E
0000
0000
01F0
0FFC
1FFE
1E0E
000E
000E
07FE
1FFE
3FFC
781C
F01C
E07C
F7FF
FFDF
7F9E
ENDCHAR
STARTCHAR adieresis
ENCODING 228
SWIDTH 600 0
DWIDTH 20 0
BBX 16 20 3 0
BITMAP
0387
078F
070E
0000
0000
01F0
0FFC
1FFE
1E0E
000E
000E
07FE
1FFE
3FFC
781C
F01C
E07C
F7FF
FFDF
7F9E
ENDCHAR
STARTCHAR aring
ENCODING 229
SWIDTH 600 0
DWIDTH 20 0
BBX 16 21 3 0
BITMAP
0078
00C4
0084
008C
0078
0000
01F0
0FFC
1FFE
1E0E
000E
000E
07FE
1FFE
3FFC
781C
F01C
E07C
F7FF
FFDF
7F9E
ENDCHAR
STARTCHAR ae
ENCODING 230
SWIDTH 600 0
DWIDTH 20 0
BBX 22 15 0 0
BITMAP
03E1E0
07F7F0
0FFFF8
0E3E38
003C3C
003C1C
1FFFFC
3FFFFC
7C7FFC
F07000
E07800
F0F8F8
7FFFF8
7F7FF0
1E6F80
ENDCHAR
STARTCHAR ccedilla
ENCODING 231
SWIDTH 600 0
DWIDTH 20 0
BBX 18 21 3 -6
BITMAP
01FCC0
0FFFC0
1FFFC0
3C07C0
780380
700380
F00300
E00000
E00000
E00000
F00380
780780
7FFF00
3FFE00
0FF000
01C000
018000
038000
19C000
1F8000
0F0000
ENDCHAR
STARTCHAR egrave
ENCODING 232
SWIDTH 600 0
DWIDTH 20 0
BBX 17 21 3 0
BITMAP
0F0000
078000
01C000
00E000
007000
000000
03F000
0FFC00
1FFE00
3C0F00
780700
F00780
FFFF80
FFFF80
FFFF00
E00000
E00000
F81F00
7FFF00
3FFE00
0FF000
ENDCHAR
STARTCHAR eacute
ENCODING 233
SWIDTH 600 0
DWIDTH 20 0
BBX 17 21 3 0
BITMAP
003C00
007800
00F000
01C000
038000
000000
03F000
0FFC00
1FFE00
3C0F00
780700
F00780
FFFF80
FFFF80
FFFF00
E00000
E00000
F81F00
7FFF00
3FFE00
0FF000
ENDCHAR
STARTCHAR ecircumflex
ENCODING 234
SWIDTH 600 0
DWIDTH 20 0
BBX 17 22 3 0
BITMAP
004000
01E000
03F000
0F3800
0C1800
000000
000000
03F000
0FFC00
1FFE00
3C0F00
780700
F00780
FFFF80
FFFF80
FFFF00
E00000
E00000
F81F00
7FFF00
3FFE00
0FF000
ENDCHAR
STARTCHAR edieresis
ENCODING 235
SWIDTH 600 0
DWIDTH 20 0
BBX 17 20 3 0
BITMAP
070E00
0F1E00
0E1C00
000000
000000
03F000
0FFC00
1FFE00
3C0F00
780700
F00780
FFFF80
FFFF80
FFFF00
E00000
E00000
F81F00
7FFF00
3FFE00
0FF000
ENDCHAR
STARTCHAR igrave
ENCODING 236
SWIDTH 600 0
DWIDTH 20 0
BBX 16 21 2 0
BITMAP
0F00
0780
01C0
00E0
0070
0000
07F0
0FF0
0FF0
00F0
00E0
00E0
00E0
01E0
01C0
01C0
01C0
01C0
7FFF
FFFF
FFFE
ENDCHAR
STARTCHAR iacute
ENCODING 237
SWIDTH 600 0
DWIDTH 20 0
BBX 16 21 2 0
BITMAP
001E
003C
0078
00E0
01C0
0000
07F0
0FF0
0FF0
00F0
00E0
00E0
00E0
01E0
01C0
01C0
01C0
01C0
7FFF
FFFF
FFFE
ENDCHAR
STARTCHAR icircumflex
ENCODING 238
SWIDTH 600 0
DWIDTH 20 0
BBX 16 21 2 0
BITMAP
0020
00F0
01F8
071C
060C
0000
07F0
0FF0
0FF0
00F0
00E0
00E0
00E0
01E0
01C0
01C0
01C0
01C0
7FFF
FFFF
FFFE
ENDCHAR
STARTCHAR idieresis
ENCODING 239
SWIDTH 600 0
DWIDTH 20 0
BBX 16 20 2 0
BITMAP
0387
078F
070E
0000
0000
07F0
0FF0
0FF0
00F0
00E0
00E0
00E0
01E0
01C0
01C0
01C0
01C0
7FFF
FFFF
FFFE
ENDCHAR
STARTCHAR eth
ENCODING 240
SWIDTH 600 0
DWIDTH 20 0
BBX 17 22 4 0
BITMAP
030000
0FC380
1FEF80
01FF00
00FC00
07F800
1FFC00
3E1C00
381E00
03EE00
0FFE00
3FFF00
7C3F00
701F00
E00F00
E00E00
E00E00
E01E00
F07C00
7FF800
3FE000
0F8000
ENDCHAR
STARTCHAR ntilde
ENCODING 241
SWIDTH 600 0
DWIDTH 20 0
BBX 18 20 1 0
BITMAP
01F180
03FF80
031F00
000000
000000
1E3E00
3EFF80
3FFFC0
0F83C0
0F01C0
0E01C0
0E01C0
1E03C0
1C0380
1C0380
1C0380
1C0380
7F0FC0
FF1FC0
FE1F80
ENDCHAR
STARTCHAR ograve
ENCODING 242
SWIDTH 600 0
DWIDTH 20 0
BBX 15 21 4 0
BITMAP
1E00
0F00
0380
01C0
00E0
0000
03E0
1FF8
3FFC
781E
700E
E00E
E006
E00E
C00E
E01C
E01C
F078
7FF8
3FE0
0F80
ENDCHAR
STARTCHAR oacute
ENCODING 243
SWIDTH 600 0
DWIDTH 20 0
BBX 15 21 4 0
BITMAP
003C
0078
00F0
01C0
0380
0000
03E0
1FF8
3FFC
781E
700E
E00E
E006
E00E
C00E
E01C
E01C
F078
7FF8
3FE0
0F80
ENDCHAR
STARTCHAR ocircumflex
ENCODING 244
SWIDTH 600 0
DWIDTH 20 0
BBX 15 22 4 0
BITMAP
0040
01E0
07F0
0E38
0C18
0000
0000
03E0
1FF8
3FFC
781E
700E
E00E
E006
E00E
C00E
E01C
E01C
F078
7FF8
3FE0
0F80
ENDCHAR
STARTCHAR otilde
ENCODING 245
SWIDTH 600 0
DWIDTH 20 0
BBX 15 20 4 0
BITMAP
0F8C
1FFC
18F8
0000
0000
03E0
1FF8
3FFC
781E
700E
E00E
E006
E00E
C00E
E01C
E01C
F078
7FF8
3FE0
0F80
ENDCHAR
STARTCHAR odieresis
ENCODING 246
SWIDTH 600 0
DWIDTH 20 0
BBX 15 20 4 0
BITMAP
0E1C
1E3C
1C38
0000
0000
03E0
1FF8
3FFC
781E
700E
E00E
E006
E00E
C00E
E01C
E01C
F078
7FF8
3FE0
0F80
ENDCHAR
STARTCHAR divide
ENCODING 247
SWIDTH 600 0
DWIDTH 20 0
BBX 14 15 5 2
BITMAP
01C0
03C0
03C0
0380
0000
0000
FFFC
FFFC
FFFC
0000
0000
0700
0F00
0F00
0E00
ENDCHAR
STARTCHAR oslash
ENCODING 248
SWIDTH 600 0
DWIDTH 20 0
BBX 21 18 1 -2
BITMAP
000018
007C38
01FF78
07FFF0
0FC3E0
1E07C0
1C1FE0
383EE0
787860
78F0E0
33E0E0
37C1C0
3E07C0
3FFF80
7FFF00
FBF800
E00000
C00000
ENDCHAR
STARTCHAR ugrave
ENCODING 249
SWIDTH 600 0
DWIDTH 20 0
BBX 17 21 3 0
BITMAP
0F0000
078000
01C000
00E000
007000
000000
7C1F80
FC3F80
FC3F80
3C0780
380700
380700
380700
780F00
700E00
700E00
701E00
703E00
7FFF80
7FEF80
3F8F00
ENDCHAR
STARTCHAR uacute
ENCODING 250
SWIDTH 600 0
DWIDTH 20 0
BBX 17 21 3 0
BITMAP
000F00
001E00
003C00
007000
00E000
000000
7C1F80
FC3F80
FC3F80
3C0780
380700
380700
380700
780F00
700E00
700E00
701E00
703E00
7FFF80
7FEF80
3F8F00
ENDCHAR
STARTCHAR ucircumflex
ENCODING 251
SWIDTH 600 0
DWIDTH 20 0
BBX 17 22 3 0
BITMAP
002000
00F000
01F800
079C00
060C00
000000
000000
7C1F80
FC3F80
FC3F80
3C0780
380700
380700
380700
780F00
700E00
700E00
701E00
703E00
7FFF80
7FEF80
3F8F00
ENDCHAR
STARTCHAR udieresis
ENCODING 252
SWIDTH 600 0
DWIDTH 20 0
BBX 17 20 3 0
BITMAP
038700
078F00
070E00
000000
000000
7C1F80
FC3F80
FC3F80
3C0780
380700
380700
380700
780F00
700E00
700E00
701E00
703E00
7FFF80
7FEF80
3F8F00
ENDCHAR
STARTCHAR yacute
ENCODING 253
SWIDTH 600 0
DWIDTH 20 0
BBX 22 28 -1 -7
BITMAP
0000F0
0001E0
0003C0
000700
000E00
000000
07E0FC
0FE1FC
0FC1FC
038070
0380F0
0381E0
01C1C0
01C380
01C780
01E700
00EE00
00FE00
00FC00
00F800
007800
00F000
00E000
01C000
03C000
7FF000
FFF000
FFE000
ENDCHAR
STARTCHAR thorn
ENCODING 254
SWIDTH 600 0
DWIDTH 20 0
BBX 22 28 -1 -7
BITMAP
03E000
07E000
07E000
00E000
01E000
01C000
01CF80
01FFE0
01FFF0
03F878
03E038
03C03C
03801C
07801C
070038
078038
0780F0
07E1E0
0FFFC0
0EFF80
0E3E00
0E0000
0E0000
1E0000
1C0000
7FC000
FFC000
FF8000
ENDCHAR
STARTCHAR ydieresis
ENCODING 255
SWIDTH 600 0
DWIDTH 20 0
BBX 22 27 -1 -7
BITMAP
003870
0078F0
0070E0
000000
000000
07E0FC
0FE1FC
0FC1FC
038070
0380F0
0381E0
01C1C0
01C380
01C780
01E700
00EE00
00FE00
00FC00
00F800
007800
00F000
00E000
01C000
03C000
7FF000
FFF000
FFE000
ENDCHAR
STARTCHAR Amacron
ENCODING 256
SWIDTH 600 0
DWIDTH 20 0
BBX 21 23 -1 0
BITMAP
03FF80
03FF80
000000
00FF80
01FF80
01FF80
001F80
003B80
003B80
0073C0
00F1C0
00E1C0
01E1C0
01C1C0
0381C0
07FFE0
07FFE0
0FFFE0
0E00E0
1C00E0
7F83F8
FF87F8
FF07F0
ENDCHAR
STARTCHAR amacron
ENCODING 257
SWIDTH 600 0
DWIDTH 20 0
BBX 16 18 3 0
BITMAP
1FFC
1FFC
0000
01F0
0FFC
1FFE
1E0E
000E
000E
07FE
1FFE
3FFC
781C
F01C
E07C
F7FF
FFDF
7F9E
ENDCHAR
STARTCHAR Abreve
ENCODING 258
SWIDTH 600 0
DWIDTH 20 0
BBX 21 26 -1 0
BITMAP
0181C0
0181C0
01E380
00FF00
003C00
000000
00FF80
01FF80
01FF80
001F80
003B80
003B80
0073C0
00F1C0
00E1C0
01E1C0
01C1C0
0381C0
07FFE0
07FFE0
0FFFE0
0E00E0
1C00E0
7F83F8
FF87F8
FF07F0
ENDCHAR
STARTCHAR abreve
ENCODING 259
SWIDTH 600 0
DWIDTH 20 0
BBX 16 21 3 0
BITMAP
0C0E
0C0E
0F1C
07F8
01E0
0000
01F0
0FFC
1FFE
1E0E
000E
000E
07FE
1FFE
3FFC
781C
F01C
E07C
F7FF
FFDF
7F9E
ENDCHAR
STARTCHAR Aogonek
ENCODING 260
SWIDTH 600 0
DWIDTH 20 0
BBX 21 26 -1 -6
BITMAP
00FF80
01FF80
01FF80
001F80
003B80
003B80
0073C0
00F1C0
00E1C0
01E1C0
01C1C0
0381C0
07FFE0
07FFE0
0FFFE0
0E00E0
1C00E0
7F83F8
FFB7F8
FF77F0
00E000
01C000
01C000
01F800
01F800
00E000
ENDCHAR
STARTCHAR aogonek
ENCODING 261
SWIDTH 600 0
DWIDTH 20 0
BBX 16 21 3 -6
BITMAP
01F0
0FFC
1FFE
1E0E
000E
000E
07FE
1FFE
3FFC
781C
F01C
E07C
F7FF
FFDF
7FDE
0380
0700
0700
07E0
07E0
0380
ENDCHAR
STARTCHAR Cacute
ENCODING 262
SWIDTH 600 0
DWIDTH 20 0
BBX 19 27 3 0
BITMAP
000780
000F00
001E00
003800
007000
00E000
000000
00FC60
03FFE0
0FFFE0
1F83E0
1E01C0
3801C0
780180
700000
F00000
E00000
E00000
E00000
E00000
E00000
E00000
F00700
781F00
7FFE00
1FFC00
07F000
ENDCHAR
STARTCHAR cacute
ENCODING 263
SWIDTH 600 0
DWIDTH 20 0
BBX 18 22 3 0
BITMAP
000F00
001E00
003C00
007000
00E000
01C000
000000
01FCC0
07FFC0
1FFFC0
3E07C0
780380
700380
F00300
E00000
E00000
E00000
F00180
F80F80
7FFF00
3FFE00
0FF800
ENDCHAR
STARTCHAR Ccircumflex
ENCODING 264
SWIDTH 600 0
DWIDTH 20 0
BBX 19 26 3 0
BITMAP
001000
003800
00FC00
01CF00
038300
000000
00FC60
03FFE0
0FFFE0
1F83E0
1E01C0
3801C0
780180
700000
F00000
E00000
E00000
E00000
E00000
E00000
E00000
F00700
781F00
7FFE00
1FFC00
07F000
ENDCHAR
STARTCHAR ccircumflex
ENCODING 265
SWIDTH 600 0
DWIDTH 20 0
BBX 18 21 3 0
BITMAP
002000
007000
01F800
039E00
070600
000000
01FCC0
07FFC0
1FFFC0
3E07C0
780380
700380
F00300
E00000
E00000
E00000
F00180
F80F80
7FFF00
3FFE00
0FF800
ENDCHAR
STARTCHAR Cdotaccent
ENCODING 266
SWIDTH 600 0
DWIDTH 20 0
BBX 19 24 3 0
BITMAP
003800
007800
007000
000000
00FC60
03FFE0
0FFFE0
1F83E0
1E01C0
3801C0
780180
700000
F00000
E00000
E00000
E00000
E00000
E00000
E00000
F00700
781F00
7FFE00
1FFC00
07F000
ENDCHAR
STARTCHAR cdotaccent
ENCODING 267
SWIDTH 600 0
DWIDTH 20 0
BBX 18 19 3 0
BITMAP
003800
007800
007000
000000
01FCC0
07FFC0
1FFFC0
3E07C0
780380
700380
F00300
E00000
E00000
E00000
F00180
F80F80
7FFF00
3FFE00
0FF800
ENDCHAR
STARTCHAR Ccaron
ENCODING 268
SWIDTH 600 0
DWIDTH 20 0
BBX 19 26 3 0
BITMAP
018300
01CF00
00FC00
007800
002000
000000
00FC60
03FFE0
0FFFE0
1F83E0
1E01C0
3801C0
780180
700000
F00000
E00000
E00000
E00000
E00000
E00000
E00000
F00700
781F00
7FFE00
1FFC00
07F000
ENDCHAR
STARTCHAR ccaron
ENCODING 269
SWIDTH 600 0
DWIDTH 20 0
BBX 18 21 3 0
BITMAP
030600
039E00
01F800
00F000
004000
000000
01FCC0
07FFC0
1FFFC0
3E07C0
780380
700380
F00300
E00000
E00000
E00000
F00180
F80F80
7FFF00
3FFE00
0FF800
ENDCHAR
STARTCHAR Dcaron
ENCODING 270
SWIDTH 600 0
DWIDTH 20 0
BBX 19 26 1 0
BITMAP
030600
039E00
01F800
00F000
004000
000000
0FFE00
1FFF80
1FFFC0
0783E0
0701E0
0700E0
0700E0
0700E0
0F00E0
0E00E0
0E00E0
0E00E0
1E01C0
1C01C0
1C03C0
1C0780
1C0F00
7FFE00
FFFC00
FFF000
ENDCHAR
STARTCHAR dcaron
ENCODING 271
SWIDTH 600 0
DWIDTH 20 0
BBX 19 27 3 0
BITMAP
003060
0039E0
001F80
000F00
000400
000000
0007E0
000FE0
000FC0
0001C0
0003C0
000380
03E380
0FFB80
1FFB80
3E1F80
780F00
700F00
E00700
E00F00
E00E00
E00E00
F01E00
F87C00
7FFF80
3FFF80
0F9F00
ENDCHAR
STARTCHAR Dcroat
ENCODING 272
SWIDTH 600 0
DWIDTH 20 0
BBX 19 20 1 0
BITMAP
0FFE00
1FFF80
1FFFC0
0783C0
0701E0
0700E0
0700E0
0700E0
3FE0E0
7FE0E0
7FC0E0
0E00E0
1E01E0
1C01C0
1C03C0
1C0780
1C0F00
7FFE00
FFFC00
FFF000
ENDCHAR
STARTCHAR dcroat
ENCODING 273
SWIDTH 600 0
DWIDTH 20 0
BBX 23 21 3 0
BITMAP
0007E0
000FE0
000FC0
03FFFE
03FFFE
03FFFE
03E380
0FFB80
1FFB80
3E1F80
780F00
700F00
E00700
E00F00
E00E00
E00E00
F01E00
F87C00
7FFF80
3FFF80
0F9F00
ENDCHAR
STARTCHAR Emacron
ENCODING 274
SWIDTH 600 0
DWIDTH 20 0
BBX 21 23 1 0
BITMAP
03FF80
03FF80
000000
0FFFF8
1FFFF8
1FFFF0
078070
070070
070070
070E60
070E00
0FFE00
0FFC00
0FFC00
0E1C00
1E1C00
1C1CE0
1C01C0
1C01C0
1C01C0
7FFFC0
FFFF80
FFFF80
ENDCHAR
STARTCHAR emacron
ENCODING 275
SWIDTH 600 0
DWIDTH 20 0
BBX 17 18 3 0
BITMAP
1FFC00
1FFC00
000000
03F000
0FFC00
1FFE00
3C0F00
780700
F00780
FFFF80
FFFF80
FFFF00
E00000
E00000
F81F00
7FFF00
3FFE00
0FF000
ENDCHAR
STARTCHAR Ebreve
ENCODING 276
SWIDTH 600 0
DWIDTH 20 0
BBX 21 26 1 0
BITMAP
030380
030380
03C700
01FE00
007800
000000
0FFFF8
1FFFF8
1FFFF0
078070
070070
070070
070E60
070E00
0FFE00
0FFC00
0FFC00
0E1C00
1E1C00
1C1CE0
1C01C0
1C01C0
1C01C0
7FFFC0
FFFF80
FFFF80
ENDCHAR
STARTCHAR ebreve
ENCODING 277
SWIDTH 600 0
DWIDTH 20 0
BBX 17 21 3 0
BITMAP
0C0E00
0C0E00
0F1C00
07F800
01E000
000000
03F000
0FFC00
1FFE00
3C0F00
780700
F00780
FFFF80
FFFF80
FFFF00
E00000
E00000
F81F00
7FFF00
3FFE00
0FF000
ENDCHAR
STARTCHAR Edotaccent
ENCODING 278
SWIDTH 600 0
DWIDTH 20 0
BBX 21 24 1 0
BITMAP
001C00
003C00
003800
000000
0FFFF8
1FFFF8
1FFFF0
078070
070070
070070
070E60
070E00
0FFE00
0FFC00
0FFC00
0E1C00
1E1C00
1C1CE0
1C01C0
1C01C0
1C01C0
7FFFC0
FFFF80
FFFF80
ENDCHAR
STARTCHAR edotaccent
ENCODING 279
SWIDTH 600 0
DWIDTH 20 0
BBX 17 19 3 0
BITMAP
00E000
01E000
01C000
000000
03F000
0FFC00
1FFE00
3C0F00
780700
F00780
FFFF80
FFFF80
FFFF00
E00000
E00000
F81F00
7FFF00
3FFE00
0FF000
ENDCHAR
STARTCHAR Eogonek
ENCODING 280
SWIDTH 600 0
DWIDTH 20 0
BBX 21 26 1 -6
BITMAP
0FFFF8
1FFFF8
1FFFF0
078070
070070
070070
070E60
070E00
0FFE00
0FFC00
0FFC00
0E1C00
1E1C00
1C1CE0
1C01C0
1C01C0
1C01C0
7FFFC0
FFFF80
FFFF80
00E000
01C000
01C000
01F800
01F800
00E000
ENDCHAR
STARTCHAR eogonek
ENCODING 281
SWIDTH 600 0
DWIDTH 20 0
BBX 17 21 3 -6
BITMAP
03F000
0FFC00
1FFE00
3C0F00
780700
F00780
FFFF80
FFFF80
FFFF00
E00000
E00000
F81F00
7FFF00
3FFE00
0FF000
038000
070000
070000
07E000
07E000
038000
ENDCHAR
STARTCHAR Ecaron
ENCODING 282
SWIDTH 600 0
DWIDTH 20 0
BBX 21 26 1 0
BITMAP
018300
01CF00
00FC00
007800
002000
000000
0FFFF8
1FFFF8
1FFFF0
078070
070070
070070
070E60
070E00
0FFE00
0FFC00
0FFC00
0E1C00
1E1C00
1C1CE0
1C01C0
1C01C0
1C01C0
7FFFC0
FFFF80
FFFF80
ENDCHAR
STARTCHAR ecaron
ENCODING 283
SWIDTH 600 0
DWIDTH 20 0
BBX 17 21 3 0
BITMAP
060C00
073C00
03F000
01E000
008000
000000
03F000
0FFC00
1FFE00
3C0F00
780700
F00780
FFFF80
FFFF80
FFFF00
E00000
E00000
F81F00
7FFF00
3FFE00
0FF000
ENDCHAR
STARTCHAR Gcircumflex
ENCODING 284
SWIDTH 600 0
DWIDTH 20 0
BBX 19 26 3 0
BITMAP
002000
007000
01F800
039E00
070600
000000
00FC60
03FFE0
0FFFC0
1F03C0
3C01C0
7801C0
700180
F00000
E00000
E00000
E00000
E07FC0
E0FFC0
E0FF80
E00700
F00700
781F00
7FFF00
3FFE00
0FF000
ENDCHAR
STARTCHAR gcircumflex
ENCODING 285
SWIDTH 600 0
DWIDTH 20 0
BBX 19 28 3 -7
BITMAP
002000
007000
01F800
039E00
070600
000000
07E1E0
1FFBE0
3FFFC0
7C1F80
700F00
F00F00
E00F00
E00F00
E00E00
E01E00
E01E00
F87E00
7FFE00
3FDC00
0F9C00
001C00
003C00
003800
00F800
7FF000
FFE000
FF8000
ENDCHAR
STARTCHAR Gbreve
ENCODING 286
SWIDTH 600 0
DWIDTH 20 0
BBX 19 26 3 0
BITMAP
060700
060700
078E00
03FC00
00F000
000000
00FC60
03FFE0
0FFFC0
1F03C0
3C01C0
7801C0
700180
F00000
E00000
E00000
E00000
E07FC0
E0FFC0
E0FF80
E00700
F00700
781F00
7FFF00
3FFE00
0FF000
ENDCHAR
STARTCHAR gbreve
ENCODING 287
SWIDTH 600 0
DWIDTH 20 0
BBX 19 28 3 -7
BITMAP
060700
060700
078E00
03FC00
00F000
000000
07E1E0
1FFBE0
3FFFC0
7C1F80
700F00
F00F00
E00F00
E00F00
E00E00
E01E00
E01E00
F87E00
7FFE00
3FDC00
0F9C00
001C00
003C00
003800
00F800
7FF000
FFE000
FF8000
ENDCHAR
STARTCHAR Gdotaccent
ENCODING 288
SWIDTH 600 0
DWIDTH 20 0
BBX 19 24 3 0
BITMAP
003800
007800
007000
000000
00FC60
03FFE0
0FFFC0
1F03C0
3C01C0
7801C0
700180
F00000
E00000
E00000
E00000
E07FC0
E0FFC0
E0FF80
E00700
F00700
781F00
7FFF00
3FFE00
0FF000
ENDCHAR
STARTCHAR gdotaccent
ENCODING 289
SWIDTH 600 0
DWIDTH 20 0
BBX 19 26 3 -7
BITMAP
007000
00F000
00E000
000000
07E1E0
1FFBE0
3FFFC0
7C1F80
700F00
F00F00
E00F00
E00F00
E00E00
E01E00
E01E00
F87E00
7FFE00
3FDC00
0F9C00
001C00
003C00
003800
00F800
7FF000
FFE000
FF8000
ENDCHAR
STARTCHAR Gcommaaccent
ENCODING 290
SWIDTH 600 0
DWIDTH 20 0
BBX 19 29 3 -9
BITMAP
00FC60
03FFE0
0FFFC0
1F03C0
3C01C0
7801C0
700180
F00000
E00000
E00000
E00000
E07FC0
E0FFC0
E0FF80
E00700
F00700
781F00
7FFF00
3FFE00
0FF000
000000
00F000
01E000
01C000
03C000
038000
070000
0E0000
0C0000
ENDCHAR
STARTCHAR gcommaaccent
ENCODING 291
SWIDTH 600 0
DWIDTH 20 0
BBX 19 32 3 -7
BITMAP
1F0000
0F0000
078000
038000
01C000
01C000
00E000
007000
003000
000000
07E1E0
1FFBE0
3FFFC0
7C1F80
700F00
F00F00
E00F00
E00F00
E00E00
E01E00
E01E00
F87E00
7FFE00
3FDC00
0F9C00
001C00
003C00
003800
00F800
7FF000
FFE000
FF8000
ENDCHAR
STARTCHAR Hcircumflex
ENCODING 292
SWIDTH 600 0
DWIDTH 20 0
BBX 22 26 0 0
BITMAP
000800
001C00
007E00
00E780
01C180
000000
0FF1FC
1FF3FC
1FE3F8
0780F0
0700E0
0700E0
0700E0
0700E0
0FFFE0
0FFFC0
0FFFC0
0E01C0
1E03C0
1C0380
1C0380
1C0380
1C0380
7F1FE0
FF3FE0
FE3FC0
ENDCHAR
STARTCHAR hcircumflex
ENCODING 293
SWIDTH 600 0
DWIDTH 20 0
BBX 19 27 1 0
BITMAP
008000
01C000
07E000
0E7800
1C1800
000000
0FC000
1FC000
1F8000
038000
078000
070000
071E00
077F80
07FFC0
0F83C0
0F01C0
0E01C0
0E01C0
1E03C0
1C0380
1C0380
1C0380
1C0380
7F0FE0
FF1FE0
FE1FC0
ENDCHAR
STARTCHAR Hbar
ENCODING 294
SWIDTH 600 0
DWIDTH 20 0
BBX 22 20 0 0
BITMAP
0FF1FC
1FF3FC
1FE3F8
FFFFFC
FFFFFC
FFFFFC
0700E0
0700E0
0FFFE0
0FFFC0
0FFFC0
0E01C0
1E03C0
1C0380
1C0380
1C0380
1C0380
7F1FE0
FF3FE0
FE3FC0
ENDCHAR
STARTCHAR hbar
ENCODING 295
SWIDTH 600 0
DWIDTH 20 0
BBX 22 21 -2 0
BITMAP
01F800
03F800
03F000
FFFF80
FFFF80
FFFF80
00E3C0
00EFF0
00FFF8
01F078
01E038
01C038
01C038
03C078
038070
038070
038070
038070
0FE1FC
1FE3FC
1FC3F8
ENDCHAR
STARTCHAR Itilde
ENCODING 296
SWIDTH 600 0
DWIDTH 20 0
BBX 17 24 3 0
BITMAP
07C600
0FFE00
0C7C00
000000
0FFF80
1FFF80
1FFF00
00F000
00E000
00E000
00E000
00E000
01E000
01C000
01C000
01C000
03C000
038000
038000
038000
038000
7FFC00
FFFC00
FFF800
ENDCHAR
STARTCHAR itilde
ENCODING 297
SWIDTH 600 0
DWIDTH 20 0
BBX 16 19 2 0
BITMAP
0F8C
1FFC
18F8
0000
07F0
0FF0
0FF0
00F0
00E0
00E0
00E0
01E0
01C0
01C0
01C0
01C0
7FFF
FFFF
FFFE
ENDCHAR
STARTCHAR Imacron
ENCODING 298
SWIDTH 600 0
DWIDTH 20 0
BBX 17 23 3 0
BITMAP
0FFE00
0FFE00
000000
0FFF80
1FFF80
1FFF00
00F000
00E000
00E000
00E000
00E000
01E000
01C000
01C000
01C000
03C000
038000
038000
038000
038000
7FFC00
FFFC00
FFF800
ENDCHAR
STARTCHAR imacron
ENCODING 299
SWIDTH 600 0
DWIDTH 20 0
BBX 16 18 2 0
BITMAP
1FFC
1FFC
0000
07F0
0FF0
0FF0
00F0
00E0
00E0
00E0
01E0
01C0
01C0
01C0
01C0
7FFF
FFFF
FFFE
ENDCHAR
STARTCHAR Ibreve
ENCODING 300
SWIDTH 600 0
DWIDTH 20 0
BBX 17 26 3 0
BITMAP
0C0E00
0C0E00
0F1C00
07F800
01E000
000000
0FFF80
1FFF80
1FFF00
00F000
00E000
00E000
00E000
00E000
01E000
01C000
01C000
01C000
03C000
038000
038000
038000
038000
7FFC00
FFFC00
FFF800
ENDCHAR
STARTCHAR ibreve
ENCODING 301
SWIDTH 600 0
DWIDTH 20 0
BBX 16 21 2 0
BITMAP
181C
181C
1E38
0FF0
03C0
0000
07F0
0FF0
0FF0
00F0
00E0
00E0
00E0
01E0
01C0
01C0
01C0
01C0
7FFF
FFFF
FFFE
ENDCHAR
STARTCHAR Iogonek
ENCODING 302
SWIDTH 600 0
DWIDTH 20 0
BBX 17 26 3 -6
BITMAP
0FFF80
1FFF80
1FFF00
00F000
00E000
00E000
00E000
00E000
01E000
01C000
01C000
01C000
03C000
038000
038000
038000
038000
7FFC00
FFFC00
FFF800
070000
0E0000
0E0000
0FC000
0FC000
070000
ENDCHAR
STARTCHAR iogonek
ENCODING 303
SWIDTH 600 0
DWIDTH 20 0
BBX 16 27 2 -6
BITMAP
0078
0078
00F8
00F0
0000
0000
07F0
0FF0
0FF0
00F0
00E0
00E0
00E0
01E0
01C0
01C0
01C0
01C0
7FFF
FFFF
FFFE
0380
0700
0700
07E0
07E0
0380
ENDCHAR
STARTCHAR Idotaccent
ENCODING 304
SWIDTH 600 0
DWIDTH 20 0
BBX 17 24 3 0
BITMAP
007000
00F000
00E000
000000
0FFF80
1FFF80
1FFF00
00F000
00E000
00E000
00E000
00E000
01E000
01C000
01C000
01C000
03C000
038000
038000
038000
038000
7FFC00
FFFC00
FFF800
ENDCHAR
STARTCHAR dotlessi
ENCODING 305
SWIDTH 600 0
DWIDTH 20 0
BBX 16 15 2 0
BITMAP
07F0
0FF0
0FF0
00F0
00E0
00E0
00E0
01E0
01C0
01C0
01C0
01C0
7FFF
FFFF
FFFE
ENDCHAR
STARTCHAR IJ
ENCODING 306
SWIDTH 600 0
DWIDTH 20 0
BBX 26 20 3 0
BITMAP
0FFFFFC0
1FFFFFC0
1FFFFF80
00F03C00
00E03800
00E03800
00E03800
00E03800
01E07800
01C07000
01C07000
03C07000
07C0F000
0780E000
0780E000
0781E000
0787C000
7FFF8000
FFFF0000
FFFC0000
ENDCHAR
STARTCHAR ij
ENCODING 307
SWIDTH 600 0
DWIDTH 20 0
BBX 21 28 2 -7
BITMAP
007878
0078F8
00F8F0
00F0F0
000000
000000
07FFF8
0FFFF8
0FFFF8
00F078
00E070
00E070
00E070
01E0F0
01C0E0
01C0E0
01C0E0
01C0E0
7FFFE0
FFFFC0
FFFFC0
0001C0
0003C0
000380
000780
03FF00
07FE00
07F800
ENDCHAR
STARTCHAR Jcircumflex
ENCODING 308
SWIDTH 600 0
DWIDTH 20 0
BBX 21 26 3 0
BITMAP
000400
000E00
003F00
0073C0
00E0C0
000000
007FF8
00FFF8
00FFF0
000780
000700
000700
000700
000700
000F00
000E00
000E00
700E00
F01E00
E01C00
E01C00
E03C00
F0F800
FFF000
FFE000
3F8000
ENDCHAR
STARTCHAR jcircumflex
ENCODING 309
SWIDTH 600 0
DWIDTH 20 0
BBX 16 28 1 -7
BITMAP
0020
0070
01F8
039E
0706
0000
07FF
0FFF
0FFF
000F
000E
000E
000E
001E
001C
001C
001C
001C
003C
0038
0038
0038
0078
0070
00F0
7FE0
FFC0
FF00
ENDCHAR
STARTCHAR Kcommaaccent
ENCODING 310
SWIDTH 600 0
DWIDTH 20 0
BBX 22 29 1 -9
BITMAP
0FF1FC
1FF3FC
1FE3F8
0781E0
0703C0
070780
071F00
077C00
0FF000
0FF800
0FFC00
0F3C00
1E1E00
1C0E00
1C0E00
1C0700
1C0700
7F87E0
FF87E0
FF07C0
000000
007800
00F000
00E000
01E000
01C000
038000
070000
060000
ENDCHAR
STARTCHAR kcommaaccent
ENCODING 311
SWIDTH 600 0
DWIDTH 20 0
BBX 18 30 2 -9
BITMAP
0FC000
1FC000
1F8000
038000
078000
070000
071FC0
073FC0
071F80
0F3C00
0E7800
0FF000
0FC000
1FC000
1FE000
1CF000
1C7800
1C3C00
FC3F80
FC7F80
F87F00
000000
00F000
01E000
01C000
03C000
038000
070000
0E0000
0C0000
ENDCHAR
STARTCHAR kgreenlandic
ENCODING 312
SWIDTH 600 0
DWIDTH 20 0
BBX 18 15 2 0
BITMAP
071FC0
073FC0
071F80
0F3C00
0E7800
0FF000
0FC000
1FC000
1FE000
1CF000
1C7800
1C3C00
FC3F80
FC7F80
F87F00
ENDCHAR
STARTCHAR Lacute
ENCODING 313
SWIDTH 600 0
DWIDTH 20 0
BBX 20 27 1 0
BITMAP
000F00
001E00
003C00
007000
00E000
01C000
000000
07FE00
0FFE00
0FFC00
01E000
01C000
01C000
01C000
01C000
03C000
038000
038000
038000
078070
0700E0
0700E0
0700E0
0700E0
7FFFE0
FFFFC0
FFFFC0
ENDCHAR
STARTCHAR lacute
ENCODING 314
SWIDTH 600 0
DWIDTH 20 0
BBX 16 28 2 0
BITMAP
001E
003C
0078
00E0
01C0
0380
0000
03FC
07FC
07F8
0038
0078
0070
0070
0070
0070
00F0
00E0
00E0
00E0
01E0
01C0
01C0
01C0
01C0
7FFF
FFFF
FFFE
ENDCHAR
STARTCHAR Lcommaaccent
ENCODING 315
SWIDTH 600 0
DWIDTH 20 0
BBX 20 29 1 -9
BITMAP
07FE00
0FFE00
0FFC00
01E000
01C000
01C000
01C000
01C000
03C000
038000
038000
038000
078070
0700E0
0700E0
0700E0
0700E0
7FFFE0
FFFFC0
FFFFC0
000000
007800
00F000
00E000
01E000
01C000
038000
070000
060000
ENDCHAR
STARTCHAR lcommaaccent
ENCODING 316
SWIDTH 600 0
DWIDTH 20 0
BBX 16 30 2 -9
BITMAP
03FC
07FC
07F8
0038
0078
0070
0070
0070
0070
00F0
00E0
00E0
00E0
01E0
01C0
01C0
01C0
01C0
7FFF
FFFF
FFFE
0000
01E0
03C0
0380
0780
0700
0E00
1C00
1800
ENDCHAR
STARTCHAR Lcaron
ENCODING 317
SWIDTH 600 0
DWIDTH 20 0
BBX 20 26 1 0
BITMAP
060C00
073C00
03F000
01E000
008000
000000
07FE00
0FFE00
0FFC00
01E000
01C000
01C000
01C000
01C000
03C000
038000
038000
038000
078070
0700E0
0700E0
0700E0
0700E0
7FFFE0
FFFFC0
FFFFC0
ENDCHAR
STARTCHAR lcaron
ENCODING 318
SWIDTH 600 0
DWIDTH 20 0
BBX 16 27 2 0
BITMAP
060C
073C
03F0
01E0
0080
0000
03FC
07FC
07F8
0038
0078
0070
0070
0070
0070
00F0
00E0
00E0
00E0
01E0
01C0
01C0
01C0
01C0
7FFF
FFFF
FFFE
ENDCHAR
STARTCHAR Ldot
ENCODING 319
SWIDTH 600 0
DWIDTH 20 0
BBX 20 20 1 0
BITMAP
07FE00
0FFE00
0FFC00
01E000
01C000
01C000
01C000
01C000
03DE00
03BE00
03BE00
03BC00
078070
0700E0
0700E0
0700E0
0700E0
7FFFE0
FFFFC0
FFFFC0
ENDCHAR
STARTCHAR ldot
ENCODING 320
SWIDTH 600 0
DWIDTH 20 0
BBX 18 21 2 0
BITMAP
03FC00
07FC00
07F800
003800
007800
007000
007000
007000
007000
00F3C0
00E7C0
00E7C0
00E780
01E000
01C000
01C000
01C000
01C000
7FFF00
FFFF00
FFFE00
ENDCHAR
STARTCHAR Lslash
ENCODING 321
SWIDTH 600 0
DWIDTH 20 0
BBX 20 20 1 0
BITMAP
07FE00
0FFE00
0FFC00
01E000
01C000
01C000
01CE00
01FE00
03FC00
03F000
0FE000
1F8000
7F8070
7700E0
0700E0
0700E0
0700E0
7FFFE0
FFFFC0
FFFFC0
ENDCHAR
STARTCHAR lslash
ENCODING 322
SWIDTH 600 0
DWIDTH 20 0
BBX 16 21 2 0
BITMAP
03F8
07F8
07F8
0038
0078
0070
0070
0077
007F
00FE
01F8
07F0
0FE0
1FE0
1DC0
01C0
01C0
01C0
7FFF
FFFF
FFFE
ENDCHAR
STARTCHAR Nacute
ENCODING 323
SWIDTH 600 0
DWIDTH 20 0
BBX 22 27 1 0
BITMAP
0003C0
000780
000F00
001C00
003800
007000
000000
0F81FC
1FC3FC
1FC3F8
07C0F0
07E0E0
07E0E0
07F0E0
0770E0
0F71E0
0E79C0
0E39C0
0E39C0
1E3DC0
1C1D80
1C1F80
1C1F80
1C0F80
7F8F80
FF8700
FF0700
ENDCHAR
STARTCHAR nacute
ENCODING 324
SWIDTH 600 0
DWIDTH 20 0
BBX 19 22 1 0
BITMAP
000F00
001E00
003C00
007000
00E000
01C000
000000
1E3E00
3E7F80
3FFFC0
0F83C0
0F01C0
0E01C0
0E01C0
1E03C0
1C0380
1C0380
1C0380
1C0380
7F0FE0
FF1FE0
FE1FC0
ENDCHAR
STARTCHAR Ncommaaccent
ENCODING 325
SWIDTH 600 0
DWIDTH 20 0
BBX 22 29 1 -9
BITMAP
0F81FC
1FC3FC
1FC3F8
07C0F0
07E0E0
07E0E0
07F0E0
0770E0
0F71E0
0E79C0
0E39C0
0E39C0
1E3DC0
1C1D80
1C1F80
1C1F80
1C0F80
7F8F80
FF8700
FF0700
000000
007800
00F000
00E000
01E000
01C000
038000
070000
060000
ENDCHAR
STARTCHAR ncommaaccent
ENCODING 326
SWIDTH 600 0
DWIDTH 20 0
BBX 19 24 1 -9
BITMAP
1E3E00
3E7F80
3FFFC0
0F83C0
0F01C0
0E01C0
0E01C0
1E03C0
1C0380
1C0380
1C0380
1C0380
7F0FE0
FF1FE0
FE1FC0
000000
007800
00F000
00E000
01E000
01C000
038000
070000
060000
ENDCHAR
STARTCHAR Ncaron
ENCODING 327
SWIDTH 600 0
DWIDTH 20 0
BBX 22 26 1 0
BITMAP
00C180
00E780
007E00
003C00
001000
000000
0F81FC
1FC3FC
1FC3F8
07C0F0
07E0E0
07E0E0
07F0E0
0770E0
0F71E0
0E79C0
0E39C0
0E39C0
1E3DC0
1C1D80
1C1F80
1C1F80
1C0F80
7F8F80
FF8700
FF0700
ENDCHAR
STARTCHAR ncaron
ENCODING 328
SWIDTH 600 0
DWIDTH 20 0
BBX 19 21 1 0
BITMAP
030600
039E00
01F800
00F000
004000
000000
1E3E00
3E7F80
3FFFC0
0F83C0
0F01C0
0E01C0
0E01C0
1E03C0
1C0380
1C0380
1C0380
1C0380
7F0FE0
FF1FE0
FE1FC0
ENDCHAR
STARTCHAR napostrophe
ENCODING 329
SWIDTH 600 0
DWIDTH 20 0
BBX 25 20 -5 0
BITMAP
0F800000
0F000000
1E000000
1C000000
38000000
3878F800
70F9FE00
E0FFFF00
C03E0F00
003C0700
00380700
00380700
00780F00
00700E00
00700E00
00700E00
00700E00
01FC3F80
03FC7F80
03F87F00
ENDCHAR
STARTCHAR Eng
ENCODING 330
SWIDTH 600 0
DWIDTH 20 0
BBX 22 27 1 -7
BITMAP
0F81FC
1FC3FC
1FC3F8
07C0F0
07E0E0
07E0E0
07F0E0
0770E0
0F71E0
0E79C0
0E39C0
0E39C0
1E3DC0
1C1D80
1C1F80
1C1F80
1C0F80
7F8F80
FF8700
FF0700
000700
000F00
000E00
001E00
0FFC00
1FF800
1FE000
ENDCHAR
STARTCHAR eng
ENCODING 331
SWIDTH 600 0
DWIDTH 20 0
BBX 18 22 1 -7
BITMAP
1E3E00
3E7F80
3FFFC0
0F83C0
0F01C0
0E01C0
0E01C0
1E03C0
1C0380
1C0380
1C0380
1C0380
7F0780
FF0700
FE0700
000700
000F00
000E00
001E00
0FFC00
1FF800
1FE000
ENDCHAR
STARTCHAR Omacron
ENCODING 332
SWIDTH 600 0
DWIDTH 20 0
BBX 18 23 2 0
BITMAP
07FF00
07FF00
000000
00FC00
03FF00
0FFF80
0F0780
1E03C0
3C01C0
7801C0
7001C0
7001C0
E001C0
E001C0
E003C0
E00380
E00780
F00700
700F00
7C3E00
3FFC00
1FF000
07C000
ENDCHAR
STARTCHAR omacron
ENCODING 333
SWIDTH 600 0
DWIDTH 20 0
BBX 16 18 3 0
BITMAP
1FFC
1FFC
0000
01F0
0FFC
1FFE
3C0F
3807
7007
7003
F007
6007
700E
700E
783C
3FFC
1FF0
07C0
ENDCHAR
STARTCHAR Obreve
ENCODING 334
SWIDTH 600 0
DWIDTH 20 0
BBX 18 26 2 0
BITMAP
060700
060700
078E00
03FC00
00F000
000000
00FC00
03FF00
0FFF80
0F0780
1E03C0
3C01C0
7801C0
7001C0
7001C0
E001C0
E001C0
E003C0
E00380
E00780
F00700
700F00
7C3E00
3FFC00
1FF000
07C000
ENDCHAR
STARTCHAR obreve
ENCODING 335
SWIDTH 600 0
DWIDTH 20 0
BBX 16 21 3 0
BITMAP
0C0E
0C0E
0F1C
07F8
01E0
0000
01F0
0FFC
1FFE
3C0F
3807
7007
7003
F007
6007
700E
700E
783C
3FFC
1FF0
07C0
ENDCHAR
STARTCHAR Ohungarumlaut
ENCODING 336
SWIDTH 600 0
DWIDTH 20 0
BBX 18 26 2 0
BITMAP
00F3C0
01E780
03CF00
071C00
061800
000000
00FC00
03FF00
0FFF80
0F0780
1E03C0
3C01C0
7801C0
7001C0
7001C0
E001C0
E001C0
E003C0
E00380
E00780
F00700
700F00
7C3E00
3FFC00
1FF000
07C000
ENDCHAR
STARTCHAR ohungarumlaut
ENCODING 337
SWIDTH 600 0
DWIDTH 20 0
BBX 17 21 3 0
BITMAP
01E780
03CF00
079E00
0E3800
0C3000
000000
01F000
0FFC00
1FFE00
3C0F00
380700
700700
700300
F00700
600700
700E00
700E00
783C00
3FFC00
1FF000
07C000
ENDCHAR
STARTCHAR OE
ENCODING 338
SWIDTH 600 0
DWIDTH 20 0
BBX 22 20 1 0
BITMAP
00FFFC
03FFFC
07FFFC
0F9E1C
1E1C18
3C1C18
381C18
701CC0
703FC0
F03FC0
E03F80
E03980
E07980
E07030
E07030
F07030
787070
7FFFF0
1FFFE0
07FFE0
ENDCHAR
STARTCHAR oe
ENCODING 339
SWIDTH 600 0
DWIDTH 20 0
BBX 21 15 1 0
BITMAP
0783C0
1FCFE0
3FFFF0
3CFC70
70F838
707838
E07FF8
E07FF8
E0FFF8
E0E000
E1E000
F3F0F0
7FFFF0
7F3FE0
3C1F00
ENDCHAR
STARTCHAR Racute
ENCODING 340
SWIDTH 600 0
DWIDTH 20 0
BBX 19 27 1 0
BITMAP
000780
000F00
001E00
003800
007000
00E000
000000
0FFF00
1FFFC0
1FFFC0
0781E0
0700E0
0700E0
0700E0
0701E0
0F07C0
0FFF80
0FFE00
0FFC00
1E1E00
1C0E00
1C0F00
1C0700
1C0780
7F83E0
FF83E0
FF01E0
ENDCHAR
STARTCHAR racute
ENCODING 341
SWIDTH 600 0
DWIDTH 20 0
BBX 19 22 2 0
BITMAP
000780
000F00
001E00
003800
007000
00E000
000000
0FC7C0
1FDFE0
1FBFE0
03F0C0
03E000
03C000
038000
078000
070000
070000
070000
070000
7FFC00
FFFC00
FFF800
ENDCHAR
STARTCHAR Rcommaaccent
ENCODING 342
SWIDTH 600 0
DWIDTH 20 0
BBX 19 29 1 -9
BITMAP
0FFF00
1FFFC0
1FFFC0
0781E0
0700E0
0700E0
0700E0
0701E0
0F07C0
0FFF80
0FFE00
0FFC00
1E1E00
1C0E00
1C0F00
1C0700
1C0780
7F83E0
FF83E0
FF01E0
000000
007800
00F000
00E000
01E000
01C000
038000
070000
060000
ENDCHAR
STARTCHAR rcommaaccent
ENCODING 343
SWIDTH 600 0
DWIDTH 20 0
BBX 19 24 2 -9
BITMAP
0FC7C0
1FDFE0
1FBFE0
03F0C0
03E000
03C000
038000
078000
070000
070000
070000
070000
7FFC00
FFFC00
FFF800
000000
01E000
03C000
038000
078000
070000
0E0000
1C0000
180000
ENDCHAR
STARTCHAR Rcaron
ENCODING 344
SWIDTH 600 0
DWIDTH 20 0
BBX 19 26 1 0
BITMAP
030600
039E00
01F800
00F000
004000
000000
0FFF00
1FFFC0
1FFFC0
0781E0
0700E0
0700E0
0700E0
0701E0
0F07C0
0FFF80
0FFE00
0FFC00
1E1E00
1C0E00
1C0F00
1C0700
1C0780
7F83E0
FF83E0
FF01E0
ENDCHAR
STARTCHAR rcaron
ENCODING 345
SWIDTH 600 0
DWIDTH 20 0
BBX 19 21 2 0
BITMAP
030600
039E00
01F800
00F000
004000
000000
0FC7C0
1FDFE0
1FBFE0
03F0C0
03E000
03C000
038000
078000
070000
070000
070000
070000
7FFC00
FFFC00
FFF800
ENDCHAR
STARTCHAR Sacute
ENCODING 346
SWIDTH 600 0
DWIDTH 20 0
BBX 19 27 2 0
BITMAP
000780
000F00
001E00
003800
007000
00E000
000000
00FC00
03FF60
07FFE0
0F03E0
0E01C0
0E01C0
0E0180
0F0000
0FC000
07F800
03FE00
007F00
000F80
000380
700380
700380
7C0700
FFFF00
FFFE00
C7F800
ENDCHAR
STARTCHAR sacute
ENCODING 347
SWIDTH 600 0
DWIDTH 20 0
BBX 17 22 3 0
BITMAP
000F00
001E00
003C00
007000
00E000
01C000
000000
01F980
07FF80
0FFF00
1E0F00
1C0600
1E0000
1FF000
0FFC00
01FE00
301E00
700E00
781E00
FFFC00
FFF800
CFE000
ENDCHAR
STARTCHAR Scircumflex
ENCODING 348
SWIDTH 600 0
DWIDTH 20 0
BBX 19 26 2 0
BITMAP
001000
003800
00FC00
01CF00
038300
000000
00FC00
03FF60
07FFE0
0F03E0
0E01C0
0E01C0
0E0180
0F0000
0FC000
07F800
03FE00
007F00
000F80
000380
700380
700380
7C0700
FFFF00
FFFE00
C7F800
ENDCHAR
STARTCHAR scircumflex
ENCODING 349
SWIDTH 600 0
DWIDTH 20 0
BBX 17 21 3 0
BITMAP
002000
007000
01F800
039E00
070600
000000
01F980
07FF80
0FFF00
1E0F00
1C0600
1E0000
1FF000
0FFC00
01FE00
301E00
700E00
781E00
FFFC00
FFF800
CFE000
ENDCHAR
STARTCHAR Scedilla
ENCODING 350
SWIDTH 600 0
DWIDTH 20 0
BBX 19 26 2 -6
BITMAP
00FC00
03FF60
07FFE0
0F03E0
0E01C0
0E01C0
0E0180
0F0000
0FC000
07F800
03FE00
007F00
000F80
000380
700380
700380
7C0700
FFFF00
FFFE00
C7F800
00E000
00C000
01C000
0CE000
0FC000
078000
ENDCHAR
STARTCHAR scedilla
ENCODING 351
SWIDTH 600 0
DWIDTH 20 0
BBX 17 21 3 -6
BITMAP
01F980
07FF80
0FFF00
1E0F00
1C0600
1E0000
1FF000
0FFC00
01FE00
301E00
700E00
781E00
FFFC00
FFF800
CFE000
01C000
018000
038000
19C000
1F8000
0F0000
ENDCHAR
STARTCHAR Scaron
ENCODING 352
SWIDTH 600 0
DWIDTH 20 0
BBX 19 26 2 0
BITMAP
00C180
00E780
007E00
003C00
001000
000000
007E00
01FF60
03FFE0
0783E0
0F01C0
0E01C0
0E0180
0E0000
0F0000
0FF800
07FE00
00FF00
000F80
000380
300380
700780
7C1F00
FFFE00
FFFC00
C7F000
ENDCHAR
STARTCHAR scaron
ENCODING 353
SWIDTH 600 0
DWIDTH 20 0
BBX 17 21 3 0
BITMAP
018300
01CF00
00FC00
007800
002000
000000
01F800
07FF80
0FFF80
1F0F80
1C0600
1E0000
1FF000
0FFC00
03FE00
301E00
700F00
781F00
FFFE00
FFF800
CFE000
ENDCHAR
STARTCHAR Tcommaaccent
ENCODING 354
SWIDTH 600 0
DWIDTH 20 0
BBX 18 26 4 -6
BITMAP
3FFFC0
3FFFC0
7FFF80
71E380
71C380
71C380
E1C700
E1C700
E3C700
038000
038000
038000
078000
070000
070000
070000
070000
7FF000
FFF000
FFE000
038000
030000
070000
338000
3F0000
1E0000
ENDCHAR
STARTCHAR tcommaaccent
ENCODING 355
SWIDTH 600 0
DWIDTH 20 0
BBX 15 26 4 -6
BITMAP
0380
0780
0700
0F00
0E00
7FFC
FFFC
FFF8
1E00
1C00
1C00
1C00
3C00
3800
3800
380C
3C3E
3FFC
1FF8
0FC0
01C0
0180
0380
19C0
1F80
0F00
ENDCHAR
STARTCHAR Tcaron
ENCODING 356
SWIDTH 600 0
DWIDTH 20 0
BBX 18 26 4 0
BITMAP
060C00
073C00
03F000
01E000
008000
000000
3FFFC0
3FFFC0
7FFF80
71E380
71C380
71C380
E1C700
E1C700
E3C700
038000
038000
038000
078000
070000
070000
070000
070000
7FF000
FFF000
FFE000
ENDCHAR
STARTCHAR tcaron
ENCODING 357
SWIDTH 600 0
DWIDTH 20 0
BBX 15 26 4 0
BITMAP
1830
1CF0
0FC0
0780
0200
0000
0380
0780
0700
0F00
0E00
7FFC
FFFC
FFF8
1E00
1C00
1C00
1C00
3C00
3800
3800
380C
3C3E
3FFC
1FF8
0FC0
ENDCHAR
STARTCHAR Tbar
ENCODING 358
SWIDTH 600 0
DWIDTH 20 0
BBX 18 20 4 0
BITMAP
3FFFC0
3FFFC0
7FFF80
71E380
71C380
71C380
E1C700
E1C700
FFFFC0
7FFFC0
7FFFC0
038000
078000
070000
070000
070000
070000
7FF000
FFF000
FFE000
ENDCHAR
STARTCHAR tbar
ENCODING 359
SWIDTH 600 0
DWIDTH 20 0
BBX 17 20 3 0
BITMAP
01C000
03C000
038000
078000
070000
3FFE00
7FFE00
7FFC00
0F0000
0E0000
0E0000
FFFF80
FFFF80
FFFF80
1C0000
1C0600
1E1F00
1FFE00
0FFC00
07E000
ENDCHAR
STARTCHAR Utilde
ENCODING 360
SWIDTH 600 0
DWIDTH 20 0
BBX 19 24 3 0
BITMAP
07C600
0FFE00
0C7C00
000000
7F8FE0
FF9FE0
FF1FC0
3C0780
380700
380700
380700
380700
780F00
700E00
700E00
700E00
F01E00
E01C00
E01C00
703C00
78F800
7FF000
3FE000
0F8000
ENDCHAR
STARTCHAR utilde
ENCODING 361
SWIDTH 600 0
DWIDTH 20 0
BBX 18 19 3 0
BITMAP
0F8C00
1FFC00
18F800
000000
7E1FC0
FE3FC0
FC3F80
3C0380
380700
380700
380700
780F00
700E00
700E00
701E00
787E00
7FFF80
7FEF80
3F8F00
ENDCHAR
STARTCHAR Umacron
ENCODING 362
SWIDTH 600 0
DWIDTH 20 0
BBX 19 23 3 0
BITMAP
0FFE00
0FFE00
000000
7F8FE0
FF9FE0
FF1FC0
3C0780
380700
380700
380700
380700
780F00
700E00
700E00
700E00
F01E00
E01C00
E01C00
703C00
78F800
7FF000
3FE000
0F8000
ENDCHAR
STARTCHAR umacron
ENCODING 363
SWIDTH 600 0
DWIDTH 20 0
BBX 18 18 3 0
BITMAP
0FFE00
0FFE00
000000
7E1FC0
FE3FC0
FC3F80
3C0380
380700
380700
380700
780F00
700E00
700E00
701E00
787E00
7FFF80
7FEF80
3F8F00
ENDCHAR
STARTCHAR Ubreve
ENCODING 364
SWIDTH 600 0
DWIDTH 20 0
BBX 19 26 3 0
BITMAP
0C0E00
0C0E00
0F1C00
07F800
01E000
000000
7F8FE0
FF9FE0
FF1FC0
3C0780
380700
380700
380700
380700
780F00
700E00
700E00
700E00
F01E00
E01C00
E01C00
703C00
78F800
7FF000
3FE000
0F8000
ENDCHAR
STARTCHAR ubreve
ENCODING 365
SWIDTH 600 0
DWIDTH 20 0
BBX 18 21 3 0
BITMAP
0C0E00
0C0E00
0F1C00
07F800
01E000
000000
7E1FC0
FE3FC0
FC3F80
3C0380
380700
380700
380700
780F00
700E00
700E00
701E00
787E00
7FFF80
7FEF80
3F8F00
ENDCHAR
STARTCHAR Uring
ENCODING 366
SWIDTH 600 0
DWIDTH 20 0
BBX 19 26 3 0
BITMAP
01E000
031000
021000
023000
01E000
000000
7F8FE0
FF9FE0
FF1FC0
3C0780
380700
380700
380700
380700
780F00
700E00
700E00
700E00
F01E00
E01C00
E01C00
703C00
78F800
7FF000
3FE000
0F8000
ENDCHAR
STARTCHAR uring
ENCODING 367
SWIDTH 600 0
DWIDTH 20 0
BBX 18 21 3 0
BITMAP
01E000
031000
021000
023000
01E000
000000
7E1FC0
FE3FC0
FC3F80
3C0380
380700
380700
380700
780F00
700E00
700E00
701E00
787E00
7FFF80
7FEF80
3F8F00
ENDCHAR
STARTCHAR Uhungarumlaut
ENCODING 368
SWIDTH 600 0
DWIDTH 20 0
BBX 19 26 3 0
BITMAP
01E780
03CF00
079E00
0E3800
0C3000
000000
7F8FE0
FF9FE0
FF1FC0
3C0780
380700
380700
380700
380700
780F00
700E00
700E00
700E00
F01E00
E01C00
E01C00
703C00
78F800
7FF000
3FE000
0F8000
ENDCHAR
STARTCHAR uhungarumlaut
ENCODING 369
SWIDTH 600 0
DWIDTH 20 0
BBX 18 21 3 0
BITMAP
01E780
03CF00
079E00
0E3800
0C3000
000000
7E1FC0
FE3FC0
FC3F80
3C0380
380700
380700
380700
780F00
700E00
700E00
701E00
787E00
7FFF80
7FEF80
3F8F00
ENDCHAR
STARTCHAR Uogonek
ENCODING 370
SWIDTH 600 0
DWIDTH 20 0
BBX 19 26 3 -6
BITMAP
7F8FE0
FF9FE0
FF1FC0
3C0780
380700
380700
380700
380700
780F00
700E00
700E00
700E00
F01E00
E01C00
E01C00
703C00
78F800
7FF000
3FE000
0FC000
038000
070000
070000
07E000
07E000
038000
ENDCHAR
STARTCHAR uogonek
ENCODING 371
SWIDTH 600 0
DWIDTH 20 0
BBX 18 21 3 -6
BITMAP
7E1FC0
FE3FC0
FC3F80
3C0380
380700
380700
380700
780F00
700E00
700E00
701E00
787E00
7FFF80
7FEF80
3FEF00
01C000
038000
038000
03F000
03F000
01C000
ENDCHAR
STARTCHAR Wcircumflex
ENCODING 372
SWIDTH 600 0
DWIDTH 20 0
BBX 22 26 3 0
BITMAP
001000
003800
00FC00
01CF00
038300
000000
7F81FC
FF83FC
FF03F8
3800F0
3870E0
3870E0
38F1E0
38F1C0
39F9C0
39F9C0
3BBB80
3B3B80
3F3B80
7E3F00
7E3F00
7C1F00
7C1E00
781E00
781E00
701E00
ENDCHAR
STARTCHAR wcircumflex
ENCODING 373
SWIDTH 600 0
DWIDTH 20 0
BBX 20 21 2 0
BITMAP
002000
007000
01F800
039E00
070600
000000
7F03F0
FF07F0
FE07E0
3861C0
38E380
38E380
39F300
3BF700
3BF600
3F7600
3E7E00
3E7C00
3C3C00
3C3800
383800
ENDCHAR
STARTCHAR Ycircumflex
ENCODING 374
SWIDTH 600 0
DWIDTH 20 0
BBX 19 26 4 0
BITMAP
004000
00E000
03F000
073C00
0E0C00
000000
7E0FE0
FE1FE0
FC1FC0
3C0F00
1C1E00
1E3C00
0E3800
0F7000
077000
07E000
07C000
038000
038000
038000
070000
070000
070000
7FF000
FFF000
FFE000
ENDCHAR
STARTCHAR ycircumflex
ENCODING 375
SWIDTH 600 0
DWIDTH 20 0
BBX 23 28 -1 -7
BITMAP
000400
000E00
003F00
0073C0
00E0C0
000000
07E0FE
0FE1FE
0FC1FC
038078
0380F0
0381E0
01C1C0
01C380
01C780
01E700
00EE00
00FE00
00FC00
00F800
007000
00F000
00E000
01C000
038000
7FF000
FFF000
FFE000
ENDCHAR
STARTCHAR Ydieresis
ENCODING 376
SWIDTH 600 0
DWIDTH 20 0
BBX 19 25 4 0
BITMAP
018300
038700
030600
000000
000000
7E0FE0
FE1FE0
FC1FC0
3C0F00
1C1E00
1E3C00
0E3800
0F7000
077000
07E000
07C000
038000
038000
038000
070000
070000
070000
7FF000
FFF000
FFE000
ENDCHAR
STARTCHAR Zacute
ENCODING 377
SWIDTH 600 0
DWIDTH 20 0
BBX 18 27 2 0
BITMAP
000780
000F00
001E00
003800
007000
00E000
000000
07FFC0
07FFC0
07FFC0
0F03C0
0E0780
0E0F00
1C1E00
003C00
007800
00F000
01E000
03C000
078000
0F0380
1E0700
3C0700
780F00
7FFF00
7FFE00
FFFE00
ENDCHAR
STARTCHAR zacute
ENCODING 378
SWIDTH 600 0
DWIDTH 20 0
BBX 17 22 3 0
BITMAP
001E00
003C00
007800
00E000
01C000
038000
000000
1FFF80
3FFF80
3FFF00
781E00
703C00
70F800
01F000
03C000
078000
0F0700
3E0F00
7C0E00
FFFE00
FFFC00
FFFC00
ENDCHAR
STARTCHAR Zdotaccent
ENCODING 379
SWIDTH 600 0
DWIDTH 20 0
BBX 18 24 2 0
BITMAP
003800
007800
007000
000000
07FFC0
07FFC0
07FFC0
0F03C0
0E0780
0E0F00
1C1E00
003C00
007800
00F000
01E000
03C000
078000
0F0380
1E0700
3C0700
780F00
7FFF00
7FFE00
FFFE00
ENDCHAR
STARTCHAR zdotaccent
ENCODING 380
SWIDTH 600 0
DWIDTH 20 0
BBX 17 19 3 0
BITMAP
00E000
01E000
01C000
000000
1FFF80
3FFF80
3FFF00
781E00
703C00
70F800
01F000
03C000
078000
0F0700
3E0F00
7C0E00
FFFE00
FFFC00
FFFC00
ENDCHAR
STARTCHAR Zcaron
ENCODING 381
SWIDTH 600 0
DWIDTH 20 0
BBX 18 26 2 0
BITMAP
00C180
00E780
007E00
003C00
001000
000000
07FFC0
07FFC0
07FFC0
0F03C0
0E0780
0E0F00
0E1E00
0C3C00
007800
00F000
01E000
03C000
078300
0F0700
1E0700
3C0700
780700
7FFF00
7FFE00
FFFE00
ENDCHAR
STARTCHAR zcaron
ENCODING 382
SWIDTH 600 0
DWIDTH 20 0
BBX 17 21 3 0
BITMAP
018300
01CF00
00FC00
007800
002000
000000
1FFF80
1FFF80
1FFF00
3C1E00
383C00
30F800
01F000
03C000
078000
0F0000
3E0600
7C0E00
FFFE00
FFFC00
FFFC00
ENDCHAR
STARTCHAR uni0186
ENCODING 390
SWIDTH 600 0
DWIDTH 20 0
BBX 19 20 3 0
BITMAP
01FC00
07FF00
0FFFC0
1F03C0
1C01E0
0000E0
0000E0
0000E0
0000E0
0000E0
0000E0
0001E0
0001C0
3003C0
700380
700F00
F83F00
FFFE00
FFF800
C7E000
ENDCHAR
STARTCHAR uni0189
ENCODING 393
SWIDTH 600 0
DWIDTH 20 0
BBX 19 20 1 0
BITMAP
0FFE00
1FFF80
1FFFC0
0783C0
0701E0
0700E0
0700E0
0700E0
3FE0E0
7FE0E0
7FC0E0
0E00E0
1E01E0
1C01C0
1C03C0
1C0780
1C0F00
7FFE00
FFFC00
FFF000
ENDCHAR
STARTCHAR uni018E
ENCODING 398
SWIDTH 600 0
DWIDTH 20 0
BBX 21 20 1 0
BITMAP
0FFFF8
0FFFF8
1FFFF0
1C01C0
1C01C0
1C01C0
39C1C0
01C3C0
01C380
01FF80
01FF80
03FF80
038700
338700
700700
700700
700F00
7FFFC0
FFFFC0
FFFF80
ENDCHAR
STARTCHAR florin
ENCODING 402
SWIDTH 600 0
DWIDTH 20 0
BBX 21 25 1 -4
BITMAP
0001F8
0007F8
000FF0
001E00
001C00
003C00
003800
003800
03FF80
07FF80
07FF00
007000
007000
00F000
00E000
00E000
00E000
00E000
01E000
01C000
01C000
078000
7F8000
FF0000
FC0000
ENDCHAR
STARTCHAR uni0197
ENCODING 407
SWIDTH 600 0
DWIDTH 20 0
BBX 17 20 3 0
BITMAP
0FFF80
1FFF80
1FFF00
00F000
00E000
00E000
00E000
00E000
FFFF80
FFFF80
FFFF80
01C000
03C000
038000
038000
038000
038000
7FFC00
FFFC00
FFF800
ENDCHAR
STARTCHAR uni019A
ENCODING 410
SWIDTH 600 0
DWIDTH 20 0
BBX 17 21 2 0
BITMAP
03FC00
07FC00
07F800
003800
007800
007000
007000
007000
007000
FFFF80
FFFF80
FFFF80
00E000
01E000
01C000
01C000
01C000
01C000
7FFF00
FFFF00
FFFE00
ENDCHAR
STARTCHAR uni019D
ENCODING 413
SWIDTH 600 0
DWIDTH 20 0
BBX 30 27 -7 -7
BITMAP
000F81FC
001FC3FC
001FC3F8
0007C0F0
0007E0E0
0007E0E0
0007F0E0
000770E0
000F71E0
000E79C0
000E39C0
000E39C0
001E3DC0
001C1D80
001C1F80
001C0F80
001C0F80
003C0F80
00380700
00380700
00380000
00780000
00700000
00F00000
7FE00000
FFC00000
FF000000
ENDCHAR
STARTCHAR uni019F
ENCODING 415
SWIDTH 600 0
DWIDTH 20 0
BBX 18 20 2 0
BITMAP
00FC00
03FF00
0FFF80
0F0780
1E03C0
3C01C0
7801C0
7001C0
FFFFC0
FFFFC0
FFFFC0
E003C0
E00380
E00780
F00700
700F00
7C3E00
3FFC00
1FF000
07C000
ENDCHAR
STARTCHAR Ohorn
ENCODING 416
SWIDTH 600 0
DWIDTH 20 0
BBX 25 20 2 0
BITMAP
00FC0F80
03FF0F00
0FFF9E00
0F079C00
1E03F800
3C01F800
7801F000
7001E000
7001C000
E001C000
E001C000
E003C000
E0038000
E0078000
F0070000
700F0000
7C3E0000
3FFC0000
1FF00000
07C00000
ENDCHAR
STARTCHAR ohorn
ENCODING 417
SWIDTH 600 0
DWIDTH 20 0
BBX 24 15 3 0
BITMAP
01F01F
0FFC1E
1FFE3C
3C0F38
380770
700770
7003E0
F007C0
600780
700E00
700E00
783C00
3FFC00
1FF000
07C000
ENDCHAR
STARTCHAR Uhorn
ENCODING 431
SWIDTH 600 0
DWIDTH 20 0
BBX 26 20 3 0
BITMAP
7F8FE7C0
FF9FE780
FF1FCF00
3C078E00
38071C00
38071C00
38073800
38077000
780F6000
700E0000
700E0000
700E0000
F01E0000
E01C0000
E01C0000
703C0000
78F80000
7FF00000
3FE00000
0F800000
ENDCHAR
STARTCHAR uhorn
ENCODING 432
SWIDTH 600 0
DWIDTH 20 0
BBX 25 15 3 0
BITMAP
7E1FCF80
FE3FCF00
FC3F9E00
3C039C00
38073800
38073800
38077000
780FE000
700EC000
700E0000
701E0000
787E0000
7FFF8000
7FEF8000
3F8F0000
ENDCHAR
STARTCHAR uni01B5
ENCODING 437
SWIDTH 600 0
DWIDTH 20 0
BBX 18 20 2 0
BITMAP
07FFC0
07FFC0
07FFC0
0F03C0
0E0780
0E0F00
1C1E00
003C00
7FFFC0
7FFFC0
7FFFC0
03C000
078000
0F0380
1E0700
3C0700
780F00
7FFF00
7FFE00
FFFE00
ENDCHAR
STARTCHAR uni01B6
ENCODING 438
SWIDTH 600 0
DWIDTH 20 0
BBX 17 15 3 0
BITMAP
1FFF80
3FFF80
3FFF00
781E00
703C00
70F800
FFFF80
FFFF80
FFFF80
0F0700
3E0F00
7C0E00
FFFE00
FFFC00
FFFC00
ENDCHAR
STARTCHAR uni01BB
ENCODING 443
SWIDTH 600 0
DWIDTH 20 0
BBX 18 21 2 0
BITMAP
007E00
01FF80
03FF80
07C3C0
0F01C0
0E01C0
0401C0
0003C0
000780
FFFFC0
FFFFC0
FFFFC0
00F800
01F000
07C000
0F8000
3E0000
780000
FFFE00
FFFE00
FFFC00
ENDCHAR
STARTCHAR uni01BC
ENCODING 444
SWIDTH 600 0
DWIDTH 20 0
BBX 17 21 3 0
BITMAP
07FF80
07FF80
07FF00
070000
0F0000
0E0000
0E0000
0FF000
0FFC00
1FFE00
1E1E00
000F00
000700
000F00
000E00
000E00
601E00
F07C00
FFF800
7FF000
1FC000
ENDCHAR
STARTCHAR uni01C0
ENCODING 448
SWIDTH 600 0
DWIDTH 20 0
BBX 8 26 7 -5
BITMAP
03
07
07
07
0F
0E
0E
0E
0E
1E
1C
1C
1C
3C
38
38
38
38
78
70
70
70
70
F0
E0
C0
ENDCHAR
STARTCHAR uni01C2
ENCODING 450
SWIDTH 600 0
DWIDTH 20 0
BBX 20 26 2 -3
BITMAP
000C00
001C00
001C00
001C00
003C00
003800
003800
003800
003800
1FFFF0
3FFFF0
3FFFE0
007000
00F000
00E000
7FFFC0
FFFFC0
FFFF80
01E000
01C000
01C000
01C000
01C000
03C000
038000
030000
ENDCHAR
STARTCHAR uni01C3
ENCODING 451
SWIDTH 600 0
DWIDTH 20 0
BBX 8 21 8 0
BITMAP
0E
1F
1F
1F
1E
1E
1E
1C
1C
1C
18
18
18
10
10
00
00
70
F8
F8
F0
ENDCHAR
STARTCHAR uni01CD
ENCODING 461
SWIDTH 600 0
DWIDTH 20 0
BBX 21 26 -1 0
BITMAP
00C180
00E780
007E00
003C00
001000
000000
00FF80
01FF80
01FF80
001F80
003B80
003B80
0073C0
00F1C0
00E1C0
01E1C0
01C1C0
0381C0
07FFE0
07FFE0
0FFFE0
0E00E0
1C00E0
7F83F8
FF87F8
FF07F0
ENDCHAR
STARTCHAR uni01CE
ENCODING 462
SWIDTH 600 0
DWIDTH 20 0
BBX 16 21 3 0
BITMAP
060C
073C
03F0
01E0
0080
0000
01F0
0FFC
1FFE
1E0E
000E
000E
07FE
1FFE
3FFC
781C
F01C
E07C
F7FF
FFDF
7F9E
ENDCHAR
STARTCHAR uni01CF
ENCODING 463
SWIDTH 600 0
DWIDTH 20 0
BBX 17 26 3 0
BITMAP
060C00
073C00
03F000
01E000
008000
000000
0FFF80
1FFF80
1FFF00
00F000
00E000
00E000
00E000
00E000
01E000
01C000
01C000
01C000
03C000
038000
038000
038000
038000
7FFC00
FFFC00
FFF800
ENDCHAR
STARTCHAR uni01D0
ENCODING 464
SWIDTH 600 0
DWIDTH 20 0
BBX 16 21 2 0
BITMAP
0C18
0E78
07E0
03C0
0100
0000
07F0
0FF0
0FF0
00F0
00E0
00E0
00E0
01E0
01C0
01C0
01C0
01C0
7FFF
FFFF
FFFE
ENDCHAR
STARTCHAR uni01D1
ENCODING 465
SWIDTH 600 0
DWIDTH 20 0
BBX 18 26 2 0
BITMAP
030600
039E00
01F800
00F000
004000
000000
00FC00
03FF00
0FFF80
0F0780
1E03C0
3C01C0
7801C0
7001C0
7001C0
E001C0
E001C0
E003C0
E00380
E00780
F00700
700F00
7C3E00
3FFC00
1FF000
07C000
ENDCHAR
STARTCHAR uni01D2
ENCODING 466
SWIDTH 600 0
DWIDTH 20 0
BBX 16 21 3 0
BITMAP
060C
073C
03F0
01E0
0080
0000
01F0
0FFC
1FFE
3C0F
3807
7007
7003
F007
6007
700E
700E
783C
3FFC
1FF0
07C0
ENDCHAR
STARTCHAR uni01D3
ENCODING 467
SWIDTH 600 0
DWIDTH 20 0
BBX 19 26 3 0
BITMAP
060C00
073C00
03F000
01E000
008000
000000
7F8FE0
FF9FE0
FF1FC0
3C0780
380700
380700
380700
380700
780F00
700E00
700E00
700E00
F01E00
E01C00
E01C00
703C00
78F800
7FF000
3FE000
0F8000
ENDCHAR
STARTCHAR uni01D4
ENCODING 468
SWIDTH 600 0
DWIDTH 20 0
BBX 18 21 3 0
BITMAP
060C00
073C00
03F000
01E000
008000
000000
7E1FC0
FE3FC0
FC3F80
3C0380
380700
380700
380700
780F00
700E00
700E00
701E00
787E00
7FFF80
7FEF80
3F8F00
ENDCHAR
STARTCHAR uni01D5
ENCODING 469
SWIDTH 600 0
DWIDTH 20 0
BBX 19 28 3 0
BITMAP
07FF00
07FF00
000000
01C380
03C780
038700
000000
000000
7F8FE0
FF9FE0
FF1FC0
3C0780
380700
380700
380700
380700
780F00
700E00
700E00
700E00
F01E00
E01C00
E01C00
703C00
78F800
7FF000
3FE000
0F8000
ENDCHAR
STARTCHAR uni01D6
ENCODING 470
SWIDTH 600 0
DWIDTH 20 0
BBX 17 23 3 0
BITMAP
0FFE00
0FFE00
000000
038700
078F00
070E00
000000
000000
7C1F80
FC3F80
FC3F80
3C0780
380700
380700
380700
780F00
700E00
700E00
701E00
703E00
7FFF80
7FEF80
3F8F00
ENDCHAR
STARTCHAR uni01D7
ENCODING 471
SWIDTH 600 0
DWIDTH 20 0
BBX 19 32 3 0
BITMAP
000F00
001E00
003C00
007000
00E000
01C000
000000
01C380
03C780
038700
000000
000000
7F8FE0
FF9FE0
FF1FC0
3C0780
380700
380700
380700
380700
780F00
700E00
700E00
700E00
F01E00
E01C00
E01C00
703C00
78F800
7FF000
3FE000
0F8000
ENDCHAR
STARTCHAR uni01D8
ENCODING 472
SWIDTH 600 0
DWIDTH 20 0
BBX 17 27 3 0
BITMAP
000F00
001E00
003C00
007000
00E000
01C000
000000
038700
078F00
070E00
000000
000000
7C1F80
FC3F80
FC3F80
3C0780
380700
380700
380700
780F00
700E00
700E00
701E00
703E00
7FFF80
7FEF80
3F8F00
ENDCHAR
STARTCHAR uni01D9
ENCODING 473
SWIDTH 600 0
DWIDTH 20 0
BBX 19 31 3 0
BITMAP
030600
039E00
01F800
00F000
004000
000000
01C380
03C780
038700
000000
000000
7F8FE0
FF9FE0
FF1FC0
3C0780
380700
380700
380700
380700
780F00
700E00
700E00
700E00
F01E00
E01C00
E01C00
703C00
78F800
7FF000
3FE000
0F8000
ENDCHAR
STARTCHAR uni01DA
ENCODING 474
SWIDTH 600 0
DWIDTH 20 0
BBX 17 26 3 0
BITMAP
060C00
073C00
03F000
01E000
008000
000000
038700
078F00
070E00
000000
000000
7C1F80
FC3F80
FC3F80
3C0780
380700
380700
380700
780F00
700E00
700E00
701E00
703E00
7FFF80
7FEF80
3F8F00
ENDCHAR
STARTCHAR uni01DB
ENCODING 475
SWIDTH 600 0
DWIDTH 20 0
BBX 19 31 3 0
BITMAP
078000
03C000
00E000
007000
003000
000000
01C380
03C780
038700
000000
000000
7F8FE0
FF9FE0
FF1FC0
3C0780
380700
380700
380700
380700
780F00
700E00
700E00
700E00
F01E00
E01C00
E01C00
703C00
78F800
7FF000
3FE000
0F8000
ENDCHAR
STARTCHAR uni01DC
ENCODING 476
SWIDTH 600 0
DWIDTH 20 0
BBX 17 26 3 0
BITMAP
078000
03C000
00E000
007000
003000
000000
038700
078F00
070E00
000000
000000
7C1F80
FC3F80
FC3F80
3C0780
380700
380700
380700
780F00
700E00
700E00
701E00
703E00
7FFF80
7FEF80
3F8F00
ENDCHAR
STARTCHAR uni01DD
ENCODING 477
SWIDTH 600 0
DWIDTH 20 0
BBX 17 15 3 0
BITMAP
07F800
3FFE00
7FFF00
7C0F80
000380
000380
7FFF80
FFFF80
FFFF80
F00780
700F00
781E00
3FFC00
1FF800
07E000
ENDCHAR
STARTCHAR uni01DE
ENCODING 478
SWIDTH 600 0
DWIDTH 20 0
BBX 21 28 -1 0
BITMAP
01FFC0
01FFC0
000000
003870
0078F0
0070E0
000000
000000
00FF80
01FF80
01FF80
001F80
003F80
003B80
0073C0
00F1C0
00E1C0
01E1C0
01C1C0
0381C0
07FFE0
07FFE0
0FFFE0
0E00E0
1C00E0
7F83F8
FF87F8
FF07F0
ENDCHAR
STARTCHAR uni01DF
ENCODING 479
SWIDTH 600 0
DWIDTH 20 0
BBX 16 23 3 0
BITMAP
0FFE
0FFE
0000
0387
078F
070E
0000
0000
01F0
0FFC
1FFE
1E0E
000E
000E
07FE
1FFE
3FFC
781C
F01C
E07C
F7FF
FFDF
7F9E
ENDCHAR
STARTCHAR uni01E0
ENCODING 480
SWIDTH 600 0
DWIDTH 20 0
BBX 21 27 -1 0
BITMAP
03FF80
03FF80
000000
001C00
003C00
003800
000000
00FF80
01FF80
01FF80
001F80
003B80
003B80
0073C0
00F1C0
00E1C0
01E1C0
01C1C0
0381C0
07FFE0
07FFE0
0FFFE0
0E00E0
1C00E0
7F83F8
FF87F8
FF07F0
ENDCHAR
STARTCHAR uni01E1
ENCODING 481
SWIDTH 600 0
DWIDTH 20 0
BBX 16 22 3 0
BITMAP
1FFC
1FFC
0000
00E0
01E0
01C0
0000
01F0
0FFC
1FFE
1E0E
000E
000E
07FE
1FFE
3FFC
781C
F01C
E07C
F7FF
FFDF
7F9E
ENDCHAR
STARTCHAR uni01E2
ENCODING 482
SWIDTH 600 0
DWIDTH 20 0
BBX 24 23 0 0
BITMAP
007FF0
007FF0
000000
00FFFF
01FFFF
01FFFE
00670E
00EE0E
01CE0C
01CEC0
018EC0
039CC0
071FC0
071FC0
0E1CC0
0FFCC0
0FFC00
1C381C
3C3838
383838
7E7FF8
FEFFF0
FCFFF0
ENDCHAR
STARTCHAR uni01E3
ENCODING 483
SWIDTH 600 0
DWIDTH 20 0
BBX 22 18 0 0
BITMAP
03FF80
03FF80
000000
03E1E0
07F7F0
0FFFF8
0E3E38
003C3C
003C1C
1FFFFC
3FFFFC
7C7FFC
F07000
E07800
F0F8F8
7FFFF8
7F7FF0
1E6F80
ENDCHAR
STARTCHAR uni01E4
ENCODING 484
SWIDTH 600 0
DWIDTH 20 0
BBX 25 20 3 0
BITMAP
00FC6000
03FFE000
0FFFC000
1F03C000
3C01C000
7801C000
70018000
F0000000
E0000000
E0000000
E0000000
E07FC000
E0FFC000
E0FFFF80
E0FFFF80
F0FFFF80
781F0000
7FFF0000
3FFE0000
0FF00000
ENDCHAR
STARTCHAR uni01E5
ENCODING 485
SWIDTH 600 0
DWIDTH 20 0
BBX 19 22 3 -7
BITMAP
07E1E0
1FFBE0
3FFFC0
7C1F80
700F00
F00F00
E00F00
E00F00
E00E00
E01E00
E01E00
F87E00
7FFE00
3FDC00
0F9C00
FFFFE0
FFFFE0
FFFFE0
00F800
7FF000
FFE000
FF8000
ENDCHAR
STARTCHAR Gcaron
ENCODING 486
SWIDTH 600 0
DWIDTH 20 0
BBX 19 26 3 0
BITMAP
030600
039E00
01F800
00F000
004000
000000
00FC60
03FFE0
0FFFC0
1F03C0
3C01C0
7801C0
700180
F00000
E00000
E00000
E00000
E07FC0
E0FFC0
E0FF80
E00700
F00700
781F00
7FFF00
3FFE00
0FF000
ENDCHAR
STARTCHAR gcaron
ENCODING 487
SWIDTH 600 0
DWIDTH 20 0
BBX 19 28 3 -7
BITMAP
030600
039E00
01F800
00F000
004000
000000
07E1E0
1FFBE0
3FFFC0
7C1F80
700F00
F00F00
E00F00
E00F00
E00E00
E01E00
E01E00
F87E00
7FFE00
3FDC00
0F9C00
001C00
003C00
003800
00F800
7FF000
FFE000
FF8000
ENDCHAR
STARTCHAR uni01E8
ENCODING 488
SWIDTH 600 0
DWIDTH 20 0
BBX 22 26 1 0
BITMAP
00C180
00E780
007E00
003C00
001000
000000
0FF1FC
1FF3FC
1FE3F8
0781E0
0703C0
070780
071F00
077C00
0FF000
0FF800
0FFC00
0F3C00
1E1E00
1C0E00
1C0E00
1C0700
1C0700
7F87E0
FF87E0
FF07C0
ENDCHAR
STARTCHAR uni01E9
ENCODING 489
SWIDTH 600 0
DWIDTH 20 0
BBX 18 27 2 0
BITMAP
183000
1CF000
0FC000
078000
020000
000000
0FC000
1FC000
1F8000
038000
078000
070000
071FC0
073FC0
071F80
0F3C00
0E7800
0FF000
0FC000
1FC000
1FE000
1CF000
1C7800
1C3C00
FC3F80
FC7F80
F87F00
ENDCHAR
STARTCHAR uni01EA
ENCODING 490
SWIDTH 600 0
DWIDTH 20 0
BBX 18 26 2 -6
BITMAP
00FC00
03FF00
0FFF80
0F0780
1E03C0
3C01C0
7801C0
7001C0
7001C0
E001C0
E001C0
E003C0
E00380
E00780
F00700
700F00
7C3E00
3FFC00
1FF000
07C000
038000
070000
070000
07E000
07E000
038000
ENDCHAR
STARTCHAR uni01EB
ENCODING 491
SWIDTH 600 0
DWIDTH 20 0
BBX 16 21 3 -6
BITMAP
01F0
0FFC
1FFE
3C0F
3807
7007
7003
F007
6007
700E
700E
783C
3FFC
1FF0
07C0
0380
0700
0700
07E0
07E0
0380
ENDCHAR
STARTCHAR uni01EC
ENCODING 492
SWIDTH 600 0
DWIDTH 20 0
BBX 18 29 2 -6
BITMAP
0FFE00
0FFE00
000000
00FC00
03FF00
0FFF80
0F0780
1E03C0
3C01C0
7801C0
7001C0
7001C0
E001C0
E001C0
E003C0
E00380
E00780
F00700
700F00
7C3E00
3FFC00
1FF000
07C000
038000
070000
070000
07E000
07E000
038000
ENDCHAR
STARTCHAR uni01ED
ENCODING 493
SWIDTH 600 0
DWIDTH 20 0
BBX 16 24 3 -6
BITMAP
1FFC
1FFC
0000
01F0
0FFC
1FFE
3C0F
3807
7007
7003
F007
6007
700E
700E
783C
3FFC
1FF0
07C0
0380
0700
0700
07E0
07E0
0380
ENDCHAR
STARTCHAR uni01F0
ENCODING 496
SWIDTH 600 0
DWIDTH 20 0
BBX 16 28 1 -7
BITMAP
0306
039E
01F8
00F0
0040
0000
07FF
0FFF
0FFF
000F
000E
000E
000E
001E
001C
001C
001C
001C
003C
0038
0038
0038
0078
0070
00F0
7FE0
FFC0
FF00
ENDCHAR
STARTCHAR uni01F4
ENCODING 500
SWIDTH 600 0
DWIDTH 20 0
BBX 19 27 3 0
BITMAP
000780
000F00
001E00
003800
007000
00E000
000000
00FC60
03FFE0
0FFFC0
1F03C0
3C01C0
7801C0
700180
F00000
E00000
E00000
E00000
E07FC0
E0FFC0
E0FF80
E00700
F00700
781F00
7FFF00
3FFE00
0FF000
ENDCHAR
STARTCHAR uni01F5
ENCODING 501
SWIDTH 600 0
DWIDTH 20 0
BBX 19 29 3 -7
BITMAP
000F00
001E00
003C00
007000
00E000
01C000
000000
07E1E0
1FFBE0
3FFFC0
7C1F80
700F00
F00F00
E00F00
E00F00
E00E00
E01E00
E01E00
F87E00
7FFE00
3FDC00
0F9C00
001C00
003C00
003800
00F800
7FF000
FFE000
FF8000
ENDCHAR
STARTCHAR uni01F8
ENCODING 504
SWIDTH 600 0
DWIDTH 20 0
BBX 22 26 1 0
BITMAP
01E000
00F000
003800
001C00
000C00
000000
0F81FC
1FC3FC
1FC3F8
07C0F0
07E0E0
07E0E0
07F0E0
0770E0
0F71E0
0E79C0
0E39C0
0E39C0
1E3DC0
1C1D80
1C1F80
1C1F80
1C0F80
7F8F80
FF8700
FF0700
ENDCHAR
STARTCHAR uni01F9
ENCODING 505
SWIDTH 600 0
DWIDTH 20 0
BBX 19 21 1 0
BITMAP
078000
03C000
00E000
007000
003000
000000
1E3E00
3E7F80
3FFFC0
0F83C0
0F01C0
0E01C0
0E01C0
1E03C0
1C0380
1C0380
1C0380
1C0380
7F0FE0
FF1FE0
FE1FC0
ENDCHAR
STARTCHAR Aringacute
ENCODING 506
SWIDTH 600 0
DWIDTH 20 0
BBX 21 33 -1 0
BITMAP
0001E0
0003C0
000780
000E00
001C00
003800
000000
000F00
001880
001080
001180
000F00
000000
00FF80
01FF80
01FF80
001F80
003F80
003B80
0073C0
00F1C0
00E1C0
01E1C0
01C1C0
0381C0
07FFE0
07FFE0
0FFFE0
0E00E0
1C00E0
7F83F8
FF87F8
FF07F0
ENDCHAR
STARTCHAR aringacute
ENCODING 507
SWIDTH 600 0
DWIDTH 20 0
BBX 16 28 3 0
BITMAP
000F
001E
003C
0070
00E0
01C0
0000
0078
00C4
0084
008C
0078
0000
01F0
0FFC
1FFE
1E0E
000E
000E
07FE
1FFE
3FFC
781C
F01C
E07C
F7FF
FFDF
7F9E
ENDCHAR
STARTCHAR AEacute
ENCODING 508
SWIDTH 600 0
DWIDTH 20 0
BBX 24 27 0 0
BITMAP
0000F0
0001E0
0003C0
000700
000E00
001C00
000000
00FFFF
01FFFF
01FFFE
00670E
00EE0E
01CE0C
01CEC0
018EC0
039CC0
071FC0
071FC0
0E1CC0
0FFCC0
0FFC00
1C381C
3C3838
383838
7E7FF8
FEFFF0
FCFFF0
ENDCHAR
STARTCHAR aeacute
ENCODING 509
SWIDTH 600 0
DWIDTH 20 0
BBX 22 22 0 0
BITMAP
0003C0
000780
000F00
001C00
003800
007000
000000
03E1E0
07F7F0
0FFFF8
0E3E38
003C3C
003C1C
1FFFFC
3FFFFC
7C7FFC
F07000
E07800
F0F8F8
7FFFF8
7F7FF0
1E6F80
ENDCHAR
STARTCHAR Oslashacute
ENCODING 510
SWIDTH 600 0
DWIDTH 20 0
BBX 23 30 1 -2
BITMAP
0000F0
0001E0
0003C0
000700
000E00
001C00
000000
00000E
003F1E
00FFBC
01FFF8
03E1F0
0781F0
0F03F0
1E07F0
1C0F70
1C1E70
383C70
387870
38F070
39E0E0
3BC0E0
3F81C0
3F03C0
1E0F80
3FFF00
7FFC00
F3F800
E00000
C00000
ENDCHAR
STARTCHAR oslashacute
ENCODING 511
SWIDTH 600 0
DWIDTH 20 0
BBX 21 25 1 -2
BITMAP
0003C0
000780
000F00
001C00
003800
007000
000000
000018
007C38
01FF78
07FFF0
0FC3E0
1E07C0
1C1FE0
383EE0
787860
78F0E0
33E0E0
37C1C0
3E07C0
3FFF80
7FFF00
FBF800
E00000
C00000
ENDCHAR
STARTCHAR Scommaaccent
ENCODING 536
SWIDTH 600 0
DWIDTH 20 0
BBX 19 29 2 -9
BITMAP
00FC00
03FF60
07FFE0
0F03E0
0E01C0
0E01C0
0E0180
0F0000
0FC000
07F800
03FE00
007F00
000F80
000380
700380
700380
7C0700
FFFF00
FFFE00
C7F800
000000
00F000
01E000
01C000
03C000
038000
070000
0E0000
0C0000
ENDCHAR
STARTCHAR scommaaccent
ENCODING 537
SWIDTH 600 0
DWIDTH 20 0
BBX 17 24 3 -9
BITMAP
01F980
07FF80
0FFF00
1E0F00
1C0600
1E0000
1FF000
0FFC00
01FE00
301E00
700E00
781E00
FFFC00
FFF800
CFE000
000000
01E000
03C000
038000
078000
070000
0E0000
1C0000
180000
ENDCHAR
STARTCHAR Tcommaaccent
ENCODING 538
SWIDTH 600 0
DWIDTH 20 0
BBX 18 29 4 -9
BITMAP
3FFFC0
3FFFC0
7FFF80
71E380
71C380
71C380
E1C700
E1C700
E3C700
038000
038000
038000
078000
070000
070000
070000
070000
7FF000
FFF000
FFE000
000000
03C000
078000
070000
0F0000
0E0000
1C0000
380000
300000
ENDCHAR
STARTCHAR tcommaaccent
ENCODING 539
SWIDTH 600 0
DWIDTH 20 0
BBX 15 29 4 -9
BITMAP
0380
0780
0700
0F00
0E00
7FFC
FFFC
FFF8
1E00
1C00
1C00
1C00
3C00
3800
3800
380C
3C3E
3FFC
1FF8
0FC0
0000
01E0
03C0
0380
0780
0700
0E00
1C00
1800
ENDCHAR
STARTCHAR uni021E
ENCODING 542
SWIDTH 600 0
DWIDTH 20 0
BBX 22 26 0 0
BITMAP
00C180
00E780
007E00
003C00
001000
000000
0FF1FC
1FF3FC
1FE3F8
0780F0
0700E0
0700E0
0700E0
0700E0
0FFFE0
0FFFC0
0FFFC0
0E01C0
1E03C0
1C0380
1C0380
1C0380
1C0380
7F1FE0
FF3FE0
FE3FC0
ENDCHAR
STARTCHAR uni021F
ENCODING 543
SWIDTH 600 0
DWIDTH 20 0
BBX 19 27 1 0
BITMAP
0C1800
0E7800
07E000
03C000
010000
000000
0FC000
1FC000
1F8000
038000
078000
070000
071E00
077F80
07FFC0
0F83C0
0F01C0
0E01C0
0E01C0
1E03C0
1C0380
1C0380
1C0380
1C0380
7F0FE0
FF1FE0
FE1FC0
ENDCHAR
STARTCHAR uni0226
ENCODING 550
SWIDTH 600 0
DWIDTH 20 0
BBX 21 24 -1 0
BITMAP
001C00
003C00
003800
000000
00FF80
01FF80
01FF80
001F80
003B80
003B80
0073C0
00F1C0
00E1C0
01E1C0
01C1C0
0381C0
07FFE0
07FFE0
0FFFE0
0E00E0
1C00E0
7F83F8
FF87F8
FF07F0
ENDCHAR
STARTCHAR uni0227
ENCODING 551
SWIDTH 600 0
DWIDTH 20 0
BBX 16 19 3 0
BITMAP
00E0
01E0
01C0
0000
01F0
0FFC
1FFE
1E0E
000E
000E
07FE
1FFE
3FFC
781C
F01C
E07C
F7FF
FFDF
7F9E
ENDCHAR
STARTCHAR uni0228
ENCODING 552
SWIDTH 600 0
DWIDTH 20 0
BBX 21 26 1 -6
BITMAP
0FFFF8
1FFFF8
1FFFF0
078070
070070
070070
070E60
070E00
0FFE00
0FFC00
0FFC00
0E1C00
1E1C00
1C1CE0
1C01C0
1C01C0
1C01C0
7FFFC0
FFFF80
FFFF80
007000
006000
00E000
067000
07E000
03C000
ENDCHAR
STARTCHAR uni0229
ENCODING 553
SWIDTH 600 0
DWIDTH 20 0
BBX 17 21 3 -6
BITMAP
03F000
0FFC00
1FFE00
3C0F00
780700
F00780
FFFF80
FFFF80
FFFF00
E00000
E00000
F81F00
7FFF00
3FFE00
0FF000
00E000
00C000
01C000
0CE000
0FC000
078000
ENDCHAR
STARTCHAR uni022A
ENCODING 554
SWIDTH 600 0
DWIDTH 20 0
BBX 18 27 2 0
BITMAP
07FF00
07FF00
000000
00E1C0
01E3C0
01C380
000000
00FC00
03FF00
0FFF80
0F0780
1E03C0
3C01C0
7801C0
7001C0
7001C0
E001C0
E001C0
E003C0
E00380
E00780
F00700
700F00
7C3E00
3FFC00
1FF000
07C000
ENDCHAR
STARTCHAR uni022B
ENCODING 555
SWIDTH 600 0
DWIDTH 20 0
BBX 15 23 4 0
BITMAP
1FFC
1FFC
0000
0E1C
1E3C
1C38
0000
0000
03E0
1FF8
3FFC
781E
700E
E00E
E006
E00E
C00E
E01C
E01C
F078
7FF8
3FE0
0F80
ENDCHAR
STARTCHAR uni022C
ENCODING 556
SWIDTH 600 0
DWIDTH 20 0
BBX 18 27 2 0
BITMAP
07FF00
07FF00
000000
01F180
03FF80
031F00
000000
00FC00
03FF00
0FFF80
0F0780
1E03C0
3C01C0
7801C0
7001C0
7001C0
E001C0
E001C0
E003C0
E00380
E00780
F00700
700F00
7C3E00
3FFC00
1FF000
07C000
ENDCHAR
STARTCHAR uni022D
ENCODING 557
SWIDTH 600 0
DWIDTH 20 0
BBX 15 23 4 0
BITMAP
1FFC
1FFC
0000
0F8C
1FFC
18F8
0000
0000
03E0
1FF8
3FFC
781E
700E
E00E
E006
E00E
C00E
E01C
E01C
F078
7FF8
3FE0
0F80
ENDCHAR
STARTCHAR uni022E
ENCODING 558
SWIDTH 600 0
DWIDTH 20 0
BBX 18 24 2 0
BITMAP
007000
00F000
00E000
000000
00FC00
03FF00
0FFF80
0F0780
1E03C0
3C01C0
7801C0
7001C0
7001C0
E001C0
E001C0
E003C0
E00380
E00780
F00700
700F00
7C3E00
3FFC00
1FF000
07C000
ENDCHAR
STARTCHAR uni022F
ENCODING 559
SWIDTH 600 0
DWIDTH 20 0
BBX 16 19 3 0
BITMAP
00E0
01E0
01C0
0000
01F0
0FFC
1FFE
3C0F
3807
7007
7003
F007
6007
700E
700E
783C
3FFC
1FF0
07C0
ENDCHAR
STARTCHAR uni0230
ENCODING 560
SWIDTH 600 0
DWIDTH 20 0
BBX 18 27 2 0
BITMAP
07FF00
07FF00
000000
007000
00F000
00E000
000000
00FC00
03FF00
0FFF80
0F0780
1E03C0
3C01C0
7801C0
7001C0
7001C0
E001C0
E001C0
E003C0
E00380
E00780
F00700
700F00
7C3E00
3FFC00
1FF000
07C000
ENDCHAR
STARTCHAR uni0231
ENCODING 561
SWIDTH 600 0
DWIDTH 20 0
BBX 16 22 3 0
BITMAP
1FFC
1FFC
0000
00E0
01E0
01C0
0000
01F0
0FFC
1FFE
3C0F
3807
7007
7003
F007
6007
700E
700E
783C
3FFC
1FF0
07C0
ENDCHAR
STARTCHAR uni0232
ENCODING 562
SWIDTH 600 0
DWIDTH 20 0
BBX 19 23 4 0
BITMAP
0FFE00
0FFE00
000000
7E0FE0
FE1FE0
FC1FC0
3C0F00
1C1E00
1E3C00
0E3800
0F7000
077000
07E000
07C000
038000
038000
038000
070000
070000
070000
7FF000
FFF000
FFE000
ENDCHAR
STARTCHAR uni0233
ENCODING 563
SWIDTH 600 0
DWIDTH 20 0
BBX 23 25 -1 -7
BITMAP
01FFC0
01FFC0
000000
07E0FE
0FE1FE
0FC1FC
038078
0380F0
0381E0
01C1C0
01C380
01C780
01E700
00EE00
00FE00
00FC00
00F800
007000
00F000
00E000
01C000
038000
7FF000
FFF000
FFE000
ENDCHAR
STARTCHAR uni0250
ENCODING 592
SWIDTH 600 0
DWIDTH 20 0
BBX 16 15 3 0
BITMAP
79FE
FBFF
FFEF
3E07
380F
381E
3FFC
7FF8
7FE0
7000
7000
7078
7FF8
3FF0
0F80
ENDCHAR
STARTCHAR uni0259
ENCODING 601
SWIDTH 600 0
DWIDTH 20 0
BBX 17 15 3 0
BITMAP
07F800
3FFE00
7FFF00
7C0F80
000380
000380
7FFF80
FFFF80
FFFF80
F00780
700F00
781E00
3FFC00
1FF800
07E000
ENDCHAR
STARTCHAR uni025F
ENCODING 607
SWIDTH 600 0
DWIDTH 20 0
BBX 20 21 4 -6
BITMAP
01FFF0
03FFF0
03FFE0
000E00
000E00
000E00
000E00
001E00
001C00
001C00
001C00
003C00
07FF80
0FFF80
0FFF00
003800
003800
007000
7FF000
FFE000
FF8000
ENDCHAR
STARTCHAR uni0265
ENCODING 613
SWIDTH 600 0
DWIDTH 20 0
BBX 19 21 1 -6
BITMAP
7F0FE0
FF1FE0
FE1FC0
380700
380700
380700
380700
780F00
700E00
700E00
701E00
783E00
7FFC00
3FDC00
0F1C00
001C00
003C00
003800
003F00
007F00
007E00
ENDCHAR
STARTCHAR uni0275
ENCODING 629
SWIDTH 600 0
DWIDTH 20 0
BBX 16 15 3 0
BITMAP
01F0
0FFC
1FFE
3C0F
3807
7007
FFFF
FFFF
FFFF
700E
700E
783C
3FFC
1FF0
07C0
ENDCHAR
STARTCHAR uni0279
ENCODING 633
SWIDTH 600 0
DWIDTH 20 0
BBX 19 15 2 0
BITMAP
03FFE0
07FFE0
07FFC0
001C00
001C00
001C00
001C00
003C00
003800
007800
00F800
61F800
FFBF00
FF7F00
7C7E00
ENDCHAR
STARTCHAR uni0287
ENCODING 647
SWIDTH 600 0
DWIDTH 20 0
BBX 15 20 4 0
BITMAP
07E0
3FF0
7FF8
F878
6038
0038
0038
0078
0070
0070
0070
00F0
3FFE
7FFE
7FFC
00E0
01E0
01C0
03C0
0380
ENDCHAR
STARTCHAR uni0289
ENCODING 649
SWIDTH 600 0
DWIDTH 20 0
BBX 18 15 3 0
BITMAP
7E1FC0
FE3FC0
FC3F80
3C0380
380700
380700
FFFFC0
FFFFC0
FFFFC0
700E00
701E00
787E00
7FFF80
7FEF80
3F8F00
ENDCHAR
STARTCHAR uni028C
ENCODING 652
SWIDTH 600 0
DWIDTH 20 0
BBX 19 15 3 0
BITMAP
001C00
003C00
007E00
00FE00
00EE00
01CE00
03C700
038700
070700
0F0700
0E0380
1C0380
7F0FE0
FF1FE0
FE1FC0
ENDCHAR
STARTCHAR uni028D
ENCODING 653
SWIDTH 600 0
DWIDTH 20 0
BBX 20 15 2 0
BITMAP
01C1C0
01C3C0
03C3C0
03E7C0
07E7C0
06EFC0
06FDC0
0EFDC0
0CF9C0
1C71C0
1C71C0
3861C0
7E07F0
FE0FF0
FC0FE0
ENDCHAR
STARTCHAR uni028E
ENCODING 654
SWIDTH 600 0
DWIDTH 20 0
BBX 23 22 -1 0
BITMAP
000FFE
001FFE
001FFC
000380
000700
000E00
001E00
001C00
003E00
007E00
00FE00
00EE00
01CF00
03C700
038700
070700
0F0380
1E0380
3C0380
7F07E0
FF0FE0
FE0FC0
ENDCHAR
STARTCHAR uni029E
ENCODING 670
SWIDTH 600 0
DWIDTH 20 0
BBX 18 21 2 -6
BITMAP
3F87C0
7F8FC0
7F0FC0
0F0E00
078E00
03CE00
01FE00
00FE00
00FC00
03FC00
079C00
0F3C00
7E3800
FF3800
FE3800
003800
007800
007000
007E00
00FE00
00FC00
ENDCHAR
STARTCHAR uni02BB
ENCODING 699
SWIDTH 600 0
DWIDTH 20 0
BBX 9 9 7 11
BITMAP
F800
7800
3C00
1C00
0E00
0E00
0700
0380
0180
ENDCHAR
STARTCHAR afii57929
ENCODING 700
SWIDTH 600 0
DWIDTH 20 0
BBX 9 9 7 11
BITMAP
0F80
0F00
1E00
1C00
3800
3800
7000
E000
C000
ENDCHAR
STARTCHAR afii64937
ENCODING 701
SWIDTH 600 0
DWIDTH 20 0
BBX 9 9 7 11
BITMAP
F800
7800
3C00
1C00
0E00
0E00
0700
0380
0180
ENDCHAR
STARTCHAR circumflex
ENCODING 710
SWIDTH 600 0
DWIDTH 20 0
BBX 10 5 8 17
BITMAP
0400
0E00
3F00
73C0
E0C0
ENDCHAR
STARTCHAR caron
ENCODING 711
SWIDTH 600 0
DWIDTH 20 0
BBX 9 5 9 17
BITMAP
C180
E780
7E00
3C00
1000
ENDCHAR
STARTCHAR uni02C8
ENCODING 712
SWIDTH 600 0
DWIDTH 20 0
BBX 5 9 11 11
BITMAP
78
78
F0
F0
E0
E0
E0
C0
C0
ENDCHAR
STARTCHAR macron
ENCODING 713
SWIDTH 600 0
DWIDTH 20 0
BBX 11 2 6 17
BITMAP
FFE0
FFE0
ENDCHAR
STARTCHAR uni02CA
ENCODING 714
SWIDTH 600 0
DWIDTH 20 0
BBX 9 6 10 15
BITMAP
0780
0F00
1E00
3800
7000
E000
ENDCHAR
STARTCHAR uni02CB
ENCODING 715
SWIDTH 600 0
DWIDTH 20 0
BBX 7 5 7 16
BITMAP
F0
78
1C
0E
06
ENDCHAR
STARTCHAR uni02CD
ENCODING 717
SWIDTH 600 0
DWIDTH 20 0
BBX 11 2 6 -3
BITMAP
FFE0
FFE0
ENDCHAR
STARTCHAR uni02CE
ENCODING 718
SWIDTH 600 0
DWIDTH 20 0
BBX 7 5 7 -6
BITMAP
F0
78
1C
0E
06
ENDCHAR
STARTCHAR uni02CF
ENCODING 719
SWIDTH 600 0
DWIDTH 20 0
BBX 9 6 10 -7
BITMAP
0780
0F00
1E00
3800
7000
E000
ENDCHAR
STARTCHAR breve
ENCODING 728
SWIDTH 600 0
DWIDTH 20 0
BBX 11 5 9 17
BITMAP
C0E0
C0E0
F1C0
7F80
1E00
ENDCHAR
STARTCHAR dotaccent
ENCODING 729
SWIDTH 600 0
DWIDTH 20 0
BBX 4 3 12 17
BITMAP
70
F0
E0
ENDCHAR
STARTCHAR ring
ENCODING 730
SWIDTH 600 0
DWIDTH 20 0
BBX 6 5 11 16
BITMAP
78
C4
84
8C
78
ENDCHAR
STARTCHAR ogonek
ENCODING 731
SWIDTH 600 0
DWIDTH 20 0
BBX 6 8 8 -6
BITMAP
18
38
70
E0
E0
FC
FC
70
ENDCHAR
STARTCHAR tilde
ENCODING 732
SWIDTH 600 0
DWIDTH 20 0
BBX 11 3 8 17
BITMAP
7C60
FFE0
C7C0
ENDCHAR
STARTCHAR hungarumlaut
ENCODING 733
SWIDTH 600 0
DWIDTH 20 0
BBX 13 5 7 16
BITMAP
1E78
3CF0
79E0
E380
C300
ENDCHAR
STARTCHAR uni02EE
ENCODING 750
SWIDTH 600 0
DWIDTH 20 0
BBX 15 8 6 12
BITMAP
0F1E
0F1E
1E3C
3C78
3870
70E0
E1C0
C180
ENDCHAR
STARTCHAR uni037E
ENCODING 894
SWIDTH 600 0
DWIDTH 20 0
BBX 12 20 2 -5
BITMAP
00F0
01F0
01F0
01E0
0000
0000
0000
0000
0000
0000
0000
07C0
0F80
0F00
1E00
3C00
3800
7000
E000
4000
ENDCHAR
STARTCHAR tonos
ENCODING 900
SWIDTH 600 0
DWIDTH 20 0
BBX 9 6 10 15
BITMAP
0780
0F00
1E00
3800
7000
E000
ENDCHAR
STARTCHAR dieresistonos
ENCODING 901
SWIDTH 600 0
DWIDTH 20 0
BBX 12 10 9 17
BITMAP
00F0
01E0
03C0
0700
0E00
1C00
0000
70E0
F1E0
E1C0
ENDCHAR
STARTCHAR anoteleia
ENCODING 903
SWIDTH 600 0
DWIDTH 20 0
BBX 5 4 9 8
BITMAP
78
F8
F8
F0
ENDCHAR
STARTCHAR mu
ENCODING 956
SWIDTH 600 0
DWIDTH 20 0
BBX 18 22 2 -7
BITMAP
3E0FC0
7E1FC0
7E1FC0
1E03C0
1C0380
1C0380
1C0380
3C0780
380700
380700
380700
381F00
7FFF80
7FFF80
7FEF00
720000
700000
F00000
E00000
E00000
E00000
C00000
ENDCHAR
STARTCHAR uni1E00
ENCODING 7680
SWIDTH 600 0
DWIDTH 20 0
BBX 21 26 -1 -6
BITMAP
00FF80
01FF80
01FF80
001F80
003B80
003B80
0073C0
00F1C0
00E1C0
01E1C0
01C1C0
0381C0
07FFE0
07FFE0
0FFFE0
0E00E0
1C00E0
7F83F8
FF87F8
FF07F0
000000
007800
00C400
008400
008C00
007800
ENDCHAR
STARTCHAR uni1E01
ENCODING 7681
SWIDTH 600 0
DWIDTH 20 0
BBX 16 21 3 -6
BITMAP
01F0
0FFC
1FFE
1E0E
000E
000E
07FE
1FFE
3FFC
781C
F01C
E07C
F7FF
FFDF
7F9E
0000
03C0
0620
0420
0460
03C0
ENDCHAR
STARTCHAR uni1E02
ENCODING 7682
SWIDTH 600 0
DWIDTH 20 0
BBX 19 24 0 0
BITMAP
003800
007800
007000
000000
0FFF80
1FFFC0
1FFFE0
0781E0
0700E0
0700E0
0700E0
0701E0
0FFFC0
0FFF00
0FFFC0
0E03E0
1E01E0
1C00E0
1C00E0
1C01E0
1C03E0
7FFFC0
FFFF80
FFFE00
ENDCHAR
STARTCHAR uni1E03
ENCODING 7683
SWIDTH 600 0
DWIDTH 20 0
BBX 19 25 1 0
BITMAP
01C000
03C000
038000
000000
0FC000
1FC000
1F8000
038000
078000
070000
071F00
077FC0
07FFC0
0FC1E0
0F00E0
0E00E0
0E00E0
1E00E0
1E01E0
1E01E0
1C03C0
3E0780
7FFF00
FBFE00
F9F800
ENDCHAR
STARTCHAR uni1E04
ENCODING 7684
SWIDTH 600 0
DWIDTH 20 0
BBX 19 24 0 -4
BITMAP
0FFF80
1FFFC0
1FFFE0
0781E0
0700E0
0700E0
0700E0
0701E0
0FFFC0
0FFF00
0FFFC0
0E03E0
1E01E0
1C00E0
1C00E0
1C01E0
1C03E0
7FFFC0
FFFF80
FFFE00
000000
00E000
01E000
01C000
ENDCHAR
STARTCHAR uni1E05
ENCODING 7685
SWIDTH 600 0
DWIDTH 20 0
BBX 19 25 1 -4
BITMAP
0FC000
1FC000
1F8000
038000
078000
070000
071F00
077FC0
07FFC0
0FC1E0
0F00E0
0E00E0
0E00E0
1E00E0
1E01E0
1E01E0
1C03C0
3E0780
7FFF00
FBFE00
F9F800
000000
00E000
01E000
01C000
ENDCHAR
STARTCHAR uni1E06
ENCODING 7686
SWIDTH 600 0
DWIDTH 20 0
BBX 19 23 0 -3
BITMAP
0FFF80
1FFFC0
1FFFE0
0781E0
0700E0
0700E0
0700E0
0701E0
0FFFC0
0FFF00
0FFFC0
0E03E0
1E01E0
1C00E0
1C00E0
1C01E0
1C03E0
7FFFC0
FFFF80
FFFE00
000000
0FFE00
0FFE00
ENDCHAR
STARTCHAR uni1E07
ENCODING 7687
SWIDTH 600 0
DWIDTH 20 0
BBX 19 24 1 -3
BITMAP
0FC000
1FC000
1F8000
038000
078000
070000
071F00
077FC0
07FFC0
0FC1E0
0F00E0
0E00E0
0E00E0
1E00E0
1E01E0
1E01E0
1C03C0
3E0780
7FFF00
FBFE00
F9F800
000000
1FFC00
1FFC00
ENDCHAR
STARTCHAR uni1E08
ENCODING 7688
SWIDTH 600 0
DWIDTH 20 0
BBX 19 33 3 -6
BITMAP
000780
000F00
001E00
003800
007000
00E000
000000
00FC60
03FFE0
0FFFE0
1F87C0
1E01C0
3801C0
780180
700000
F00000
E00000
E00000
E00000
E00000
E00000
E00000
F00700
781F00
7FFE00
1FFC00
07F000
038000
030000
070000
338000
3F0000
1E0000
ENDCHAR
STARTCHAR uni1E09
ENCODING 7689
SWIDTH 600 0
DWIDTH 20 0
BBX 18 28 3 -6
BITMAP
000F00
001E00
003C00
007000
00E000
01C000
000000
01FCC0
0FFFC0
1FFFC0
3C07C0
780380
700380
F00300
E00000
E00000
E00000
F00380
780780
7FFF00
3FFE00
0FF000
01C000
018000
038000
19C000
1F8000
0F0000
ENDCHAR
STARTCHAR uni1E0A
ENCODING 7690
SWIDTH 600 0
DWIDTH 20 0
BBX 19 24 1 0
BITMAP
003800
007800
007000
000000
0FFE00
1FFF80
1FFFC0
0783E0
0701E0
0700E0
0700E0
0700E0
0F00E0
0E00E0
0E00E0
0E00E0
1E01C0
1C01C0
1C03C0
1C0780
1C0F00
7FFE00
FFFC00
FFF000
ENDCHAR
STARTCHAR uni1E0B
ENCODING 7691
SWIDTH 600 0
DWIDTH 20 0
BBX 19 25 3 0
BITMAP
000700
000F00
000E00
000000
0007E0
000FE0
000FC0
0001C0
0003C0
000380
03E380
0FFB80
1FFB80
3E1F80
780F00
700F00
E00700
E00F00
E00E00
E00E00
F01E00
F87C00
7FFF80
3FFF80
0F9F00
ENDCHAR
STARTCHAR uni1E0C
ENCODING 7692
SWIDTH 600 0
DWIDTH 20 0
BBX 19 24 1 -4
BITMAP
0FFE00
1FFF80
1FFFC0
0783E0
0701E0
0700E0
0700E0
0700E0
0F00E0
0E00E0
0E00E0
0E00E0
1E01C0
1C01C0
1C03C0
1C0780
1C0F00
7FFE00
FFFC00
FFF000
000000
01C000
03C000
038000
ENDCHAR
STARTCHAR uni1E0D
ENCODING 7693
SWIDTH 600 0
DWIDTH 20 0
BBX 19 25 3 -4
BITMAP
0007E0
000FE0
000FC0
0001C0
0003C0
000380
03E380
0FFB80
1FFB80
3E1F80
780F00
700F00
E00700
E00F00
E00E00
E00E00
F01E00
F87C00
7FFF80
3FFF80
0F9F00
000000
00E000
01E000
01C000
ENDCHAR
STARTCHAR uni1E0E
ENCODING 7694
SWIDTH 600 0
DWIDTH 20 0
BBX 19 23 1 -3
BITMAP
0FFE00
1FFF80
1FFFC0
0783E0
0701E0
0700E0
0700E0
0700E0
0F00E0
0E00E0
0E00E0
0E00E0
1E01C0
1C01C0
1C03C0
1C0780
1C0F00
7FFE00
FFFC00
FFF000
000000
1FFC00
1FFC00
ENDCHAR
STARTCHAR uni1E0F
ENCODING 7695
SWIDTH 600 0
DWIDTH 20 0
BBX 19 24 3 -3
BITMAP
0007E0
000FE0
000FC0
0001C0
0003C0
000380
03E380
0FFB80
1FFB80
3E1F80
780F00
700F00
E00700
E00F00
E00E00
E00E00
F01E00
F87C00
7FFF80
3FFF80
0F9F00
000000
1FFC00
1FFC00
ENDCHAR
STARTCHAR uni1E10
ENCODING 7696
SWIDTH 600 0
DWIDTH 20 0
BBX 19 26 1 -6
BITMAP
0FFE00
1FFF80
1FFFC0
0783E0
0701E0
0700E0
0700E0
0700E0
0F00E0
0E00E0
0E00E0
0E00E0
1E01C0
1C01C0
1C03C0
1C0780
1C0F00
7FFE00
FFFC00
FFF000
00E000
00C000
01C000
0CE000
0FC000
078000
ENDCHAR
STARTCHAR uni1E11
ENCODING 7697
SWIDTH 600 0
DWIDTH 20 0
BBX 19 27 3 -6
BITMAP
0007E0
000FE0
000FC0
0001C0
0003C0
000380
03E380
0FFB80
1FFB80
3E1F80
780F00
700F00
E00700
E00F00
E00E00
E00E00
F01E00
F87C00
7FFF80
3FFF80
0F9F00
00E000
00C000
01C000
0CE000
0FC000
078000
ENDCHAR
STARTCHAR uni1E12
ENCODING 7698
SWIDTH 600 0
DWIDTH 20 0
BBX 19 26 1 -6
BITMAP
0FFE00
1FFF80
1FFFC0
0783E0
0701E0
0700E0
0700E0
0700E0
0F00E0
0E00E0
0E00E0
0E00E0
1E01C0
1C01C0
1C03C0
1C0780
1C0F00
7FFE00
FFFC00
FFF000
000000
008000
01C000
07E000
0E7800
1C1800
ENDCHAR
STARTCHAR uni1E13
ENCODING 7699
SWIDTH 600 0
DWIDTH 20 0
BBX 19 27 3 -6
BITMAP
0007E0
000FE0
000FC0
0001C0
0003C0
000380
03E380
0FFB80
1FFB80
3E1F80
780F00
700F00
E00700
E00F00
E00E00
E00E00
F01E00
F87C00
7FFF80
3FFF80
0F9F00
000000
004000
00E000
03F000
073C00
0E0C00
ENDCHAR
STARTCHAR uni1E14
ENCODING 7700
SWIDTH 600 0
DWIDTH 20 0
BBX 21 29 1 0
BITMAP
03C000
01E000
007000
003800
001800
000000
03FF80
03FF80
000000
0FFFF8
1FFFF8
1FFFF0
078070
070070
070070
070E60
070E00
0FFE00
0FFC00
0FFC00
0E1C00
1E1C00
1C1CE0
1C01C0
1C01C0
1C01C0
7FFFC0
FFFF80
FFFF80
ENDCHAR
STARTCHAR uni1E15
ENCODING 7701
SWIDTH 600 0
DWIDTH 20 0
BBX 17 24 3 0
BITMAP
0F0000
078000
01C000
00E000
006000
000000
1FFC00
1FFC00
000000
03F000
0FFC00
1FFE00
3C0F00
780700
F00780
FFFF80
FFFF80
FFFF00
E00000
E00000
F81F00
7FFF00
3FFE00
0FF000
ENDCHAR
STARTCHAR uni1E16
ENCODING 7702
SWIDTH 600 0
DWIDTH 20 0
BBX 21 30 1 0
BITMAP
0003C0
000780
000F00
001C00
003800
007000
000000
03FF80
03FF80
000000
0FFFF8
1FFFF8
1FFFF0
078070
070070
070070
070E60
070E00
0FFE00
0FFC00
0FFC00
0E1C00
1E1C00
1C1CE0
1C01C0
1C01C0
1C01C0
7FFFC0
FFFF80
FFFF80
ENDCHAR
STARTCHAR uni1E17
ENCODING 7703
SWIDTH 600 0
DWIDTH 20 0
BBX 17 25 3 0
BITMAP
001E00
003C00
007800
00E000
01C000
038000
000000
1FFC00
1FFC00
000000
03F000
0FFC00
1FFE00
3C0F00
780700
F00780
FFFF80
FFFF80
FFFF00
E00000
E00000
F81F00
7FFF00
3FFE00
0FF000
ENDCHAR
STARTCHAR uni1E18
ENCODING 7704
SWIDTH 600 0
DWIDTH 20 0
BBX 21 26 1 -6
BITMAP
0FFFF8
1FFFF8
1FFFF0
078070
070070
070070
070E60
070E00
0FFE00
0FFC00
0FFC00
0E1C00
1E1C00
1C1CE0
1C01C0
1C01C0
1C01C0
7FFFC0
FFFF80
FFFF80
000000
004000
00E000
03F000
073C00
0E0C00
ENDCHAR
STARTCHAR uni1E19
ENCODING 7705
SWIDTH 600 0
DWIDTH 20 0
BBX 17 21 3 -6
BITMAP
03F000
0FFC00
1FFE00
3C0F00
780700
F00780
FFFF80
FFFF80
FFFF00
E00000
E00000
F81F00
7FFF00
3FFE00
0FF000
000000
008000
01C000
07E000
0E7800
1C1800
ENDCHAR
STARTCHAR uni1E1A
ENCODING 7706
SWIDTH 600 0
DWIDTH 20 0
BBX 21 24 1 -4
BITMAP
0FFFF8
1FFFF8
1FFFF0
078070
070070
070070
070E60
070E00
0FFE00
0FFC00
0FFC00
0E1C00
1E1C00
1C1CE0
1C01C0
1C01C0
1C01C0
7FFFC0
FFFF80
FFFF80
000000
07C600
0FFE00
0C7C00
ENDCHAR
STARTCHAR uni1E1B
ENCODING 7707
SWIDTH 600 0
DWIDTH 20 0
BBX 17 19 3 -4
BITMAP
03F000
0FFC00
1FFE00
3C0F00
780700
F00780
FFFF80
FFFF80
FFFF00
E00000
E00000
F81F00
7FFF00
3FFE00
0FF000
000000
0F8C00
1FFC00
18F800
ENDCHAR
STARTCHAR uni1E1C
ENCODING 7708
SWIDTH 600 0
DWIDTH 20 0
BBX 21 32 1 -6
BITMAP
030380
030380
03C700
01FE00
007800
000000
0FFFF8
1FFFF8
1FFFF0
078070
070070
070070
070E60
070E00
0FFE00
0FFC00
0FFC00
0E1C00
1E1C00
1C1CE0
1C01C0
1C01C0
1C01C0
7FFFC0
FFFF80
FFFF80
007000
006000
00E000
067000
07E000
03C000
ENDCHAR
STARTCHAR uni1E1D
ENCODING 7709
SWIDTH 600 0
DWIDTH 20 0
BBX 17 27 3 -6
BITMAP
0C0E00
0C0E00
0F1C00
07F800
01E000
000000
03F000
0FFC00
1FFE00
3C0F00
780700
F00780
FFFF80
FFFF80
FFFF00
E00000
E00000
F81F00
7FFF00
3FFE00
0FF000
00E000
00C000
01C000
0CE000
0FC000
078000
ENDCHAR
STARTCHAR uni1E1E
ENCODING 7710
SWIDTH 600 0
DWIDTH 20 0
BBX 21 24 1 0
BITMAP
001C00
003C00
003800
000000
0FFFF8
1FFFF8
1FFFF0
078070
070070
070070
070E60
070E00
0FFE00
0FFC00
0FFC00
0E1C00
1E1C00
1C1C00
1C0000
1C0000
1C0000
7FF000
FFF000
FFE000
ENDCHAR
STARTCHAR uni1E1F
ENCODING 7711
SWIDTH 600 0
DWIDTH 20 0
BBX 20 25 4 0
BITMAP
001C00
003C00
003800
000000
001FF0
007FF0
00FFE0
00E000
01C000
01C000
0FFF00
1FFF00
1FFE00
03C000
038000
038000
038000
078000
070000
070000
070000
070000
7FFC00
FFFC00
FFF800
ENDCHAR
STARTCHAR uni1E20
ENCODING 7712
SWIDTH 600 0
DWIDTH 20 0
BBX 19 23 3 0
BITMAP
07FF00
07FF00
000000
00FC60
03FFE0
0FFFC0
1F03C0
3C01C0
7801C0
700180
F00000
E00000
E00000
E00000
E07FC0
E0FFC0
E0FF80
E00700
F00700
781F00
7FFF00
3FFE00
0FF000
ENDCHAR
STARTCHAR uni1E21
ENCODING 7713
SWIDTH 600 0
DWIDTH 20 0
BBX 19 25 3 -7
BITMAP
0FFE00
0FFE00
000000
07E1E0
1FFBE0
3FFFC0
7C1F80
700F00
F00F00
E00F00
E00F00
E00E00
E01E00
E01E00
F87E00
7FFE00
3FDC00
0F9C00
001C00
003C00
003800
00F800
7FF000
FFE000
FF8000
ENDCHAR
STARTCHAR uni1E22
ENCODING 7714
SWIDTH 600 0
DWIDTH 20 0
BBX 22 24 0 0
BITMAP
001C00
003C00
003800
000000
0FF1FC
1FF3FC
1FE3F8
0780F0
0700E0
0700E0
0700E0
0700E0
0FFFE0
0FFFC0
0FFFC0
0E01C0
1E03C0
1C0380
1C0380
1C0380
1C0380
7F1FE0
FF3FE0
FE3FC0
ENDCHAR
STARTCHAR uni1E23
ENCODING 7715
SWIDTH 600 0
DWIDTH 20 0
BBX 19 25 1 0
BITMAP
01C000
03C000
038000
000000
0FC000
1FC000
1F8000
038000
078000
070000
071E00
077F80
07FFC0
0F83C0
0F01C0
0E01C0
0E01C0
1E03C0
1C0380
1C0380
1C0380
1C0380
7F0FE0
FF1FE0
FE1FC0
ENDCHAR
STARTCHAR uni1E24
ENCODING 7716
SWIDTH 600 0
DWIDTH 20 0
BBX 22 24 0 -4
BITMAP
0FF1FC
1FF3FC
1FE3F8
0780F0
0700E0
0700E0
0700E0
0700E0
0FFFE0
0FFFC0
0FFFC0
0E01C0
1E03C0
1C0380
1C0380
1C0380
1C0380
7F1FE0
FF3FE0
FE3FC0
000000
007000
00F000
00E000
ENDCHAR
STARTCHAR uni1E25
ENCODING 7717
SWIDTH 600 0
DWIDTH 20 0
BBX 19 25 1 -4
BITMAP
0FC000
1FC000
1F8000
038000
078000
070000
071E00
077F80
07FFC0
0F83C0
0F01C0
0E01C0
0E01C0
1E03C0
1C0380
1C0380
1C0380
1C0380
7F0FE0
FF1FE0
FE1FC0
000000
00E000
01E000
01C000
ENDCHAR
STARTCHAR uni1E26
ENCODING 7718
SWIDTH 600 0
DWIDTH 20 0
BBX 22 24 0 0
BITMAP
00E1C0
01E3C0
01C380
000000
0FF1FC
1FF3FC
1FE3F8
0780F0
0700E0
0700E0
0700E0
0700E0
0FFFE0
0FFFC0
0FFFC0
0E01C0
1E03C0
1C0380
1C0380
1C0380
1C0380
7F1FE0
FF3FE0
FE3FC0
ENDCHAR
STARTCHAR uni1E27
ENCODING 7719
SWIDTH 600 0
DWIDTH 20 0
BBX 19 25 1 0
BITMAP
1C3800
3C7800
387000
000000
0FC000
1FC000
1F8000
038000
078000
070000
071E00
077F80
07FFC0
0F83C0
0F01C0
0E01C0
0E01C0
1E03C0
1C0380
1C0380
1C0380
1C0380
7F0FE0
FF1FE0
FE1FC0
ENDCHAR
STARTCHAR uni1E28
ENCODING 7720
SWIDTH 600 0
DWIDTH 20 0
BBX 22 26 0 -6
BITMAP
0FF1FC
1FF3FC
1FE3F8
0780F0
0700E0
0700E0
0700E0
0700E0
0FFFE0
0FFFC0
0FFFC0
0E01C0
1E03C0
1C0380
1C0380
1C0380
1C0380
7F1FE0
FF3FE0
FE3FC0
007000
006000
00E000
067000
07E000
03C000
ENDCHAR
STARTCHAR uni1E29
ENCODING 7721
SWIDTH 600 0
DWIDTH 20 0
BBX 19 27 1 -6
BITMAP
0FC000
1FC000
1F8000
038000
078000
070000
071E00
077F80
07FFC0
0F83C0
0F01C0
0E01C0
0E01C0
1E03C0
1C0380
1C0380
1C0380
1C0380
7F0FE0
FF1FE0
FE1FC0
007000
006000
00E000
067000
07E000
03C000
ENDCHAR
STARTCHAR uni1E2A
ENCODING 7722
SWIDTH 600 0
DWIDTH 20 0
BBX 22 26 0 -6
BITMAP
0FF1FC
1FF3FC
1FE3F8
0780F0
0700E0
0700E0
0700E0
0700E0
0FFFE0
0FFFC0
0FFFC0
0E01C0
1E03C0
1C0380
1C0380
1C0380
1C0380
7F1FE0
FF3FE0
FE3FC0
000000
0C0E00
0C0E00
0F1C00
07F800
01E000
ENDCHAR
STARTCHAR uni1E2B
ENCODING 7723
SWIDTH 600 0
DWIDTH 20 0
BBX 19 27 1 -6
BITMAP
0FC000
1FC000
1F8000
038000
078000
070000
071E00
077F80
07FFC0
0F83C0
0F01C0
0E01C0
0E01C0
1E03C0
1C0380
1C0380
1C0380
1C0380
7F0FE0
FF1FE0
FE1FC0
000000
0C0E00
0C0E00
0F1C00
07F800
01E000
ENDCHAR
STARTCHAR uni1E2C
ENCODING 7724
SWIDTH 600 0
DWIDTH 20 0
BBX 17 24 3 -4
BITMAP
0FFF80
1FFF80
1FFF00
00F000
00E000
00E000
00E000
00E000
01E000
01C000
01C000
01C000
03C000
038000
038000
038000
038000
7FFC00
FFFC00
FFF800
000000
1F1800
3FF800
31F000
ENDCHAR
STARTCHAR uni1E2D
ENCODING 7725
SWIDTH 600 0
DWIDTH 20 0
BBX 16 25 2 -4
BITMAP
0078
0078
00F8
00F0
0000
0000
07F0
0FF0
0FF0
00F0
00E0
00E0
00E0
01E0
01C0
01C0
01C0
01C0
7FFF
FFFF
FFFE
0000
0F8C
1FFC
18F8
ENDCHAR
STARTCHAR uni1E2E
ENCODING 7726
SWIDTH 600 0
DWIDTH 20 0
BBX 17 32 3 0
BITMAP
000F00
001E00
003C00
007000
00E000
01C000
000000
01C380
03C780
038700
000000
000000
0FFF80
1FFF80
1FFF80
00F000
00E000
00E000
00E000
00E000
01E000
01C000
01C000
01C000
03C000
038000
038000
038000
038000
7FFC00
FFFC00
FFF800
ENDCHAR
STARTCHAR uni1E2F
ENCODING 7727
SWIDTH 600 0
DWIDTH 20 0
BBX 16 27 2 0
BITMAP
001E
003C
0078
00E0
01C0
0380
0000
0387
078F
070E
0000
0000
07F0
0FF0
0FF0
00F0
00E0
00E0
00E0
01E0
01C0
01C0
01C0
01C0
7FFF
FFFF
FFFE
ENDCHAR
STARTCHAR uni1E30
ENCODING 7728
SWIDTH 600 0
DWIDTH 20 0
BBX 22 27 1 0
BITMAP
0003C0
000780
000F00
001C00
003800
007000
000000
0FF1FC
1FF3FC
1FE3F8
0781E0
0703C0
070780
071F00
077C00
0FF000
0FF800
0FFC00
0F3C00
1E1E00
1C0E00
1C0E00
1C0700
1C0700
7F87E0
FF87E0
FF07C0
ENDCHAR
STARTCHAR uni1E31
ENCODING 7729
SWIDTH 600 0
DWIDTH 20 0
BBX 18 28 2 0
BITMAP
003C00
007800
00F000
01C000
038000
070000
000000
0FC000
1FC000
1F8000
038000
078000
070000
071FC0
073FC0
071F80
0F3C00
0E7800
0FF000
0FC000
1FC000
1FE000
1CF000
1C7800
1C3C00
FC3F80
FC7F80
F87F00
ENDCHAR
STARTCHAR uni1E32
ENCODING 7730
SWIDTH 600 0
DWIDTH 20 0
BBX 22 24 1 -4
BITMAP
0FF1FC
1FF3FC
1FE3F8
0781E0
0703C0
070780
071F00
077C00
0FF000
0FF800
0FFC00
0F3C00
1E1E00
1C0E00
1C0E00
1C0700
1C0700
7F87E0
FF87E0
FF07C0
000000
00E000
01E000
01C000
ENDCHAR
STARTCHAR uni1E33
ENCODING 7731
SWIDTH 600 0
DWIDTH 20 0
BBX 18 25 2 -4
BITMAP
0FC000
1FC000
1F8000
038000
078000
070000
071FC0
073FC0
071F80
0F3C00
0E7800
0FF000
0FC000
1FC000
1FE000
1CF000
1C7800
1C3C00
FC3F80
FC7F80
F87F00
000000
01C000
03C000
038000
ENDCHAR
STARTCHAR uni1E34
ENCODING 7732
SWIDTH 600 0
DWIDTH 20 0
BBX 22 23 1 -3
BITMAP
0FF1FC
1FF3FC
1FE3F8
0781E0
0703C0
070780
071F00
077C00
0FF000
0FF800
0FFC00
0F3C00
1E1E00
1C0E00
1C0E00
1C0700
1C0700
7F87E0
FF87E0
FF07C0
000000
0FFE00
0FFE00
ENDCHAR
STARTCHAR uni1E35
ENCODING 7733
SWIDTH 600 0
DWIDTH 20 0
BBX 18 24 2 -3
BITMAP
0FC000
1FC000
1F8000
038000
078000
070000
071FC0
073FC0
071F80
0F3C00
0E7800
0FF000
0FC000
1FC000
1FE000
1CF000
1C7800
1C3C00
FC3F80
FC7F80
F87F00
000000
1FFC00
1FFC00
ENDCHAR
STARTCHAR uni1E36
ENCODING 7734
SWIDTH 600 0
DWIDTH 20 0
BBX 20 24 1 -4
BITMAP
07FE00
0FFE00
0FFC00
01E000
01C000
01C000
01C000
01C000
03C000
038000
038000
038000
078070
0700E0
0700E0
0700E0
0700E0
7FFFE0
FFFFC0
FFFFC0
000000
007000
00F000
00E000
ENDCHAR
STARTCHAR uni1E37
ENCODING 7735
SWIDTH 600 0
DWIDTH 20 0
BBX 16 25 2 -4
BITMAP
03FC
07FC
07F8
0038
0078
0070
0070
0070
0070
00F0
00E0
00E0
00E0
01E0
01C0
01C0
01C0
01C0
7FFF
FFFF
FFFE
0000
01C0
03C0
0380
ENDCHAR
STARTCHAR uni1E38
ENCODING 7736
SWIDTH 600 0
DWIDTH 20 0
BBX 20 27 1 -4
BITMAP
0FFE00
0FFE00
000000
07FE00
0FFE00
0FFC00
01E000
01C000
01C000
01C000
01C000
03C000
038000
038000
038000
078070
0700E0
0700E0
0700E0
0700E0
7FFFE0
FFFFC0
FFFFC0
000000
007000
00F000
00E000
ENDCHAR
STARTCHAR uni1E39
ENCODING 7737
SWIDTH 600 0
DWIDTH 20 0
BBX 16 28 2 -4
BITMAP
0FFE
0FFE
0000
03FC
07FC
07F8
0038
0078
0070
0070
0070
0070
00F0
00E0
00E0
00E0
01E0
01C0
01C0
01C0
01C0
7FFF
FFFF
FFFE
0000
01C0
03C0
0380
ENDCHAR
STARTCHAR uni1E3A
ENCODING 7738
SWIDTH 600 0
DWIDTH 20 0
BBX 20 23 1 -3
BITMAP
07FE00
0FFE00
0FFC00
01E000
01C000
01C000
01C000
01C000
03C000
038000
038000
038000
078070
0700E0
0700E0
0700E0
0700E0
7FFFE0
FFFFC0
FFFFC0
000000
07FF00
07FF00
ENDCHAR
STARTCHAR uni1E3B
ENCODING 7739
SWIDTH 600 0
DWIDTH 20 0
BBX 16 24 2 -3
BITMAP
03FC
07FC
07F8
0038
0078
0070
0070
0070
0070
00F0
00E0
00E0
00E0
01E0
01C0
01C0
01C0
01C0
7FFF
FFFF
FFFE
0000
1FFC
1FFC
ENDCHAR
STARTCHAR uni1E3C
ENCODING 7740
SWIDTH 600 0
DWIDTH 20 0
BBX 20 26 1 -6
BITMAP
07FE00
0FFE00
0FFC00
01E000
01C000
01C000
01C000
01C000
03C000
038000
038000
038000
078070
0700E0
0700E0
0700E0
0700E0
7FFFE0
FFFFC0
FFFFC0
000000
002000
007000
01F800
039E00
070600
ENDCHAR
STARTCHAR uni1E3D
ENCODING 7741
SWIDTH 600 0
DWIDTH 20 0
BBX 16 27 2 -6
BITMAP
03FC
07FC
07F8
0038
0078
0070
0070
0070
0070
00F0
00E0
00E0
00E0
01E0
01C0
01C0
01C0
01C0
7FFF
FFFF
FFFE
0000
0080
01C0
07E0
0E78
1C18
ENDCHAR
STARTCHAR uni1E3E
ENCODING 7742
SWIDTH 600 0
DWIDTH 20 0
BBX 24 27 -1 0
BITMAP
0001E0
0003C0
000780
000E00
001C00
003800
000000
0FC07F
1FC07F
1FC0FE
07E0F8
07E1F8
07E1F8
07E3B8
06E378
0EF778
0EF770
0E7E70
0E7C70
1E7CF0
1C78E0
1C70E0
1C70E0
1C00E0
7F87F8
FF8FF8
FF0FF0
ENDCHAR
STARTCHAR uni1E3F
ENCODING 7743
SWIDTH 600 0
DWIDTH 20 0
BBX 22 22 0 0
BITMAP
0003C0
000780
000F00
001C00
003800
007000
000000
1E38E0
3EFFF8
3FFFFC
0F9F3C
0F1E38
0E1C38
0E1C38
1E3C78
1C3870
1C3870
1C3870
1C3870
7E7CF8
FE7CF8
FC78F0
ENDCHAR
STARTCHAR uni1E40
ENCODING 7744
SWIDTH 600 0
DWIDTH 20 0
BBX 24 24 -1 0
BITMAP
000E00
001E00
001C00
000000
0FC07F
1FC07F
1FC0FE
07E0F8
07E1F8
07E1F8
07E3B8
06E378
0EF778
0EF770
0E7E70
0E7C70
1E7CF0
1C78E0
1C70E0
1C70E0
1C00E0
7F87F8
FF8FF8
FF0FF0
ENDCHAR
STARTCHAR uni1E41
ENCODING 7745
SWIDTH 600 0
DWIDTH 20 0
BBX 22 19 0 0
BITMAP
001C00
003C00
003800
000000
1E38E0
3EFFF8
3FFFFC
0F9F3C
0F1E38
0E1C38
0E1C38
1E3C78
1C3870
1C3870
1C3870
1C3870
7E7CF8
FE7CF8
FC78F0
ENDCHAR
STARTCHAR uni1E42
ENCODING 7746
SWIDTH 600 0
DWIDTH 20 0
BBX 24 24 -1 -4
BITMAP
0FC07F
1FC07F
1FC0FE
07E0F8
07E1F8
07E1F8
07E3B8
06E378
0EF778
0EF770
0E7E70
0E7C70
1E7CF0
1C78E0
1C70E0
1C70E0
1C00E0
7F87F8
FF8FF8
FF0FF0
000000
003800
007800
007000
ENDCHAR
STARTCHAR uni1E43
ENCODING 7747
SWIDTH 600 0
DWIDTH 20 0
BBX 22 19 0 -4
BITMAP
1E38E0
3EFFF8
3FFFFC
0F9F3C
0F1E38
0E1C38
0E1C38
1E3C78
1C3870
1C3870
1C3870
1C3870
7E7CF8
FE7CF8
FC78F0
000000
007000
00F000
00E000
ENDCHAR
STARTCHAR uni1E44
ENCODING 7748
SWIDTH 600 0
DWIDTH 20 0
BBX 22 24 1 0
BITMAP
001C00
003C00
003800
000000
0F81FC
1FC3FC
1FC3F8
07C0F0
07E0E0
07E0E0
07F0E0
0770E0
0F71E0
0E79C0
0E39C0
0E39C0
1E3DC0
1C1D80
1C1F80
1C1F80
1C0F80
7F8F80
FF8700
FF0700
ENDCHAR
STARTCHAR uni1E45
ENCODING 7749
SWIDTH 600 0
DWIDTH 20 0
BBX 19 19 1 0
BITMAP
007000
00F000
00E000
000000
1E3E00
3E7F80
3FFFC0
0F83C0
0F01C0
0E01C0
0E01C0
1E03C0
1C0380
1C0380
1C0380
1C0380
7F0FE0
FF1FE0
FE1FC0
ENDCHAR
STARTCHAR uni1E46
ENCODING 7750
SWIDTH 600 0
DWIDTH 20 0
BBX 22 24 1 -4
BITMAP
0F81FC
1FC3FC
1FC3F8
07C0F0
07E0E0
07E0E0
07F0E0
0770E0
0F71E0
0E79C0
0E39C0
0E39C0
1E3DC0
1C1D80
1C1F80
1C1F80
1C0F80
7F8F80
FF8700
FF0700
000000
00E000
01E000
01C000
ENDCHAR
STARTCHAR uni1E47
ENCODING 7751
SWIDTH 600 0
DWIDTH 20 0
BBX 19 19 1 -4
BITMAP
1E3E00
3E7F80
3FFFC0
0F83C0
0F01C0
0E01C0
0E01C0
1E03C0
1C0380
1C0380
1C0380
1C0380
7F0FE0
FF1FE0
FE1FC0
000000
00E000
01E000
01C000
ENDCHAR
STARTCHAR uni1E48
ENCODING 7752
SWIDTH 600 0
DWIDTH 20 0
BBX 22 23 1 -3
BITMAP
0F81FC
1FC3FC
1FC3F8
07C0F0
07E0E0
07E0E0
07F0E0
0770E0
0F71E0
0E79C0
0E39C0
0E39C0
1E3DC0
1C1D80
1C1F80
1C1F80
1C0F80
7F8F80
FF8700
FF0700
000000
0FFE00
0FFE00
ENDCHAR
STARTCHAR uni1E49
ENCODING 7753
SWIDTH 600 0
DWIDTH 20 0
BBX 19 18 1 -3
BITMAP
1E3E00
3E7F80
3FFFC0
0F83C0
0F01C0
0E01C0
0E01C0
1E03C0
1C0380
1C0380
1C0380
1C0380
7F0FE0
FF1FE0
FE1FC0
000000
0FFE00
0FFE00
ENDCHAR
STARTCHAR uni1E4A
ENCODING 7754
SWIDTH 600 0
DWIDTH 20 0
BBX 22 26 1 -6
BITMAP
0F81FC
1FC3FC
1FC3F8
07C0F0
07E0E0
07E0E0
07F0E0
0770E0
0F71E0
0E79C0
0E39C0
0E39C0
1E3DC0
1C1D80
1C1F80
1C1F80
1C0F80
7F8F80
FF8700
FF0700
000000
004000
00E000
03F000
073C00
0E0C00
ENDCHAR
STARTCHAR uni1E4B
ENCODING 7755
SWIDTH 600 0
DWIDTH 20 0
BBX 19 21 1 -6
BITMAP
1E3E00
3E7F80
3FFFC0
0F83C0
0F01C0
0E01C0
0E01C0
1E03C0
1C0380
1C0380
1C0380
1C0380
7F0FE0
FF1FE0
FE1FC0
000000
004000
00E000
03F000
073C00
0E0C00
ENDCHAR
STARTCHAR uni1E4C
ENCODING 7756
SWIDTH 600 0
DWIDTH 20 0
BBX 18 31 2 0
BITMAP
000780
000F00
001E00
003800
007000
00E000
000000
01F180
03FF80
031F00
000000
00FC00
03FF00
0FFF80
0F0780
1E03C0
3C01C0
7801C0
7001C0
7001C0
E001C0
E001C0
E003C0
E00380
E00780
F00700
700F00
7C3E00
3FFC00
1FF000
07C000
ENDCHAR
STARTCHAR uni1E4D
ENCODING 7757
SWIDTH 600 0
DWIDTH 20 0
BBX 15 27 4 0
BITMAP
003C
0078
00F0
01C0
0380
0700
0000
0F8C
1FFC
18F8
0000
0000
03E0
1FF8
3FFC
781E
700E
E00E
E006
E00E
C00E
E01C
E01C
F078
7FF8
3FE0
0F80
ENDCHAR
STARTCHAR uni1E4E
ENCODING 7758
SWIDTH 600 0
DWIDTH 20 0
BBX 18 28 2 0
BITMAP
038700
078F00
070E00
000000
01F180
03FF80
031F00
000000
00FC00
03FF00
0FFF80
0F0780
1E03C0
3C01C0
7801C0
7001C0
7001C0
E001C0
E001C0
E003C0
E00380
E00780
F00700
700F00
7C3E00
3FFC00
1FF000
07C000
ENDCHAR
STARTCHAR uni1E4F
ENCODING 7759
SWIDTH 600 0
DWIDTH 20 0
BBX 15 24 4 0
BITMAP
0E1C
1E3C
1C38
0000
0F8C
1FFC
18F8
0000
0000
03E0
1FF8
3FFC
781E
700E
E00E
E006
E00E
C00E
E01C
E01C
F078
7FF8
3FE0
0F80
ENDCHAR
STARTCHAR uni1E50
ENCODING 7760
SWIDTH 600 0
DWIDTH 20 0
BBX 18 29 2 0
BITMAP
078000
03C000
00E000
007000
003000
000000
07FF00
07FF00
000000
00FC00
03FF00
0FFF80
0F0780
1E03C0
3C01C0
7801C0
7001C0
7001C0
E001C0
E001C0
E003C0
E00380
E00780
F00700
700F00
7C3E00
3FFC00
1FF000
07C000
ENDCHAR
STARTCHAR uni1E51
ENCODING 7761
SWIDTH 600 0
DWIDTH 20 0
BBX 16 24 3 0
BITMAP
0F00
0780
01C0
00E0
0060
0000
1FFC
1FFC
0000
01F0
0FFC
1FFE
3C0F
3807
7007
7003
F007
6007
700E
700E
783C
3FFC
1FF0
07C0
ENDCHAR
STARTCHAR uni1E52
ENCODING 7762
SWIDTH 600 0
DWIDTH 20 0
BBX 18 30 2 0
BITMAP
000F00
001E00
003C00
007000
00E000
01C000
000000
07FF00
07FF00
000000
00FC00
03FF00
0FFF80
0F0780
1E03C0
3C01C0
7801C0
7001C0
7001C0
E001C0
E001C0
E003C0
E00380
E00780
F00700
700F00
7C3E00
3FFC00
1FF000
07C000
ENDCHAR
STARTCHAR uni1E53
ENCODING 7763
SWIDTH 600 0
DWIDTH 20 0
BBX 16 25 3 0
BITMAP
001E
003C
0078
00E0
01C0
0380
0000
1FFC
1FFC
0000
01F0
0FFC
1FFE
3C0F
3807
7007
7003
F007
6007
700E
700E
783C
3FFC
1FF0
07C0
ENDCHAR
STARTCHAR uni1E54
ENCODING 7764
SWIDTH 600 0
DWIDTH 20 0
BBX 19 27 2 0
BITMAP
000780
000F00
001E00
003800
007000
00E000
000000
0FFF00
1FFF80
1FFFC0
0781E0
0700E0
0700E0
0700E0
0701E0
0F01C0
0E0F80
0FFF00
0FFE00
1FE000
1C0000
1C0000
1C0000
1C0000
7FE000
FFE000
FFC000
ENDCHAR
STARTCHAR uni1E55
ENCODING 7765
SWIDTH 600 0
DWIDTH 20 0
BBX 21 29 -1 -7
BITMAP
0003C0
000780
000F00
001C00
003800
007000
000000
07C780
0FDFE0
0FFFF0
01F878
03E038
03C038
038038
078038
078078
078078
0780F0
07E1E0
0FFFC0
0EFF80
0E3E00
0E0000
0E0000
1E0000
1C0000
7FC000
FFC000
FF8000
ENDCHAR
STARTCHAR uni1E56
ENCODING 7766
SWIDTH 600 0
DWIDTH 20 0
BBX 19 24 2 0
BITMAP
003800
007800
007000
000000
0FFF00
1FFF80
1FFFC0
0781E0
0700E0
0700E0
0700E0
0701E0
0F01C0
0E0F80
0FFF00
0FFE00
1FE000
1C0000
1C0000
1C0000
1C0000
7FE000
FFE000
FFC000
ENDCHAR
STARTCHAR uni1E57
ENCODING 7767
SWIDTH 600 0
DWIDTH 20 0
BBX 21 26 -1 -7
BITMAP
001C00
003C00
003800
000000
07C780
0FDFE0
0FFFF0
01F878
03E038
03C038
038038
078038
078078
078078
0780F0
07E1E0
0FFFC0
0EFF80
0E3E00
0E0000
0E0000
1E0000
1C0000
7FC000
FFC000
FF8000
ENDCHAR
STARTCHAR uni1E58
ENCODING 7768
SWIDTH 600 0
DWIDTH 20 0
BBX 19 24 1 0
BITMAP
003800
007800
007000
000000
0FFF00
1FFFC0
1FFFC0
0781E0
0700E0
0700E0
0700E0
0701E0
0F07C0
0FFF80
0FFE00
0FFC00
1E1E00
1C0E00
1C0F00
1C0700
1C0780
7F83E0
FF83E0
FF01E0
ENDCHAR
STARTCHAR uni1E59
ENCODING 7769
SWIDTH 600 0
DWIDTH 20 0
BBX 19 19 2 0
BITMAP
003800
007800
007000
000000
0FC7C0
1FDFE0
1FBFE0
03F0C0
03E000
03C000
038000
078000
070000
070000
070000
070000
7FFC00
FFFC00
FFF800
ENDCHAR
STARTCHAR uni1E5A
ENCODING 7770
SWIDTH 600 0
DWIDTH 20 0
BBX 19 24 1 -4
BITMAP
0FFF00
1FFFC0
1FFFC0
0781E0
0700E0
0700E0
0700E0
0701E0
0F07C0
0FFF80
0FFE00
0FFC00
1E1E00
1C0E00
1C0F00
1C0700
1C0780
7F83E0
FF83E0
FF01E0
000000
00E000
01E000
01C000
ENDCHAR
STARTCHAR uni1E5B
ENCODING 7771
SWIDTH 600 0
DWIDTH 20 0
BBX 19 19 2 -4
BITMAP
0FC7C0
1FDFE0
1FBFE0
03F0C0
03E000
03C000
038000
078000
070000
070000
070000
070000
7FFC00
FFFC00
FFF800
000000
038000
078000
070000
ENDCHAR
STARTCHAR uni1E5C
ENCODING 7772
SWIDTH 600 0
DWIDTH 20 0
BBX 19 27 1 -4
BITMAP
07FF00
07FF00
000000
0FFF00
1FFFC0
1FFFC0
0781E0
0700E0
0700E0
0700E0
0701E0
0F07C0
0FFF80
0FFE00
0FFC00
1E1E00
1C0E00
1C0F00
1C0700
1C0780
7F83E0
FF83E0
FF01E0
000000
00E000
01E000
01C000
ENDCHAR
STARTCHAR uni1E5D
ENCODING 7773
SWIDTH 600 0
DWIDTH 20 0
BBX 19 22 2 -4
BITMAP
07FF00
07FF00
000000
0FC7C0
1FDFE0
1FBFE0
03F0C0
03E000
03C000
038000
078000
070000
070000
070000
070000
7FFC00
FFFC00
FFF800
000000
038000
078000
070000
ENDCHAR
STARTCHAR uni1E5E
ENCODING 7774
SWIDTH 600 0
DWIDTH 20 0
BBX 19 23 1 -3
BITMAP
0FFF00
1FFFC0
1FFFC0
0781E0
0700E0
0700E0
0700E0
0701E0
0F07C0
0FFF80
0FFE00
0FFC00
1E1E00
1C0E00
1C0F00
1C0700
1C0780
7F83E0
FF83E0
FF01E0
000000
0FFE00
0FFE00
ENDCHAR
STARTCHAR uni1E5F
ENCODING 7775
SWIDTH 600 0
DWIDTH 20 0
BBX 19 18 2 -3
BITMAP
0FC7C0
1FDFE0
1FBFE0
03F0C0
03E000
03C000
038000
078000
070000
070000
070000
070000
7FFC00
FFFC00
FFF800
000000
3FF800
3FF800
ENDCHAR
STARTCHAR uni1E60
ENCODING 7776
SWIDTH 600 0
DWIDTH 20 0
BBX 19 24 2 0
BITMAP
003800
007800
007000
000000
00FC00
03FF60
07FFE0
0F03E0
0E01C0
0E01C0
0E0180
0F0000
0FC000
07F800
03FE00
007F00
000F80
000380
700380
700380
7C0700
FFFF00
FFFE00
C7F800
ENDCHAR
STARTCHAR uni1E61
ENCODING 7777
SWIDTH 600 0
DWIDTH 20 0
BBX 17 19 3 0
BITMAP
007000
00F000
00E000
000000
01F980
07FF80
0FFF00
1E0F00
1C0600
1E0000
1FF000
0FFC00
01FE00
301E00
700E00
781E00
FFFC00
FFF800
CFE000
ENDCHAR
STARTCHAR uni1E62
ENCODING 7778
SWIDTH 600 0
DWIDTH 20 0
BBX 19 24 2 -4
BITMAP
00FC00
03FF60
07FFE0
0F03E0
0E01C0
0E01C0
0E0180
0F0000
0FC000
07F800
03FE00
007F00
000F80
000380
700380
700380
7C0700
FFFF00
FFFE00
C7F800
000000
01C000
03C000
038000
ENDCHAR
STARTCHAR uni1E63
ENCODING 7779
SWIDTH 600 0
DWIDTH 20 0
BBX 17 19 3 -4
BITMAP
01F980
07FF80
0FFF00
1E0F00
1C0600
1E0000
1FF000
0FFC00
01FE00
301E00
700E00
781E00
FFFC00
FFF800
CFE000
000000
038000
078000
070000
ENDCHAR
STARTCHAR uni1E64
ENCODING 7780
SWIDTH 600 0
DWIDTH 20 0
BBX 19 31 2 0
BITMAP
001C00
003C00
003800
000000
000780
000F00
001E00
003800
007000
00E000
000000
00FC00
03FF60
07FFE0
0F03E0
0E01C0
0E01C0
0E0180
0F0000
0FC000
07F800
03FE00
007F00
000F80
000380
700380
700380
7C0700
FFFF00
FFFE00
C7F800
ENDCHAR
STARTCHAR uni1E65
ENCODING 7781
SWIDTH 600 0
DWIDTH 20 0
BBX 17 26 3 0
BITMAP
003800
007800
007000
000000
000F00
001E00
003C00
007000
00E000
01C000
000000
01F980
07FF80
0FFF00
1E0F00
1C0600
1E0000
1FF000
0FFC00
01FE00
301E00
700E00
781E00
FFFC00
FFF800
CFE000
ENDCHAR
STARTCHAR uni1E66
ENCODING 7782
SWIDTH 600 0
DWIDTH 20 0
BBX 19 30 2 0
BITMAP
001C00
003C00
003800
000000
00C180
00E780
007E00
003C00
001000
000000
007E00
01FF60
03FFE0
0783E0
0F01C0
0E01C0
0E0180
0E0000
0F0000
0FF800
07FE00
00FF00
000F80
000380
300380
700780
7C1F00
FFFE00
FFFC00
C7F000
ENDCHAR
STARTCHAR uni1E67
ENCODING 7783
SWIDTH 600 0
DWIDTH 20 0
BBX 17 25 3 0
BITMAP
003800
007800
007000
000000
018300
01CF00
00FC00
007800
002000
000000
01F800
07FF80
0FFF80
1F0F80
1C0600
1E0000
1FF000
0FFC00
03FE00
301E00
700F00
781F00
FFFE00
FFF800
CFE000
ENDCHAR
STARTCHAR uni1E68
ENCODING 7784
SWIDTH 600 0
DWIDTH 20 0
BBX 19 28 2 -4
BITMAP
003800
007800
007000
000000
00FC00
03FF60
07FFE0
0F03E0
0E01C0
0E01C0
0E0180
0F0000
0FC000
07F800
03FE00
007F00
000F80
000380
700380
700380
7C0700
FFFF00
FFFE00
C7F800
000000
01C000
03C000
038000
ENDCHAR
STARTCHAR uni1E69
ENCODING 7785
SWIDTH 600 0
DWIDTH 20 0
BBX 17 23 3 -4
BITMAP
007000
00F000
00E000
000000
01F980
07FF80
0FFF00
1E0F00
1C0600
1E0000
1FF000
0FFC00
01FE00
301E00
700E00
781E00
FFFC00
FFF800
CFE000
000000
038000
078000
070000
ENDCHAR
STARTCHAR uni1E6A
ENCODING 7786
SWIDTH 600 0
DWIDTH 20 0
BBX 18 24 4 0
BITMAP
007000
00F000
00E000
000000
3FFFC0
3FFFC0
7FFF80
71E380
71C380
71C380
E1C700
E1C700
E3C700
038000
038000
038000
078000
070000
070000
070000
070000
7FF000
FFF000
FFE000
ENDCHAR
STARTCHAR uni1E6B
ENCODING 7787
SWIDTH 600 0
DWIDTH 20 0
BBX 15 24 4 0
BITMAP
0380
0780
0700
0000
0380
0780
0700
0F00
0E00
7FFC
FFFC
FFF8
1E00
1C00
1C00
1C00
3C00
3800
3800
380C
3C3E
3FFC
1FF8
0FC0
ENDCHAR
STARTCHAR uni1E6C
ENCODING 7788
SWIDTH 600 0
DWIDTH 20 0
BBX 18 24 4 -4
BITMAP
3FFFC0
3FFFC0
7FFF80
71E380
71C380
71C380
E1C700
E1C700
E3C700
038000
038000
038000
078000
070000
070000
070000
070000
7FF000
FFF000
FFE000
000000
038000
078000
070000
ENDCHAR
STARTCHAR uni1E6D
ENCODING 7789
SWIDTH 600 0
DWIDTH 20 0
BBX 15 24 4 -4
BITMAP
0380
0780
0700
0F00
0E00
7FFC
FFFC
FFF8
1E00
1C00
1C00
1C00
3C00
3800
3800
380C
3C3E
3FFC
1FF8
0FC0
0000
0380
0780
0700
ENDCHAR
STARTCHAR uni1E6E
ENCODING 7790
SWIDTH 600 0
DWIDTH 20 0
BBX 18 23 4 -3
BITMAP
3FFFC0
3FFFC0
7FFF80
71E380
71C380
71C380
E1C700
E1C700
E3C700
038000
038000
038000
078000
070000
070000
070000
070000
7FF000
FFF000
FFE000
000000
3FF800
3FF800
ENDCHAR
STARTCHAR uni1E6F
ENCODING 7791
SWIDTH 600 0
DWIDTH 20 0
BBX 15 23 4 -3
BITMAP
0380
0780
0700
0F00
0E00
7FFC
FFFC
FFF8
1E00
1C00
1C00
1C00
3C00
3800
3800
380C
3C3E
3FFC
1FF8
0FC0
0000
3FF8
3FF8
ENDCHAR
STARTCHAR uni1E70
ENCODING 7792
SWIDTH 600 0
DWIDTH 20 0
BBX 18 26 4 -6
BITMAP
3FFFC0
3FFFC0
7FFF80
71E380
71C380
71C380
E1C700
E1C700
E3C700
038000
038000
038000
078000
070000
070000
070000
070000
7FF000
FFF000
FFE000
000000
010000
038000
0FC000
1CF000
383000
ENDCHAR
STARTCHAR uni1E71
ENCODING 7793
SWIDTH 600 0
DWIDTH 20 0
BBX 15 26 4 -6
BITMAP
0380
0780
0700
0F00
0E00
7FFC
FFFC
FFF8
1E00
1C00
1C00
1C00
3C00
3800
3800
380C
3C3E
3FFC
1FF8
0FC0
0000
0100
0380
0FC0
1CF0
3830
ENDCHAR
STARTCHAR uni1E72
ENCODING 7794
SWIDTH 600 0
DWIDTH 20 0
BBX 19 24 3 -4
BITMAP
7F8FE0
FF9FE0
FF1FC0
3C0780
380700
380700
380700
380700
780F00
700E00
700E00
700E00
F01E00
E01C00
E01C00
703C00
78F800
7FF000
3FE000
0F8000
000000
1C3800
3C7800
387000
ENDCHAR
STARTCHAR uni1E73
ENCODING 7795
SWIDTH 600 0
DWIDTH 20 0
BBX 18 19 3 -4
BITMAP
7E1FC0
FE3FC0
FC3F80
3C0380
380700
380700
380700
780F00
700E00
700E00
701E00
787E00
7FFF80
7FEF80
3F8F00
000000
0E1C00
1E3C00
1C3800
ENDCHAR
STARTCHAR uni1E74
ENCODING 7796
SWIDTH 600 0
DWIDTH 20 0
BBX 19 24 3 -4
BITMAP
7F8FE0
FF9FE0
FF1FC0
3C0780
380700
380700
380700
380700
780F00
700E00
700E00
700E00
F01E00
E01C00
E01C00
703C00
78F800
7FF000
3FE000
0F8000
000000
1F1800
3FF800
31F000
ENDCHAR
STARTCHAR uni1E75
ENCODING 7797
SWIDTH 600 0
DWIDTH 20 0
BBX 18 19 3 -4
BITMAP
7E1FC0
FE3FC0
FC3F80
3C0380
380700
380700
380700
780F00
700E00
700E00
701E00
787E00
7FFF80
7FEF80
3F8F00
000000
0F8C00
1FFC00
18F800
ENDCHAR
STARTCHAR uni1E76
ENCODING 7798
SWIDTH 600 0
DWIDTH 20 0
BBX 19 26 3 -6
BITMAP
7F8FE0
FF9FE0
FF1FC0
3C0780
380700
380700
380700
380700
780F00
700E00
700E00
700E00
F01E00
E01C00
E01C00
703C00
78F800
7FF000
3FE000
0F8000
000000
010000
038000
0FC000
1CF000
383000
ENDCHAR
STARTCHAR uni1E77
ENCODING 7799
SWIDTH 600 0
DWIDTH 20 0
BBX 18 21 3 -6
BITMAP
7E1FC0
FE3FC0
FC3F80
3C0380
380700
380700
380700
780F00
700E00
700E00
701E00
787E00
7FFF80
7FEF80
3F8F00
000000
004000
00E000
03F000
073C00
0E0C00
ENDCHAR
STARTCHAR uni1E78
ENCODING 7800
SWIDTH 600 0
DWIDTH 20 0
BBX 19 31 3 0
BITMAP
000F00
001E00
003C00
007000
00E000
01C000
000000
07C600
0FFE00
0C7C00
000000
7F8FE0
FF9FE0
FF1FC0
3C0780
380700
380700
380700
380700
780F00
700E00
700E00
700E00
F01E00
E01C00
E01C00
703C00
78F800
7FF000
3FE000
0F8000
ENDCHAR
STARTCHAR uni1E79
ENCODING 7801
SWIDTH 600 0
DWIDTH 20 0
BBX 18 26 3 0
BITMAP
001E00
003C00
007800
00E000
01C000
038000
000000
0F8C00
1FFC00
18F800
000000
7E1FC0
FE3FC0
FC3F80
3C0380
380700
380700
380700
780F00
700E00
700E00
701E00
787E00
7FFF80
7FEF80
3F8F00
ENDCHAR
STARTCHAR uni1E7A
ENCODING 7802
SWIDTH 600 0
DWIDTH 20 0
BBX 19 27 3 0
BITMAP
070E00
0F1E00
0E1C00
000000
0FFE00
0FFE00
000000
7F8FE0
FF9FE0
FF1FC0
3C0780
380700
380700
380700
380700
780F00
700E00
700E00
700E00
F01E00
E01C00
E01C00
703C00
78F800
7FF000
3FE000
0F8000
ENDCHAR
STARTCHAR uni1E7B
ENCODING 7803
SWIDTH 600 0
DWIDTH 20 0
BBX 18 22 3 0
BITMAP
070E00
0F1E00
0E1C00
000000
0FFE00
0FFE00
000000
7E1FC0
FE3FC0
FC3F80
3C0380
380700
380700
380700
780F00
700E00
700E00
701E00
787E00
7FFF80
7FEF80
3F8F00
ENDCHAR
STARTCHAR uni1E7C
ENCODING 7804
SWIDTH 600 0
DWIDTH 20 0
BBX 21 24 3 0
BITMAP
03E300
07FF00
063E00
000000
7F07F8
FF0FF8
FE0FF0
3801C0
3803C0
380380
1C0700
1C0F00
1C0E00
1C1E00
1C1C00
1E3800
0E7800
0E7000
0EE000
0FE000
0FC000
07C000
078000
070000
ENDCHAR
STARTCHAR uni1E7D
ENCODING 7805
SWIDTH 600 0
DWIDTH 20 0
BBX 19 19 3 0
BITMAP
07C600
0FFE00
0C7C00
000000
7F0FE0
FF1FE0
FE1FC0
380700
380E00
1C1E00
1C1C00
1C3800
1C7800
0E7000
0EE000
0FE000
0FC000
078000
070000
ENDCHAR
STARTCHAR uni1E7E
ENCODING 7806
SWIDTH 600 0
DWIDTH 20 0
BBX 21 24 3 -4
BITMAP
7F07F8
FF0FF8
FE0FF0
3801C0
3803C0
380380
1C0700
1C0F00
1C0E00
1C1E00
1C1C00
1E3800
0E7800
0E7000
0EE000
0FE000
0FC000
07C000
078000
070000
000000
01C000
03C000
038000
ENDCHAR
STARTCHAR uni1E7F
ENCODING 7807
SWIDTH 600 0
DWIDTH 20 0
BBX 19 19 3 -4
BITMAP
7F0FE0
FF1FE0
FE1FC0
380700
380E00
1C1E00
1C1C00
1C3800
1C7800
0E7000
0EE000
0FE000
0FC000
078000
070000
000000
01C000
03C000
038000
ENDCHAR
STARTCHAR Wgrave
ENCODING 7808
SWIDTH 600 0
DWIDTH 20 0
BBX 22 26 3 0
BITMAP
03C000
01E000
007000
003800
001800
000000
7F81FC
FF83FC
FF03F8
3800F0
3870E0
3870E0
38F1E0
38F1C0
39F9C0
39F9C0
3BBB80
3B3B80
3F3B80
7E3F00
7E3F00
7C1F00
7C1E00
781E00
781E00
701E00
ENDCHAR
STARTCHAR wgrave
ENCODING 7809
SWIDTH 600 0
DWIDTH 20 0
BBX 20 21 2 0
BITMAP
078000
03C000
00E000
007000
003000
000000
7F03F0
FF07F0
FE07E0
3861C0
38E380
38E380
39F300
3BF700
3BF600
3F7600
3E7E00
3E7C00
3C3C00
3C3800
383800
ENDCHAR
STARTCHAR Wacute
ENCODING 7810
SWIDTH 600 0
DWIDTH 20 0
BBX 22 27 3 0
BITMAP
000780
000F00
001E00
003800
007000
00E000
000000
7F81FC
FF83FC
FF03F8
3800F0
3870E0
3870E0
38F1E0
38F1C0
39F9C0
39F9C0
3BBB80
3B3B80
3F3B80
7E3F00
7E3F00
7C1F00
7C1E00
781E00
781E00
701E00
ENDCHAR
STARTCHAR wacute
ENCODING 7811
SWIDTH 600 0
DWIDTH 20 0
BBX 20 22 2 0
BITMAP
000F00
001E00
003C00
007000
00E000
01C000
000000
7F03F0
FF07F0
FE07E0
3861C0
38E380
38E380
39F300
3BF700
3BF600
3F7600
3E7E00
3E7C00
3C3C00
3C3800
383800
ENDCHAR
STARTCHAR Wdieresis
ENCODING 7812
SWIDTH 600 0
DWIDTH 20 0
BBX 22 24 3 0
BITMAP
01C380
03C780
038700
000000
7F81FC
FF83FC
FF03F8
3800F0
3870E0
3870E0
38F1E0
38F1C0
39F9C0
39F9C0
3BBB80
3B3B80
3F3B80
7E3F00
7E3F00
7C1F00
7C1E00
781E00
781E00
701E00
ENDCHAR
STARTCHAR wdieresis
ENCODING 7813
SWIDTH 600 0
DWIDTH 20 0
BBX 20 19 2 0
BITMAP
038700
078F00
070E00
000000
7F03F0
FF07F0
FE07E0
3861C0
38E380
38E380
39F300
3BF700
3BF600
3F7600
3E7E00
3E7C00
3C3C00
3C3800
383800
ENDCHAR
STARTCHAR uni1E86
ENCODING 7814
SWIDTH 600 0
DWIDTH 20 0
BBX 22 24 3 0
BITMAP
003800
007800
007000
000000
7F81FC
FF83FC
FF03F8
3800F0
3870E0
3870E0
38F1E0
38F1C0
39F9C0
39F9C0
3BBB80
3B3B80
3F3B80
7E3F00
7E3F00
7C1F00
7C1E00
781E00
781E00
701E00
ENDCHAR
STARTCHAR uni1E87
ENCODING 7815
SWIDTH 600 0
DWIDTH 20 0
BBX 20 19 2 0
BITMAP
007000
00F000
00E000
000000
7F03F0
FF07F0
FE07E0
3861C0
38E380
38E380
39F300
3BF700
3BF600
3F7600
3E7E00
3E7C00
3C3C00
3C3800
383800
ENDCHAR
STARTCHAR uni1E88
ENCODING 7816
SWIDTH 600 0
DWIDTH 20 0
BBX 22 24 3 -4
BITMAP
7F81FC
FF83FC
FF03F8
3800F0
3870E0
3870E0
38F1E0
38F1C0
39F9C0
39F9C0
3BBB80
3B3B80
3F3B80
7E3F00
7E3F00
7C1F00
7C1E00
781E00
781E00
701E00
000000
00E000
01E000
01C000
ENDCHAR
STARTCHAR uni1E89
ENCODING 7817
SWIDTH 600 0
DWIDTH 20 0
BBX 20 19 2 -4
BITMAP
7F03F0
FF07F0
FE07E0
3861C0
38E380
38E380
39F300
3BF700
3BF600
3F7600
3E7E00
3E7C00
3C3C00
3C3800
383800
000000
01C000
03C000
038000
ENDCHAR
STARTCHAR uni1E8A
ENCODING 7818
SWIDTH 600 0
DWIDTH 20 0
BBX 23 24 0 0
BITMAP
000E00
001E00
001C00
000000
07E0FE
0FE1FE
0FC1FC
03C0F0
01C1E0
01E3C0
00F780
00FF00
007E00
003C00
007C00
00FE00
01FE00
03CF00
078700
0F0780
1E0380
7F0FE0
FF1FE0
FE1FC0
ENDCHAR
STARTCHAR uni1E8B
ENCODING 7819
SWIDTH 600 0
DWIDTH 20 0
BBX 20 19 1 0
BITMAP
003800
007800
007000
000000
1FC3F0
3FC7F0
3F87E0
070780
038E00
01DC00
00F800
00F000
01F800
039C00
0F0E00
1E0700
7F1FC0
FF3FC0
FE3F80
ENDCHAR
STARTCHAR uni1E8C
ENCODING 7820
SWIDTH 600 0
DWIDTH 20 0
BBX 23 24 0 0
BITMAP
0070E0
00F1E0
00E1C0
000000
07E0FE
0FE1FE
0FC1FC
03C0F0
01C1E0
01E3C0
00F780
00FF00
007E00
003C00
007C00
00FE00
01FE00
03CF00
078700
0F0780
1E0380
7F0FE0
FF1FE0
FE1FC0
ENDCHAR
STARTCHAR uni1E8D
ENCODING 7821
SWIDTH 600 0
DWIDTH 20 0
BBX 20 19 1 0
BITMAP
038700
078F00
070E00
000000
1FC3F0
3FC7F0
3F87E0
070780
038E00
01DC00
00F800
00F000
01F800
039C00
0F0E00
1E0700
7F1FC0
FF3FC0
FE3F80
ENDCHAR
STARTCHAR uni1E8E
ENCODING 7822
SWIDTH 600 0
DWIDTH 20 0
BBX 19 24 4 0
BITMAP
007000
00F000
00E000
000000
7E0FE0
FE1FE0
FC1FC0
3C0F00
1C1E00
1E3C00
0E3800
0F7000
077000
07E000
07C000
038000
038000
038000
070000
070000
070000
7FF000
FFF000
FFE000
ENDCHAR
STARTCHAR uni1E8F
ENCODING 7823
SWIDTH 600 0
DWIDTH 20 0
BBX 23 26 -1 -7
BITMAP
000E00
001E00
001C00
000000
07E0FE
0FE1FE
0FC1FC
038078
0380F0
0381E0
01C1C0
01C380
01C780
01E700
00EE00
00FE00
00FC00
00F800
007000
00F000
00E000
01C000
038000
7FF000
FFF000
FFE000
ENDCHAR
STARTCHAR uni1E90
ENCODING 7824
SWIDTH 600 0
DWIDTH 20 0
BBX 18 26 2 0
BITMAP
002000
007000
01F800
039E00
070600
000000
07FFC0
07FFC0
07FFC0
0F03C0
0E0780
0E0F00
1C1E00
003C00
007800
00F000
01E000
03C000
078000
0F0380
1E0700
3C0700
780F00
7FFF00
7FFE00
FFFE00
ENDCHAR
STARTCHAR uni1E91
ENCODING 7825
SWIDTH 600 0
DWIDTH 20 0
BBX 17 21 3 0
BITMAP
004000
00E000
03F000
073C00
0E0C00
000000
1FFF80
3FFF80
3FFF00
781E00
703C00
70F800
01F000
03C000
078000
0F0700
3E0F00
7C0E00
FFFE00
FFFC00
FFFC00
ENDCHAR
STARTCHAR uni1E92
ENCODING 7826
SWIDTH 600 0
DWIDTH 20 0
BBX 18 24 2 -4
BITMAP
07FFC0
07FFC0
07FFC0
0F03C0
0E0780
0E0F00
1C1E00
003C00
007800
00F000
01E000
03C000
078000
0F0380
1E0700
3C0700
780F00
7FFF00
7FFE00
FFFE00
000000
01C000
03C000
038000
ENDCHAR
STARTCHAR uni1E93
ENCODING 7827
SWIDTH 600 0
DWIDTH 20 0
BBX 17 19 3 -4
BITMAP
1FFF80
3FFF80
3FFF00
781E00
703C00
70F800
01F000
03C000
078000
0F0700
3E0F00
7C0E00
FFFE00
FFFC00
FFFC00
000000
038000
078000
070000
ENDCHAR
STARTCHAR uni1E94
ENCODING 7828
SWIDTH 600 0
DWIDTH 20 0
BBX 18 23 2 -3
BITMAP
07FFC0
07FFC0
07FFC0
0F03C0
0E0780
0E0F00
1C1E00
003C00
007800
00F000
01E000
03C000
078000
0F0380
1E0700
3C0700
780F00
7FFF00
7FFE00
FFFE00
000000
1FFC00
1FFC00
ENDCHAR
STARTCHAR uni1E95
ENCODING 7829
SWIDTH 600 0
DWIDTH 20 0
BBX 17 18 3 -3
BITMAP
1FFF80
3FFF80
3FFF00
781E00
703C00
70F800
01F000
03C000
078000
0F0700
3E0F00
7C0E00
FFFE00
FFFC00
FFFC00
000000
3FF800
3FF800
ENDCHAR
STARTCHAR uni1E96
ENCODING 7830
SWIDTH 600 0
DWIDTH 20 0
BBX 19 24 1 -3
BITMAP
0FC000
1FC000
1F8000
038000
078000
070000
071E00
077F80
07FFC0
0F83C0
0F01C0
0E01C0
0E01C0
1E03C0
1C0380
1C0380
1C0380
1C0380
7F0FE0
FF1FE0
FE1FC0
000000
0FFE00
0FFE00
ENDCHAR
STARTCHAR uni1E97
ENCODING 7831
SWIDTH 600 0
DWIDTH 20 0
BBX 15 24 4 0
BITMAP
1C38
3C78
3870
0000
0380
0780
0700
0F00
0E00
7FFC
FFFC
FFF8
1E00
1C00
1C00
1C00
3C00
3800
3800
380C
3C3E
3FFC
1FF8
0FC0
ENDCHAR
STARTCHAR uni1E98
ENCODING 7832
SWIDTH 600 0
DWIDTH 20 0
BBX 20 21 2 0
BITMAP
00F000
018800
010800
011800
00F000
000000
7F03F0
FF07F0
FE07E0
3861C0
38E380
38E380
39F300
3BF700
3BF600
3F7600
3E7E00
3E7C00
3C3C00
3C3800
383800
ENDCHAR
STARTCHAR uni1E99
ENCODING 7833
SWIDTH 600 0
DWIDTH 20 0
BBX 23 28 -1 -7
BITMAP
001E00
003100
002100
002300
001E00
000000
07E0FE
0FE1FE
0FC1FC
038078
0380F0
0381E0
01C1C0
01C380
01C780
01E700
00EE00
00FE00
00FC00
00F800
007000
00F000
00E000
01C000
038000
7FF000
FFF000
FFE000
ENDCHAR
STARTCHAR uni1EA0
ENCODING 7840
SWIDTH 600 0
DWIDTH 20 0
BBX 21 24 -1 -4
BITMAP
00FF80
01FF80
01FF80
001F80
003B80
003B80
0073C0
00F1C0
00E1C0
01E1C0
01C1C0
0381C0
07FFE0
07FFE0
0FFFE0
0E00E0
1C00E0
7F83F8
FF87F8
FF07F0
000000
007000
00F000
00E000
ENDCHAR
STARTCHAR uni1EA1
ENCODING 7841
SWIDTH 600 0
DWIDTH 20 0
BBX 16 19 3 -4
BITMAP
01F0
0FFC
1FFE
1E0E
000E
000E
07FE
1FFE
3FFC
781C
F01C
E07C
F7FF
FFDF
7F9E
0000
01C0
03C0
0380
ENDCHAR
STARTCHAR uni1EA4
ENCODING 7844
SWIDTH 600 0
DWIDTH 20 0
BBX 21 33 -1 0
BITMAP
0001E0
0003C0
000780
000E00
001C00
003800
000000
000200
000F00
001F80
0071C0
0060C0
000000
00FF80
01FF80
01FF80
001F80
003B80
003B80
0073C0
00F1C0
00E1C0
01E1C0
01C1C0
0381C0
07FFE0
07FFE0
0FFFE0
0E00E0
1C00E0
7F83F8
FF87F8
FF07F0
ENDCHAR
STARTCHAR uni1EA5
ENCODING 7845
SWIDTH 600 0
DWIDTH 20 0
BBX 16 29 3 0
BITMAP
000F
001E
003C
0070
00E0
01C0
0000
0010
0078
00FC
038E
0306
0000
0000
01F0
0FFC
1FFE
1E0E
000E
000E
07FE
1FFE
3FFC
781C
F01C
E07C
F7FF
FFDF
7F9E
ENDCHAR
STARTCHAR uni1EA6
ENCODING 7846
SWIDTH 600 0
DWIDTH 20 0
BBX 21 32 -1 0
BITMAP
01E000
00F000
003800
001C00
000C00
000000
000200
000F00
001F80
0071C0
0060C0
000000
00FF80
01FF80
01FF80
001F80
003B80
003B80
0073C0
00F1C0
00E1C0
01E1C0
01C1C0
0381C0
07FFE0
07FFE0
0FFFE0
0E00E0
1C00E0
7F83F8
FF87F8
FF07F0
ENDCHAR
STARTCHAR uni1EA7
ENCODING 7847
SWIDTH 600 0
DWIDTH 20 0
BBX 16 28 3 0
BITMAP
0780
03C0
00E0
0070
0030
0000
0010
0078
00FC
038E
0306
0000
0000
01F0
0FFC
1FFE
1E0E
000E
000E
07FE
1FFE
3FFC
781C
F01C
E07C
F7FF
FFDF
7F9E
ENDCHAR
STARTCHAR uni1EAA
ENCODING 7850
SWIDTH 600 0
DWIDTH 20 0
BBX 21 30 -1 0
BITMAP
00F8C0
01FFC0
018F80
000000
000200
000F00
001F80
0071C0
0060C0
000000
00FF80
01FF80
01FF80
001F80
003B80
003B80
0073C0
00F1C0
00E1C0
01E1C0
01C1C0
0381C0
07FFE0
07FFE0
0FFFE0
0E00E0
1C00E0
7F83F8
FF87F8
FF07F0
ENDCHAR
STARTCHAR uni1EAB
ENCODING 7851
SWIDTH 600 0
DWIDTH 20 0
BBX 16 26 3 0
BITMAP
07C6
0FFE
0C7C
0000
0010
0078
00FC
038E
0306
0000
0000
01F0
0FFC
1FFE
1E0E
000E
000E
07FE
1FFE
3FFC
781C
F01C
E07C
F7FF
FFDF
7F9E
ENDCHAR
STARTCHAR uni1EAC
ENCODING 7852
SWIDTH 600 0
DWIDTH 20 0
BBX 21 30 -1 -4
BITMAP
000800
001C00
007E00
00E780
01C180
000000
00FF80
01FF80
01FF80
001F80
003B80
003B80
0073C0
00F1C0
00E1C0
01E1C0
01C1C0
0381C0
07FFE0
07FFE0
0FFFE0
0E00E0
1C00E0
7F83F8
FF87F8
FF07F0
000000
007000
00F000
00E000
ENDCHAR
STARTCHAR uni1EAD
ENCODING 7853
SWIDTH 600 0
DWIDTH 20 0
BBX 16 25 3 -4
BITMAP
0040
00E0
03F0
073C
0E0C
0000
01F0
0FFC
1FFE
1E0E
000E
000E
07FE
1FFE
3FFC
781C
F01C
E07C
F7FF
FFDF
7F9E
0000
01C0
03C0
0380
ENDCHAR
STARTCHAR uni1EAE
ENCODING 7854
SWIDTH 600 0
DWIDTH 20 0
BBX 21 33 -1 0
BITMAP
0003C0
000780
000F00
001C00
003800
007000
000000
0181C0
0181C0
01E380
00FF00
003C00
000000
00FF80
01FF80
01FF80
001F80
003B80
003B80
0073C0
00F1C0
00E1C0
01E1C0
01C1C0
0381C0
07FFE0
07FFE0
0FFFE0
0E00E0
1C00E0
7F83F8
FF87F8
FF07F0
ENDCHAR
STARTCHAR uni1EAF
ENCODING 7855
SWIDTH 600 0
DWIDTH 20 0
BBX 16 28 3 0
BITMAP
001E
003C
0078
00E0
01C0
0380
0000
0C0E
0C0E
0F1C
07F8
01E0
0000
01F0
0FFC
1FFE
1E0E
000E
000E
07FE
1FFE
3FFC
781C
F01C
E07C
F7FF
FFDF
7F9E
ENDCHAR
STARTCHAR uni1EB0
ENCODING 7856
SWIDTH 600 0
DWIDTH 20 0
BBX 21 32 -1 0
BITMAP
01E000
00F000
003800
001C00
000C00
000000
0181C0
0181C0
01E380
00FF00
003C00
000000
00FF80
01FF80
01FF80
001F80
003B80
003B80
0073C0
00F1C0
00E1C0
01E1C0
01C1C0
0381C0
07FFE0
07FFE0
0FFFE0
0E00E0
1C00E0
7F83F8
FF87F8
FF07F0
ENDCHAR
STARTCHAR uni1EB1
ENCODING 7857
SWIDTH 600 0
DWIDTH 20 0
BBX 16 27 3 0
BITMAP
0F00
0780
01C0
00E0
0060
0000
0C0E
0C0E
0F1C
07F8
01E0
0000
01F0
0FFC
1FFE
1E0E
000E
000E
07FE
1FFE
3FFC
781C
F01C
E07C
F7FF
FFDF
7F9E
ENDCHAR
STARTCHAR uni1EB4
ENCODING 7860
SWIDTH 600 0
DWIDTH 20 0
BBX 21 30 -1 0
BITMAP
01F180
03FF80
031F00
000000
0181C0
0181C0
01E380
00FF00
003C00
000000
00FF80
01FF80
01FF80
001F80
003B80
003B80
0073C0
00F1C0
00E1C0
01E1C0
01C1C0
0381C0
07FFE0
07FFE0
0FFFE0
0E00E0
1C00E0
7F83F8
FF87F8
FF07F0
ENDCHAR
STARTCHAR uni1EB5
ENCODING 7861
SWIDTH 600 0
DWIDTH 20 0
BBX 16 25 3 0
BITMAP
0F8C
1FFC
18F8
0000
0C0E
0C0E
0F1C
07F8
01E0
0000
01F0
0FFC
1FFE
1E0E
000E
000E
07FE
1FFE
3FFC
781C
F01C
E07C
F7FF
FFDF
7F9E
ENDCHAR
STARTCHAR uni1EB6
ENCODING 7862
SWIDTH 600 0
DWIDTH 20 0
BBX 21 30 -1 -4
BITMAP
0181C0
0181C0
01E380
00FF00
003C00
000000
00FF80
01FF80
01FF80
001F80
003B80
003B80
0073C0
00F1C0
00E1C0
01E1C0
01C1C0
0381C0
07FFE0
07FFE0
0FFFE0
0E00E0
1C00E0
7F83F8
FF87F8
FF07F0
000000
007000
00F000
00E000
ENDCHAR
STARTCHAR uni1EB7
ENCODING 7863
SWIDTH 600 0
DWIDTH 20 0
BBX 16 25 3 -4
BITMAP
0C0E
0C0E
0F1C
07F8
01E0
0000
01F0
0FFC
1FFE
1E0E
000E
000E
07FE
1FFE
3FFC
781C
F01C
E07C
F7FF
FFDF
7F9E
0000
01C0
03C0
0380
ENDCHAR
STARTCHAR uni1EB8
ENCODING 7864
SWIDTH 600 0
DWIDTH 20 0
BBX 21 24 1 -4
BITMAP
0FFFF8
1FFFF8
1FFFF0
078070
070070
070070
070E60
070E00
0FFE00
0FFC00
0FFC00
0E1C00
1E1C00
1C1CE0
1C01C0
1C01C0
1C01C0
7FFFC0
FFFF80
FFFF80
000000
00E000
01E000
01C000
ENDCHAR
STARTCHAR uni1EB9
ENCODING 7865
SWIDTH 600 0
DWIDTH 20 0
BBX 17 19 3 -4
BITMAP
03F000
0FFC00
1FFE00
3C0F00
780700
F00780
FFFF80
FFFF80
FFFF00
E00000
E00000
F81F00
7FFF00
3FFE00
0FF000
000000
01C000
03C000
038000
ENDCHAR
STARTCHAR uni1EBC
ENCODING 7868
SWIDTH 600 0
DWIDTH 20 0
BBX 21 24 1 0
BITMAP
01F180
03FF80
031F00
000000
0FFFF8
1FFFF8
1FFFF0
078070
070070
070070
070E60
070E00
0FFE00
0FFC00
0FFC00
0E1C00
1E1C00
1C1CE0
1C01C0
1C01C0
1C01C0
7FFFC0
FFFF80
FFFF80
ENDCHAR
STARTCHAR uni1EBD
ENCODING 7869
SWIDTH 600 0
DWIDTH 20 0
BBX 17 19 3 0
BITMAP
0F8C00
1FFC00
18F800
000000
03F000
0FFC00
1FFE00
3C0F00
780700
F00780
FFFF80
FFFF80
FFFF00
E00000
E00000
F81F00
7FFF00
3FFE00
0FF000
ENDCHAR
STARTCHAR uni1EBE
ENCODING 7870
SWIDTH 600 0
DWIDTH 20 0
BBX 21 33 1 0
BITMAP
0003C0
000780
000F00
001C00
003800
007000
000000
000400
001E00
003F00
00F380
00C180
000000
0FFFF8
1FFFF8
1FFFF0
078070
070070
070070
070E60
070E00
0FFE00
0FFC00
0FFC00
0E1C00
1E1C00
1C1CE0
1C01C0
1C01C0
1C01C0
7FFFC0
FFFF80
FFFF80
ENDCHAR
STARTCHAR uni1EBF
ENCODING 7871
SWIDTH 600 0
DWIDTH 20 0
BBX 17 29 3 0
BITMAP
001E00
003C00
007800
00E000
01C000
038000
000000
004000
01E000
03F000
0F3800
0C1800
000000
000000
03F000
0FFC00
1FFE00
3C0F00
780700
F00780
FFFF80
FFFF80
FFFF00
E00000
E00000
F81F00
7FFF00
3FFE00
0FF000
ENDCHAR
STARTCHAR uni1EC0
ENCODING 7872
SWIDTH 600 0
DWIDTH 20 0
BBX 21 32 1 0
BITMAP
01E000
00F000
003800
001C00
000C00
000000
000400
001E00
003F00
00F380
00C180
000000
0FFFF8
1FFFF8
1FFFF0
078070
070070
070070
070E60
070E00
0FFE00
0FFC00
0FFC00
0E1C00
1E1C00
1C1CE0
1C01C0
1C01C0
1C01C0
7FFFC0
FFFF80
FFFF80
ENDCHAR
STARTCHAR uni1EC1
ENCODING 7873
SWIDTH 600 0
DWIDTH 20 0
BBX 17 28 3 0
BITMAP
0F0000
078000
01C000
00E000
006000
000000
004000
01E000
03F000
0F3800
0C1800
000000
000000
03F000
0FFC00
1FFE00
3C0F00
780700
F00780
FFFF80
FFFF80
FFFF00
E00000
E00000
F81F00
7FFF00
3FFE00
0FF000
ENDCHAR
STARTCHAR uni1EC4
ENCODING 7876
SWIDTH 600 0
DWIDTH 20 0
BBX 21 30 1 0
BITMAP
01F180
03FF80
031F00
000000
000400
001E00
003F00
00F380
00C180
000000
0FFFF8
1FFFF8
1FFFF0
078070
070070
070070
070E60
070E00
0FFE00
0FFC00
0FFC00
0E1C00
1E1C00
1C1CE0
1C01C0
1C01C0
1C01C0
7FFFC0
FFFF80
FFFF80
ENDCHAR
STARTCHAR uni1EC5
ENCODING 7877
SWIDTH 600 0
DWIDTH 20 0
BBX 17 26 3 0
BITMAP
0F8C00
1FFC00
18F800
000000
004000
01E000
03F000
0F3800
0C1800
000000
000000
03F000
0FFC00
1FFE00
3C0F00
780700
F00780
FFFF80
FFFF80
FFFF00
E00000
E00000
F81F00
7FFF00
3FFE00
0FF000
ENDCHAR
STARTCHAR uni1EC6
ENCODING 7878
SWIDTH 600 0
DWIDTH 20 0
BBX 21 30 1 -4
BITMAP
001000
003800
00FC00
01CF00
038300
000000
0FFFF8
1FFFF8
1FFFF0
078070
070070
070070
070E60
070E00
0FFE00
0FFC00
0FFC00
0E1C00
1E1C00
1C1CE0
1C01C0
1C01C0
1C01C0
7FFFC0
FFFF80
FFFF80
000000
00E000
01E000
01C000
ENDCHAR
STARTCHAR uni1EC7
ENCODING 7879
SWIDTH 600 0
DWIDTH 20 0
BBX 17 25 3 -4
BITMAP
004000
00E000
03F000
073C00
0E0C00
000000
03F000
0FFC00
1FFE00
3C0F00
780700
F00780
FFFF80
FFFF80
FFFF00
E00000
E00000
F81F00
7FFF00
3FFE00
0FF000
000000
01C000
03C000
038000
ENDCHAR
STARTCHAR uni1ECA
ENCODING 7882
SWIDTH 600 0
DWIDTH 20 0
BBX 17 24 3 -4
BITMAP
0FFF80
1FFF80
1FFF00
00F000
00E000
00E000
00E000
00E000
01E000
01C000
01C000
01C000
03C000
038000
038000
038000
038000
7FFC00
FFFC00
FFF800
000000
038000
078000
070000
ENDCHAR
STARTCHAR uni1ECB
ENCODING 7883
SWIDTH 600 0
DWIDTH 20 0
BBX 16 25 2 -4
BITMAP
0078
0078
00F8
00F0
0000
0000
07F0
0FF0
0FF0
00F0
00E0
00E0
00E0
01E0
01C0
01C0
01C0
01C0
7FFF
FFFF
FFFE
0000
01C0
03C0
0380
ENDCHAR
STARTCHAR uni1ECC
ENCODING 7884
SWIDTH 600 0
DWIDTH 20 0
BBX 18 24 2 -4
BITMAP
00FC00
03FF00
0FFF80
0F0780
1E03C0
3C01C0
7801C0
7001C0
7001C0
E001C0
E001C0
E003C0
E00380
E00780
F00700
700F00
7C3E00
3FFC00
1FF000
07C000
000000
01C000
03C000
038000
ENDCHAR
STARTCHAR uni1ECD
ENCODING 7885
SWIDTH 600 0
DWIDTH 20 0
BBX 16 19 3 -4
BITMAP
01F0
0FFC
1FFE
3C0F
3807
7007
7003
F007
6007
700E
700E
783C
3FFC
1FF0
07C0
0000
0380
0780
0700
ENDCHAR
STARTCHAR uni1ED0
ENCODING 7888
SWIDTH 600 0
DWIDTH 20 0
BBX 18 33 2 0
BITMAP
000780
000F00
001E00
003800
007000
00E000
000000
000800
003C00
007E00
01E700
018300
000000
00FC00
03FF00
0FFF80
0F0780
1E03C0
3C01C0
7801C0
7001C0
7001C0
E001C0
E001C0
E003C0
E00380
E00780
F00700
700F00
7C3E00
3FFC00
1FF000
07C000
ENDCHAR
STARTCHAR uni1ED1
ENCODING 7889
SWIDTH 600 0
DWIDTH 20 0
BBX 15 29 4 0
BITMAP
003C
0078
00F0
01C0
0380
0700
0000
0040
01E0
07F0
0E38
0C18
0000
0000
03E0
1FF8
3FFC
781E
700E
E00E
E006
E00E
C00E
E01C
E01C
F078
7FF8
3FE0
0F80
ENDCHAR
STARTCHAR uni1ED2
ENCODING 7890
SWIDTH 600 0
DWIDTH 20 0
BBX 18 32 2 0
BITMAP
03C000
01E000
007000
003800
001800
000000
000800
003C00
007E00
01E700
018300
000000
00FC00
03FF00
0FFF80
0F0780
1E03C0
3C01C0
7801C0
7001C0
7001C0
E001C0
E001C0
E003C0
E00380
E00780
F00700
700F00
7C3E00
3FFC00
1FF000
07C000
ENDCHAR
STARTCHAR uni1ED3
ENCODING 7891
SWIDTH 600 0
DWIDTH 20 0
BBX 15 28 4 0
BITMAP
1E00
0F00
0380
01C0
00C0
0000
0040
01E0
07F0
0E38
0C18
0000
0000
03E0
1FF8
3FFC
781E
700E
E00E
E006
E00E
C00E
E01C
E01C
F078
7FF8
3FE0
0F80
ENDCHAR
STARTCHAR uni1ED6
ENCODING 7894
SWIDTH 600 0
DWIDTH 20 0
BBX 18 30 2 0
BITMAP
03E300
07FF00
063E00
000000
000800
003C00
007E00
01E700
018300
000000
00FC00
03FF00
0FFF80
0F0780
1E03C0
3C01C0
7801C0
7001C0
7001C0
E001C0
E001C0
E003C0
E00380
E00780
F00700
700F00
7C3E00
3FFC00
1FF000
07C000
ENDCHAR
STARTCHAR uni1ED7
ENCODING 7895
SWIDTH 600 0
DWIDTH 20 0
BBX 15 26 4 0
BITMAP
0F8C
1FFC
18F8
0000
0040
01E0
07F0
0E38
0C18
0000
0000
03E0
1FF8
3FFC
781E
700E
E00E
E006
E00E
C00E
E01C
E01C
F078
7FF8
3FE0
0F80
ENDCHAR
STARTCHAR uni1ED8
ENCODING 7896
SWIDTH 600 0
DWIDTH 20 0
BBX 18 30 2 -4
BITMAP
002000
007000
01F800
039E00
070600
000000
00FC00
03FF00
0FFF80
0F0780
1E03C0
3C01C0
7801C0
7001C0
7001C0
E001C0
E001C0
E003C0
E00380
E00780
F00700
700F00
7C3E00
3FFC00
1FF000
07C000
000000
01C000
03C000
038000
ENDCHAR
STARTCHAR uni1ED9
ENCODING 7897
SWIDTH 600 0
DWIDTH 20 0
BBX 16 25 3 -4
BITMAP
0040
00E0
03F0
073C
0E0C
0000
01F0
0FFC
1FFE
3C0F
3807
7007
7003
F007
6007
700E
700E
783C
3FFC
1FF0
07C0
0000
0380
0780
0700
ENDCHAR
STARTCHAR uni1EDA
ENCODING 7898
SWIDTH 600 0
DWIDTH 20 0
BBX 25 27 2 0
BITMAP
0001E000
0003C000
00078000
000E0000
001C0000
00380000
00000000
00FC0F80
03FF0F00
0FFF9E00
0F079C00
1E03F800
3C01F800
7801F000
7001E000
7001C000
E001C000
E001C000
E003C000
E0038000
E0078000
F0070000
700F0000
7C3E0000
3FFC0000
1FF00000
07C00000
ENDCHAR
STARTCHAR uni1EDB
ENCODING 7899
SWIDTH 600 0
DWIDTH 20 0
BBX 24 22 3 0
BITMAP
0001E0
0003C0
000780
000E00
001C00
003800
000000
01F01F
0FFC1E
1FFE3C
3C0F38
380770
700770
7003E0
F007C0
600780
700E00
700E00
783C00
3FFC00
1FF000
07C000
ENDCHAR
STARTCHAR uni1EDC
ENCODING 7900
SWIDTH 600 0
DWIDTH 20 0
BBX 25 26 2 0
BITMAP
00F00000
00780000
001C0000
000E0000
00060000
00000000
00FC0F80
03FF0F00
0FFF9E00
0F079C00
1E03F800
3C01F800
7801F000
7001E000
7001C000
E001C000
E001C000
E003C000
E0038000
E0078000
F0070000
700F0000
7C3E0000
3FFC0000
1FF00000
07C00000
ENDCHAR
STARTCHAR uni1EDD
ENCODING 7901
SWIDTH 600 0
DWIDTH 20 0
BBX 24 21 3 0
BITMAP
01E000
00F000
003800
001C00
000C00
000000
01F01F
0FFC1E
1FFE3C
3C0F38
380770
700770
7003E0
F007C0
600780
700E00
700E00
783C00
3FFC00
1FF000
07C000
ENDCHAR
STARTCHAR uni1EE0
ENCODING 7904
SWIDTH 600 0
DWIDTH 20 0
BBX 25 24 2 0
BITMAP
007C6000
00FFE000
00C7C000
00000000
00FC0F80
03FF0F00
0FFF9E00
0F079C00
1E03F800
3C01F800
7801F000
7001E000
7001C000
E001C000
E001C000
E003C000
E0038000
E0078000
F0070000
700F0000
7C3E0000
3FFC0000
1FF00000
07C00000
ENDCHAR
STARTCHAR uni1EE1
ENCODING 7905
SWIDTH 600 0
DWIDTH 20 0
BBX 24 19 3 0
BITMAP
00F8C0
01FFC0
018F80
000000
01F01F
0FFC1E
1FFE3C
3C0F38
380770
700770
7003E0
F007C0
600780
700E00
700E00
783C00
3FFC00
1FF000
07C000
ENDCHAR
STARTCHAR uni1EE2
ENCODING 7906
SWIDTH 600 0
DWIDTH 20 0
BBX 25 24 2 -4
BITMAP
00FC0F80
03FF0F00
0FFF9E00
0F079C00
1E03F800
3C01F800
7801F000
7001E000
7001C000
E001C000
E001C000
E003C000
E0038000
E0078000
F0070000
700F0000
7C3E0000
3FFC0000
1FF00000
07C00000
00000000
00E00000
01E00000
01C00000
ENDCHAR
STARTCHAR uni1EE3
ENCODING 7907
SWIDTH 600 0
DWIDTH 20 0
BBX 24 19 3 -4
BITMAP
01F01F
0FFC1E
1FFE3C
3C0F38
380770
700770
7003E0
F007C0
600780
700E00
700E00
783C00
3FFC00
1FF000
07C000
000000
00E000
01E000
01C000
ENDCHAR
STARTCHAR uni1EE4
ENCODING 7908
SWIDTH 600 0
DWIDTH 20 0
BBX 19 24 3 -4
BITMAP
7F8FE0
FF9FE0
FF1FC0
3C0780
380700
380700
380700
380700
780F00
700E00
700E00
700E00
F01E00
E01C00
E01C00
703C00
78F800
7FF000
3FE000
0F8000
000000
038000
078000
070000
ENDCHAR
STARTCHAR uni1EE5
ENCODING 7909
SWIDTH 600 0
DWIDTH 20 0
BBX 18 19 3 -4
BITMAP
7E1FC0
FE3FC0
FC3F80
3C0380
380700
380700
380700
780F00
700E00
700E00
701E00
787E00
7FFF80
7FEF80
3F8F00
000000
00E000
01E000
01C000
ENDCHAR
STARTCHAR uni1EE8
ENCODING 7912
SWIDTH 600 0
DWIDTH 20 0
BBX 26 27 3 0
BITMAP
0001E000
0003C000
00078000
000E0000
001C0000
00380000
00000000
7F8FE7C0
FF9FE780
FF1FCF00
3C078E00
38071C00
38071C00
38073800
38077000
780F6000
700E0000
700E0000
700E0000
F01E0000
E01C0000
E01C0000
703C0000
78F80000
7FF00000
3FE00000
0F800000
ENDCHAR
STARTCHAR uni1EE9
ENCODING 7913
SWIDTH 600 0
DWIDTH 20 0
BBX 25 22 3 0
BITMAP
0003C000
00078000
000F0000
001C0000
00380000
00700000
00000000
7E1FCF80
FE3FCF00
FC3F9E00
3C039C00
38073800
38073800
38077000
780FE000
700EC000
700E0000
701E0000
787E0000
7FFF8000
7FEF8000
3F8F0000
ENDCHAR
STARTCHAR uni1EEA
ENCODING 7914
SWIDTH 600 0
DWIDTH 20 0
BBX 26 26 3 0
BITMAP
00F00000
00780000
001C0000
000E0000
00060000
00000000
7F8FE7C0
FF9FE780
FF1FCF00
3C078E00
38071C00
38071C00
38073800
38077000
780F6000
700E0000
700E0000
700E0000
F01E0000
E01C0000
E01C0000
703C0000
78F80000
7FF00000
3FE00000
0F800000
ENDCHAR
STARTCHAR uni1EEB
ENCODING 7915
SWIDTH 600 0
DWIDTH 20 0
BBX 25 21 3 0
BITMAP
01E00000
00F00000
00380000
001C0000
000C0000
00000000
7E1FCF80
FE3FCF00
FC3F9E00
3C039C00
38073800
38073800
38077000
780FE000
700EC000
700E0000
701E0000
787E0000
7FFF8000
7FEF8000
3F8F0000
ENDCHAR
STARTCHAR uni1EEE
ENCODING 7918
SWIDTH 600 0
DWIDTH 20 0
BBX 26 24 3 0
BITMAP
00F8C000
01FFC000
018F8000
00000000
7F8FE7C0
FF9FE780
FF1FCF00
3C078E00
38071C00
38071C00
38073800
38077000
780F6000
700E0000
700E0000
700E0000
F01E0000
E01C0000
E01C0000
703C0000
78F80000
7FF00000
3FE00000
0F800000
ENDCHAR
STARTCHAR uni1EEF
ENCODING 7919
SWIDTH 600 0
DWIDTH 20 0
BBX 25 19 3 0
BITMAP
00F8C000
01FFC000
018F8000
00000000
7E1FCF80
FE3FCF00
FC3F9E00
3C039C00
38073800
38073800
38077000
780FE000
700EC000
700E0000
701E0000
787E0000
7FFF8000
7FEF8000
3F8F0000
ENDCHAR
STARTCHAR uni1EF0
ENCODING 7920
SWIDTH 600 0
DWIDTH 20 0
BBX 26 24 3 -4
BITMAP
7F8FE7C0
FF9FE780
FF1FCF00
3C078E00
38071C00
38071C00
38073800
38077000
780F6000
700E0000
700E0000
700E0000
F01E0000
E01C0000
E01C0000
703C0000
78F80000
7FF00000
3FE00000
0F800000
00000000
00E00000
01E00000
01C00000
ENDCHAR
STARTCHAR uni1EF1
ENCODING 7921
SWIDTH 600 0
DWIDTH 20 0
BBX 25 19 3 -4
BITMAP
7E1FCF80
FE3FCF00
FC3F9E00
3C039C00
38073800
38073800
38077000
780FE000
700EC000
700E0000
701E0000
787E0000
7FFF8000
7FEF8000
3F8F0000
00000000
00700000
00F00000
00E00000
ENDCHAR
STARTCHAR Ygrave
ENCODING 7922
SWIDTH 600 0
DWIDTH 20 0
BBX 19 26 4 0
BITMAP
0F0000
078000
01C000
00E000
006000
000000
7E0FE0
FE1FE0
FC1FC0
3C0F00
1C1E00
1E3C00
0E3800
0F7000
077000
07E000
07C000
038000
038000
038000
070000
070000
070000
7FF000
FFF000
FFE000
ENDCHAR
STARTCHAR ygrave
ENCODING 7923
SWIDTH 600 0
DWIDTH 20 0
BBX 23 28 -1 -7
BITMAP
00F000
007800
001C00
000E00
000600
000000
07E0FE
0FE1FE
0FC1FC
038078
0380F0
0381E0
01C1C0
01C380
01C780
01E700
00EE00
00FE00
00FC00
00F800
007000
00F000
00E000
01C000
038000
7FF000
FFF000
FFE000
ENDCHAR
STARTCHAR uni1EF4
ENCODING 7924
SWIDTH 600 0
DWIDTH 20 0
BBX 19 24 4 -4
BITMAP
7E0FE0
FE1FE0
FC1FC0
3C0F00
1C1E00
1E3C00
0E3800
0F7000
077000
07E000
07C000
038000
038000
038000
070000
070000
070000
7FF000
FFF000
FFE000
000000
038000
078000
070000
ENDCHAR
STARTCHAR uni1EF5
ENCODING 7925
SWIDTH 600 0
DWIDTH 20 0
BBX 23 26 -1 -11
BITMAP
07E0FE
0FE1FE
0FC1FC
038078
0380F0
0381E0
01C1C0
01C380
01C780
01E700
00EE00
00FE00
00FC00
00F800
007000
00F000
00E000
01C000
038000
7FF000
FFF000
FFE000
000000
01C000
03C000
038000
ENDCHAR
STARTCHAR uni1EF8
ENCODING 7928
SWIDTH 600 0
DWIDTH 20 0
BBX 19 24 4 0
BITMAP
07C600
0FFE00
0C7C00
000000
7E0FE0
FE1FE0
FC1FC0
3C0F00
1C1E00
1E3C00
0E3800
0F7000
077000
07E000
07C000
038000
038000
038000
070000
070000
070000
7FF000
FFF000
FFE000
ENDCHAR
STARTCHAR uni1EF9
ENCODING 7929
SWIDTH 600 0
DWIDTH 20 0
BBX 23 26 -1 -7
BITMAP
00F8C0
01FFC0
018F80
000000
07E0FE
0FE1FE
0FC1FC
038078
0380F0
0381E0
01C1C0
01C380
01C780
01E700
00EE00
00FE00
00FC00
00F800
007000
00F000
00E000
01C000
038000
7FF000
FFF000
FFE000
ENDCHAR
STARTCHAR uni2000
ENCODING 8192
SWIDTH 600 0
DWIDTH 20 0
BBX 1 1 0 0
BITMAP
00
ENDCHAR
STARTCHAR uni2001
ENCODING 8193
SWIDTH 600 0
DWIDTH 20 0
BBX 1 1 0 0
BITMAP
00
ENDCHAR
STARTCHAR uni2002
ENCODING 8194
SWIDTH 600 0
DWIDTH 20 0
BBX 1 1 0 0
BITMAP
00
ENDCHAR
STARTCHAR uni2003
ENCODING 8195
SWIDTH 600 0
DWIDTH 20 0
BBX 1 1 0 0
BITMAP
00
ENDCHAR
STARTCHAR uni2004
ENCODING 8196
SWIDTH 600 0
DWIDTH 20 0
BBX 1 1 0 0
BITMAP
00
ENDCHAR
STARTCHAR uni2005
ENCODING 8197
SWIDTH 600 0
DWIDTH 20 0
BBX 1 1 0 0
BITMAP
00
ENDCHAR
STARTCHAR uni2006
ENCODING 8198
SWIDTH 600 0
DWIDTH 20 0
BBX 1 1 0 0
BITMAP
00
ENDCHAR
STARTCHAR uni2007
ENCODING 8199
SWIDTH 600 0
DWIDTH 20 0
BBX 1 1 0 0
BITMAP
00
ENDCHAR
STARTCHAR uni2008
ENCODING 8200
SWIDTH 600 0
DWIDTH 20 0
BBX 1 1 0 0
BITMAP
00
ENDCHAR
STARTCHAR uni2009
ENCODING 8201
SWIDTH 600 0
DWIDTH 20 0
BBX 1 1 0 0
BITMAP
00
ENDCHAR
STARTCHAR uni200A
ENCODING 8202
SWIDTH 600 0
DWIDTH 20 0
BBX 1 1 0 0
BITMAP
00
ENDCHAR
STARTCHAR uni2010
ENCODING 8208
SWIDTH 600 0
DWIDTH 20 0
BBX 14 3 4 8
BITMAP
7FFC
FFFC
FFF8
ENDCHAR
STARTCHAR uni2011
ENCODING 8209
SWIDTH 600 0
DWIDTH 20 0
BBX 14 3 4 8
BITMAP
7FFC
FFFC
FFF8
ENDCHAR
STARTCHAR figuredash
ENCODING 8210
SWIDTH 600 0
DWIDTH 20 0
BBX 14 3 3 8
BITMAP
FFFC
FFFC
FFFC
ENDCHAR
STARTCHAR endash
ENCODING 8211
SWIDTH 600 0
DWIDTH 20 0
BBX 14 3 3 8
BITMAP
FFFC
FFFC
FFFC
ENDCHAR
STARTCHAR emdash
ENCODING 8212
SWIDTH 600 0
DWIDTH 20 0
BBX 20 3 0 8
BITMAP
FFFFF0
FFFFF0
FFFFF0
ENDCHAR
STARTCHAR afii00208
ENCODING 8213
SWIDTH 600 0
DWIDTH 20 0
BBX 20 3 0 8
BITMAP
FFFFF0
FFFFF0
FFFFF0
ENDCHAR
STARTCHAR quoteleft
ENCODING 8216
SWIDTH 600 0
DWIDTH 20 0
BBX 9 9 7 11
BITMAP
F800
7800
3C00
1C00
0E00
0E00
0700
0380
0180
ENDCHAR
STARTCHAR quoteright
ENCODING 8217
SWIDTH 600 0
DWIDTH 20 0
BBX 9 9 7 11
BITMAP
0F80
0F00
1E00
1C00
3800
3800
7000
E000
C000
ENDCHAR
STARTCHAR quotesinglbase
ENCODING 8218
SWIDTH 600 0
DWIDTH 20 0
BBX 8 10 4 -5
BITMAP
0F
0F
1E
1C
3C
38
70
70
E0
C0
ENDCHAR
STARTCHAR quotereversed
ENCODING 8219
SWIDTH 600 0
DWIDTH 20 0
BBX 9 9 7 11
BITMAP
F800
7800
3C00
1C00
0E00
0E00
0700
0380
0180
ENDCHAR
STARTCHAR quotedblleft
ENCODING 8220
SWIDTH 600 0
DWIDTH 20 0
BBX 12 8 7 12
BITMAP
F1E0
F1E0
70E0
38F0
3870
3870
1830
1830
ENDCHAR
STARTCHAR quotedblright
ENCODING 8221
SWIDTH 600 0
DWIDTH 20 0
BBX 15 8 6 12
BITMAP
0F1E
0F1E
1E3C
3C78
3870
70E0
E1C0
C180
ENDCHAR
STARTCHAR quotedblbase
ENCODING 8222
SWIDTH 600 0
DWIDTH 20 0
BBX 15 8 3 -4
BITMAP
0F1E
1E3C
1C78
3870
70E0
70E0
E1C0
C180
ENDCHAR
STARTCHAR uni201F
ENCODING 8223
SWIDTH 600 0
DWIDTH 20 0
BBX 15 8 6 12
BITMAP
F1E0
F1E0
78F0
3C78
1C38
0E1C
070E
0306
ENDCHAR
STARTCHAR dagger
ENCODING 8224
SWIDTH 600 0
DWIDTH 20 0
BBX 13 24 6 -3
BITMAP
0180
0380
0380
0380
0780
0700
7FF8
FFF8
FFF0
0F00
0E00
0E00
0E00
1E00
1C00
1C00
1C00
1C00
3C00
3800
3800
3800
3800
3000
ENDCHAR
STARTCHAR daggerdbl
ENCODING 8225
SWIDTH 600 0
DWIDTH 20 0
BBX 15 24 4 -3
BITMAP
0060
00E0
00E0
00E0
01E0
01C0
1FFE
3FFE
3FFC
03C0
0380
0380
0380
0780
0700
7FF8
FFF8
FFF0
0F00
0E00
0E00
0E00
0E00
0C00
ENDCHAR
STARTCHAR bullet
ENCODING 8226
SWIDTH 600 0
DWIDTH 20 0
BBX 10 10 7 5
BITMAP
0F00
3F80
7FC0
FFC0
FFC0
FFC0
FFC0
FF80
7F00
3C00
ENDCHAR
STARTCHAR ellipsis
ENCODING 8230
SWIDTH 600 0
DWIDTH 20 0
BBX 16 3 2 0
BITMAP
6183
E387
C306
ENDCHAR
STARTCHAR perthousand
ENCODING 8240
SWIDTH 600 0
DWIDTH 20 0
BBX 16 21 4 0
BITMAP
0E00
3E00
7300
6300
6700
6E00
7C03
381F
00FE
07F0
3F80
FC00
E000
0E0E
3E3E
3333
6363
6767
6E6E
7C7C
3838
ENDCHAR
STARTCHAR guilsinglleft
ENCODING 8249
SWIDTH 600 0
DWIDTH 20 0
BBX 11 14 3 1
BITMAP
0060
00E0
01C0
0380
0F00
1E00
3C00
7800
F000
7800
3C00
1E00
0F00
0700
ENDCHAR
STARTCHAR guilsinglright
ENCODING 8250
SWIDTH 600 0
DWIDTH 20 0
BBX 11 14 5 1
BITMAP
1C00
1E00
0F00
0780
03C0
01E0
03C0
0780
0F00
1E00
3800
7000
E000
C000
ENDCHAR
STARTCHAR uni203D
ENCODING 8253
SWIDTH 600 0
DWIDTH 20 0
BBX 13 21 7 0
BITMAP
01C0
0FE0
3FE0
7FF0
F3F8
E3F8
C3F8
03B8
03F8
03F0
0FE0
1F80
1F00
3E00
3A00
0000
0000
7E00
FF00
FF00
FE00
ENDCHAR
STARTCHAR fraction
ENCODING 8260
SWIDTH 600 0
DWIDTH 20 0
BBX 16 16 2 2
BITMAP
0003
0007
000E
001C
0038
0070
00E0
00C0
0180
0300
0700
0E00
1C00
3800
7000
E000
ENDCHAR
STARTCHAR oneinferior
ENCODING 8321
SWIDTH 600 0
DWIDTH 20 0
BBX 9 13 7 -7
BITMAP
0180
0F80
3F00
3700
0600
0600
0600
0600
0E00
0C00
0C00
7F80
FF00
ENDCHAR
STARTCHAR twoinferior
ENCODING 8322
SWIDTH 600 0
DWIDTH 20 0
BBX 11 14 7 -7
BITMAP
0780
1FC0
38E0
3060
00E0
01C0
0380
0700
0E00
1C00
3000
E180
FF80
FF80
ENDCHAR
STARTCHAR threeinferior
ENCODING 8323
SWIDTH 600 0
DWIDTH 20 0
BBX 10 14 8 -7
BITMAP
0F80
3FC0
38C0
00C0
01C0
0F80
0F80
0180
0080
01C0
C180
E700
7E00
3C00
ENDCHAR
STARTCHAR uni20A5
ENCODING 8357
SWIDTH 600 0
DWIDTH 20 0
BBX 22 27 0 -6
BITMAP
000018
000078
000070
0000E0
0001E0
0001C0
1E3BE0
3EFFF8
3FFFFC
0F9F3C
0F1E38
0E1C38
0E3C38
1E7C78
1C7870
1CF870
1DF870
1DF870
7FFCF8
FFFCF8
FF78F0
0E0000
1E0000
1C0000
380000
780000
600000
ENDCHAR
STARTCHAR uni20A6
ENCODING 8358
SWIDTH 600 0
DWIDTH 20 0
BBX 22 20 1 0
BITMAP
0F81FC
1FC3FC
1FC3F8
07C0F0
07E0E0
0FFFF8
1FFFF8
1FFFF0
0F71E0
0E79C0
0E39C0
3FFFE0
7FFFE0
7FFFC0
1C1F80
1C1F80
1C0F80
7F8F80
FF8700
FF0700
ENDCHAR
STARTCHAR uni20A9
ENCODING 8361
SWIDTH 600 0
DWIDTH 20 0
BBX 22 20 3 0
BITMAP
7F81FC
FF83FC
FF03F8
3800F0
3870E0
3FFFF8
3FFFF8
3FFFF0
39F9C0
39F9C0
3BBB80
3FFFE0
7FFFE0
7FFFC0
7E3F00
7C1F00
7C1E00
781E00
781E00
701E00
ENDCHAR
STARTCHAR Euro
ENCODING 8364
SWIDTH 600 0
DWIDTH 20 0
BBX 25 20 -3 0
BITMAP
0003F180
000FFF80
003FFF80
007E0F80
00780700
1FFFF700
3FFFF600
3FFFE000
03C00000
03800000
03800000
7FFFC000
FFFFC000
FFFF8000
03800000
03C01C00
01E07C00
01FFF800
007FF000
001FC000
ENDCHAR
STARTCHAR uni20AD
ENCODING 8365
SWIDTH 600 0
DWIDTH 20 0
BBX 22 20 1 0
BITMAP
0FF1FC
1FF3FC
1FE3F8
0781E0
0703C0
070780
071F00
077C00
FFFFFC
FFFFFC
FFFFFC
0F3C00
1E1E00
1C0E00
1C0E00
1C0700
1C0700
7F87E0
FF87E0
FF07C0
ENDCHAR
STARTCHAR trademark
ENCODING 8482
SWIDTH 600 0
DWIDTH 20 0
BBX 22 13 2 7
BITMAP
7FEE3C
7FEE3C
7FFE78
EF7E78
CF7FF0
CE1FF0
0E1FF0
1E1FF0
1C3B70
1C38E0
3E7CF0
7EFDF0
7EFDF0
ENDCHAR
STARTCHAR uni212A
ENCODING 8490
SWIDTH 600 0
DWIDTH 20 0
BBX 22 20 1 0
BITMAP
0FF1FC
1FF3FC
1FE3F8
0781E0
0703C0
070780
071F00
077C00
0FF000
0FF800
0FFC00
0F3C00
1E1E00
1C0E00
1C0E00
1C0700
1C0700
7F87E0
FF87E0
FF07C0
ENDCHAR
STARTCHAR uni212B
ENCODING 8491
SWIDTH 600 0
DWIDTH 20 0
BBX 21 26 -1 0
BITMAP
000F00
001880
001080
001180
000F00
000000
00FF80
01FF80
01FF80
001F80
003F80
003B80
0073C0
00F1C0
00E1C0
01E1C0
01C1C0
0381C0
07FFE0
07FFE0
0FFFE0
0E00E0
1C00E0
7F83F8
FF87F8
FF07F0
ENDCHAR
STARTCHAR uni2132
ENCODING 8498
SWIDTH 600 0
DWIDTH 20 0
BBX 21 20 1 0
BITMAP
003FF8
007FF8
007FF0
0001C0
0001C0
0001C0
01C1C0
01C3C0
01C380
01FF80
01FF80
03FF80
038700
338700
700700
700700
700F00
7FFFC0
FFFFC0
FFFF80
ENDCHAR
STARTCHAR minus
ENCODING 8722
SWIDTH 600 0
DWIDTH 20 0
BBX 15 3 3 8
BITMAP
7FFE
FFFE
FFFC
ENDCHAR
STARTCHAR fraction
ENCODING 8725
SWIDTH 600 0
DWIDTH 20 0
BBX 16 16 2 2
BITMAP
0003
0007
000E
001C
0038
0070
00E0
00C0
0180
0300
0700
0E00
1C00
3800
7000
E000
ENDCHAR
STARTCHAR periodcentered
ENCODING 8729
SWIDTH 600 0
DWIDTH 20 0
BBX 5 4 9 8
BITMAP
78
F8
F8
F0
ENDCHAR
STARTCHAR uni2236
ENCODING 8758
SWIDTH 600 0
DWIDTH 20 0
BBX 7 15 8 0
BITMAP
1E
3E
3E
3C
00
00
00
00
00
00
00
78
F8
F8
F0
ENDCHAR
STARTCHAR uni2259
ENCODING 8793
SWIDTH 600 0
DWIDTH 20 0
BBX 20 15 2 5
BITMAP
002000
007000
01F800
039E00
070600
000000
1FFFF0
3FFFF0
3FFFE0
000000
000000
000000
7FFFC0
FFFFC0
FFFF80
ENDCHAR
STARTCHAR uni225A
ENCODING 8794
SWIDTH 600 0
DWIDTH 20 0
BBX 20 15 2 5
BITMAP
030600
039E00
01F800
00F000
004000
000000
1FFFF0
3FFFF0
3FFFE0
000000
000000
000000
7FFFC0
FFFFC0
FFFF80
ENDCHAR
STARTCHAR notequal
ENCODING 8800
SWIDTH 600 0
DWIDTH 20 0
BBX 20 27 2 -4
BITMAP
000030
0000F0
0000E0
0001C0
0003C0
000380
000700
000F00
000E00
1FFFF0
3FFFF0
3FFFE0
007000
00F000
00E000
7FFFC0
FFFFC0
FFFF80
070000
0F0000
0E0000
1C0000
3C0000
380000
700000
F00000
C00000
ENDCHAR
STARTCHAR equivalence
ENCODING 8801
SWIDTH 600 0
DWIDTH 20 0
BBX 20 11 0 4
BITMAP
FFFFF0
FFFFF0
FFFFF0
000000
FFFFF0
FFFFF0
FFFFF0
000000
FFFFF0
FFFFF0
FFFFF0
ENDCHAR
STARTCHAR uni2262
ENCODING 8802
SWIDTH 600 0
DWIDTH 20 0
BBX 20 27 0 -4
BITMAP
000030
0000F0
0000E0
0001C0
0003C0
000380
000700
000F00
FFFFF0
FFFFF0
FFFFF0
003800
FFFFF0
FFFFF0
FFFFF0
01C000
FFFFF0
FFFFF0
FFFFF0
0F0000
0E0000
1C0000
3C0000
380000
700000
F00000
C00000
ENDCHAR
STARTCHAR lessequal
ENCODING 8804
SWIDTH 600 0
DWIDTH 20 0
BBX 19 23 3 -4
BITMAP
000060
0001E0
0007C0
001F80
007E00
01F800
07E000
1F8000
7F0000
FC0000
7E0000
1F0000
0FC000
03E000
01F800
007C00
003E00
000E00
000400
000000
FFFFE0
FFFFE0
FFFFE0
ENDCHAR
STARTCHAR greaterequal
ENCODING 8805
SWIDTH 600 0
DWIDTH 20 0
BBX 19 23 2 -4
BITMAP
040000
0E0000
0F8000
07C000
03F000
00F800
007E00
001F00
000FC0
0007E0
001FC0
003F00
00FC00
03F000
0FC000
3F0000
7C0000
F00000
C00000
000000
FFFFE0
FFFFE0
FFFFE0
ENDCHAR
STARTCHAR uni226E
ENCODING 8814
SWIDTH 600 0
DWIDTH 20 0
BBX 20 27 3 -4
BITMAP
000030
0000F0
0000E0
0001C0
0003E0
0003E0
0007C0
001F80
007E00
01FC00
07FC00
1FB800
7F7000
FCF000
7EE000
1FC000
0FC000
03E000
07F800
0F7C00
0E3E00
1C0E00
3C0400
380000
700000
F00000
C00000
ENDCHAR
STARTCHAR uni226F
ENCODING 8815
SWIDTH 600 0
DWIDTH 20 0
BBX 20 27 2 -4
BITMAP
000030
0000F0
0000E0
0001C0
0403C0
0E0380
0F8700
07CF00
03FE00
00FC00
007E00
003F00
007FC0
00F7E0
00FFC0
01FF00
03FC00
03F000
0FC000
3F0000
7E0000
FC0000
FC0000
380000
700000
F00000
C00000
ENDCHAR
STARTCHAR uni2270
ENCODING 8816
SWIDTH 600 0
DWIDTH 20 0
BBX 20 27 3 -6
BITMAP
000030
0000F0
0000E0
0001E0
0007C0
001F80
007F00
01FF00
07EE00
1F9C00
7F3C00
FC3800
7E7000
1FF000
0FE000
03E000
03F800
03FC00
073E00
0F0E00
0E0400
1C0000
FFFFE0
FFFFE0
FFFFE0
F00000
C00000
ENDCHAR
STARTCHAR uni2271
ENCODING 8817
SWIDTH 600 0
DWIDTH 20 0
BBX 20 27 2 -6
BITMAP
000030
0000F0
0400E0
0E01C0
0F83C0
07C380
03F700
00FF00
007E00
001F00
003FC0
003FE0
007FC0
00FF00
00FC00
03F000
0FC000
3F8000
7F0000
FF0000
CE0000
1C0000
FFFFE0
FFFFE0
FFFFE0
F00000
C00000
ENDCHAR
STARTCHAR fi
ENCODING -1
SWIDTH 600 0
DWIDTH 20 0
BBX 21 21 0 0
BITMAP
003E78
00FE78
01FCF8
01C0F0
03C000
038000
1FF1F0
3FF3F0
3FE3F0
0780F0
0700E0
0700E0
0700E0
0F01E0
0E01C0
0E01C0
0E01C0
0E01C0
7FCFF8
FFDFF8
FF9FF0
ENDCHAR
STARTCHAR fl
ENCODING -1
SWIDTH 600 0
DWIDTH 20 0
BBX 21 21 0 0
BITMAP
003EF8
00FFF8
01FDF8
01C038
03C078
038070
1FF070
3FF070
3FE070
0780F0
0700E0
0700E0
0700E0
0F01E0
0E01C0
0E01C0
0E01C0
0E01C0
7FCFF8
FFDFF8
FF9FF0
ENDCHAR
ENDFONT
